<svg width="60" height="61" viewBox="0 0 60 61" fill="none" xmlns="http://www.w3.org/2000/svg">
<rect y="0.490723" width="60" height="60" rx="9" fill="#12B347"/>
<path fill-rule="evenodd" clip-rule="evenodd" d="M29.9135 12.574H30.0868C31.5843 12.5739 32.833 12.5739 33.8243 12.7072C34.8706 12.8478 35.8153 13.1573 36.5744 13.9164C37.3335 14.6755 37.643 15.6202 37.7836 16.6665C37.8822 17.3992 37.9078 18.2725 37.9145 19.2829C38.9954 19.3175 39.9589 19.3807 40.8152 19.4959C42.7692 19.7586 44.3508 20.3121 45.5981 21.5594C46.8454 22.8067 47.3989 24.3882 47.6616 26.3423C47.9169 28.241 47.9169 30.667 47.9168 33.73V33.918C47.9169 36.9809 47.9169 39.407 47.6616 41.3057C47.3989 43.2597 46.8454 44.8413 45.5981 46.0886C44.3508 47.3358 42.7692 47.8894 40.8152 48.1521C38.9165 48.4074 36.4905 48.4073 33.4275 48.4073H26.5728C23.5099 48.4073 21.0838 48.4074 19.1851 48.1521C17.2311 47.8894 15.6495 47.3358 14.4022 46.0886C13.155 44.8413 12.6014 43.2597 12.3387 41.3057C12.0834 39.407 12.0835 36.9809 12.0835 33.918V33.7299C12.0835 30.667 12.0834 28.241 12.3387 26.3423C12.6014 24.3882 13.155 22.8067 14.4022 21.5594C15.6495 20.3121 17.2311 19.7586 19.1851 19.4959C20.0414 19.3807 21.005 19.3175 22.0858 19.2829C22.0925 18.2725 22.1182 17.3992 22.2167 16.6665C22.3574 15.6202 22.6668 14.6755 23.4259 13.9164C24.185 13.1573 25.1297 12.8478 26.176 12.7072C27.1673 12.5739 28.416 12.5739 29.9135 12.574ZM24.5865 19.2436C25.2167 19.2406 25.8784 19.2406 26.5728 19.2406H33.4275C34.1219 19.2406 34.7836 19.2406 35.4138 19.2436C35.4068 18.2931 35.3834 17.5761 35.3059 16.9996C35.2025 16.2305 35.0238 15.9014 34.8066 15.6842C34.5894 15.467 34.2603 15.2883 33.4912 15.1849C32.6861 15.0766 31.6068 15.074 30.0002 15.074C28.3935 15.074 27.3142 15.0766 26.5092 15.1849C25.74 15.2883 25.4109 15.467 25.1937 15.6842C24.9765 15.9014 24.7978 16.2305 24.6944 16.9996C24.6169 17.5761 24.5935 18.2931 24.5865 19.2436ZM19.5182 21.9736C17.8414 22.199 16.8754 22.6218 16.17 23.3271C15.4647 24.0325 15.0419 24.9986 14.8164 26.6754C14.5862 28.3882 14.5835 30.6459 14.5835 33.824C14.5835 37.002 14.5862 39.2598 14.8164 40.9726C15.0419 42.6494 15.4647 43.6155 16.17 44.3208C16.8754 45.0262 17.8414 45.4489 19.5182 45.6744C21.231 45.9047 23.4888 45.9073 26.6668 45.9073H33.3335C36.5115 45.9073 38.7693 45.9047 40.4821 45.6744C42.1589 45.4489 43.125 45.0262 43.8303 44.3208C44.5357 43.6155 44.9585 42.6494 45.1839 40.9726C45.4142 39.2598 45.4168 37.002 45.4168 33.824C45.4168 30.6459 45.4142 28.3882 45.1839 26.6754C44.9585 24.9986 44.5357 24.0325 43.8303 23.3271C43.125 22.6218 42.1589 22.199 40.4821 21.9736C38.7693 21.7433 36.5115 21.7406 33.3335 21.7406H26.6668C23.4888 21.7406 21.231 21.7433 19.5182 21.9736ZM30.0002 25.9073C30.6905 25.9073 31.2502 26.467 31.2502 27.1573V27.1744C33.0648 27.6315 34.5835 29.0623 34.5835 31.0462C34.5835 31.7366 34.0239 32.2962 33.3335 32.2962C32.6431 32.2962 32.0835 31.7366 32.0835 31.0462C32.0835 30.4061 31.3738 29.5184 30.0002 29.5184C28.6265 29.5184 27.9168 30.4061 27.9168 31.0462C27.9168 31.6863 28.6265 32.574 30.0002 32.574C32.3084 32.574 34.5835 34.1736 34.5835 36.6018C34.5835 38.5856 33.0648 40.0164 31.2502 40.4736V40.4906C31.2502 41.181 30.6905 41.7406 30.0002 41.7406C29.3098 41.7406 28.7502 41.181 28.7502 40.4906V40.4736C26.9355 40.0164 25.4168 38.5856 25.4168 36.6018C25.4168 35.9114 25.9765 35.3518 26.6668 35.3518C27.3572 35.3518 27.9168 35.9114 27.9168 36.6018C27.9168 37.2418 28.6265 38.1295 30.0002 38.1295C31.3738 38.1295 32.0835 37.2418 32.0835 36.6018C32.0835 35.9617 31.3738 35.074 30.0002 35.074C27.6919 35.074 25.4168 33.4744 25.4168 31.0462C25.4168 29.0623 26.9355 27.6315 28.7502 27.1744V27.1573C28.7502 26.467 29.3098 25.9073 30.0002 25.9073Z" fill="#F5F5F5"/>
</svg>
