<svg width="60" height="60" viewBox="0 0 60 60" fill="none" xmlns="http://www.w3.org/2000/svg">
<rect y="-0.00927734" width="60" height="60" rx="9" fill="#12B347"/>
<path fill-rule="evenodd" clip-rule="evenodd" d="M44.8727 29.5744C44.8388 29.5741 44.7944 29.5741 44.7224 29.5741H40.3848C38.0124 29.5741 36.2502 31.3386 36.2502 33.3241C36.2502 35.3095 38.0124 37.0741 40.3848 37.0741H44.7224C44.7944 37.0741 44.8388 37.074 44.8727 37.0737C44.9047 37.0733 44.9134 37.0728 44.9134 37.0728C45.2569 37.0519 45.4047 36.8201 45.4159 36.6806C45.4159 36.6806 45.4163 36.6701 45.4164 36.655C45.4168 36.6254 45.4168 36.586 45.4168 36.5185V30.1296C45.4168 30.0923 45.4168 30.0635 45.4168 30.0402C45.4167 30.0215 45.4166 30.0063 45.4164 29.9931C45.4163 29.978 45.4159 29.9675 45.4159 29.9675C45.4047 29.8281 45.2569 29.5962 44.9134 29.5753C44.9134 29.5753 44.9052 29.5748 44.8727 29.5744ZM44.75 27.074C44.8606 27.074 44.9673 27.074 45.0653 27.0799C46.5176 27.1683 47.8019 28.2637 47.9099 29.7937C47.917 29.894 47.9169 30.0022 47.9168 30.1024C47.9168 30.1115 47.9168 30.1206 47.9168 30.1296V36.5185C47.9168 36.5275 47.9168 36.5366 47.9168 36.5457C47.9169 36.6459 47.917 36.7541 47.9099 36.8544C47.8019 38.3844 46.5176 39.4798 45.0653 39.5682C44.9673 39.5741 44.8606 39.5741 44.75 39.5741C44.7408 39.5741 44.7316 39.5741 44.7224 39.5741H40.3848C36.8094 39.5741 33.7502 36.8615 33.7502 33.3241C33.7502 29.7867 36.8094 27.0741 40.3848 27.0741H44.7224C44.7316 27.0741 44.7408 27.0741 44.75 27.074Z" fill="#F5F5F5"/>
<path d="M41.6668 33.3241C41.6668 34.2445 40.9206 34.9907 40.0002 34.9907C39.0797 34.9907 38.3335 34.2445 38.3335 33.3241C38.3335 32.4036 39.0797 31.6574 40.0002 31.6574C40.9206 31.6574 41.6668 32.4036 41.6668 33.3241Z" fill="#F5F5F5"/>
<path fill-rule="evenodd" clip-rule="evenodd" d="M44.75 27.074C44.8606 27.074 44.9673 27.074 45.0653 27.0799C45.441 27.1028 45.8055 27.1931 46.1413 27.3408C45.963 24.6634 45.4721 22.6001 43.9314 21.0595C42.6842 19.8122 41.1026 19.2587 39.1485 18.9959L39.078 18.9866C39.0605 18.9737 39.0426 18.9611 39.0243 18.9489L32.7985 14.8208C30.6265 13.3807 27.7071 13.3807 25.5352 14.8208L19.3094 18.9489C19.291 18.9611 19.2731 18.9737 19.2556 18.9866L19.1851 18.9959C17.2311 19.2587 15.6495 19.8122 14.4022 21.0595C13.155 22.3067 12.6014 23.8883 12.3387 25.8424C12.0834 27.741 12.0835 30.1671 12.0835 33.23V33.4181C12.0835 36.481 12.0834 38.9071 12.3387 40.8058C12.6014 42.7598 13.155 44.3414 14.4022 45.5887C15.6495 46.8359 17.2311 47.3895 19.1851 47.6522C21.0838 47.9074 23.5099 47.9074 26.5728 47.9074H31.7608C34.8238 47.9074 37.2498 47.9074 39.1485 47.6522C41.1026 47.3895 42.6842 46.8359 43.9314 45.5887C45.4721 44.048 45.963 41.9847 46.1413 39.3073C45.8055 39.455 45.441 39.5453 45.0653 39.5682C44.9673 39.5741 44.8606 39.5741 44.75 39.5741L44.7224 39.5741H43.6134C43.4236 41.8098 42.9945 42.99 42.1637 43.8209C41.4583 44.5262 40.4922 44.949 38.8154 45.1745C37.1026 45.4047 34.8449 45.4074 31.6668 45.4074H26.6668C23.4888 45.4074 21.231 45.4047 19.5182 45.1745C17.8414 44.949 16.8754 44.5262 16.17 43.8209C15.4647 43.1155 15.0419 42.1495 14.8164 40.4726C14.5862 38.7599 14.5835 36.5021 14.5835 33.3241C14.5835 30.146 14.5862 27.8882 14.8164 26.1755C15.0419 24.4987 15.4647 23.5326 16.17 22.8272C16.8754 22.1219 17.8414 21.6991 19.5182 21.4737C21.231 21.2434 23.4888 21.2407 26.6668 21.2407H31.6668C34.8449 21.2407 37.1026 21.2434 38.8154 21.4737C40.4922 21.6991 41.4583 22.1219 42.1637 22.8272C42.9945 23.6581 43.4236 24.8383 43.6134 27.0741H44.7224L44.75 27.074ZM26.5728 18.7407H31.7609C32.6217 18.7407 33.4322 18.7407 34.1949 18.7464L31.4169 16.9044C30.0823 16.0195 28.2513 16.0195 26.9167 16.9044L24.1388 18.7464C24.9014 18.7407 25.712 18.7407 26.5728 18.7407Z" fill="#F5F5F5"/>
<path d="M20.0002 25.4074C19.3098 25.4074 18.7502 25.967 18.7502 26.6574C18.7502 27.3477 19.3098 27.9074 20.0002 27.9074H26.6668C27.3572 27.9074 27.9168 27.3477 27.9168 26.6574C27.9168 25.967 27.3572 25.4074 26.6668 25.4074H20.0002Z" fill="#F5F5F5"/>
<path fill-rule="evenodd" clip-rule="evenodd" d="M41.6668 33.3241C41.6668 34.2445 40.9206 34.9907 40.0002 34.9907C39.0797 34.9907 38.3335 34.2445 38.3335 33.3241C38.3335 32.4036 39.0797 31.6574 40.0002 31.6574C40.9206 31.6574 41.6668 32.4036 41.6668 33.3241Z" fill="#F5F5F5"/>
</svg>
