<svg width="60" height="61" viewBox="0 0 60 61" fill="none" xmlns="http://www.w3.org/2000/svg">
<rect y="0.490723" width="60" height="60" rx="9" fill="#12B347"/>
<path d="M29.501 22.0858C30.1276 21.796 30.4007 21.0532 30.1109 20.4266C29.8211 19.8 29.0783 19.5269 28.4517 19.8167C25.1768 21.3311 22.6528 24.3424 21.4995 27.9863C21.2912 28.6445 21.6559 29.347 22.314 29.5553C22.9722 29.7636 23.6747 29.3989 23.883 28.7407C24.8455 25.6997 26.9252 23.277 29.501 22.0858Z" fill="#F5F5F5"/>
<path fill-rule="evenodd" clip-rule="evenodd" d="M33.976 13.3717C31.4279 12.3081 28.5721 12.3081 26.024 13.3717C18.5889 16.4754 13.75 23.86 13.75 32.0375V32.4787C13.75 41.2492 20.7091 48.4073 29.3525 48.4073H30.6475C39.2909 48.4073 46.25 41.2492 46.25 32.4787V32.0375C46.25 23.86 41.4111 16.4754 33.976 13.3717ZM26.987 15.6788C28.9189 14.8724 31.0811 14.8724 33.013 15.6788C39.4937 18.3841 43.75 24.843 43.75 32.0375V32.4787C43.75 39.9217 37.8575 45.9073 30.6475 45.9073H29.3525C22.1425 45.9073 16.25 39.9218 16.25 32.4787V32.0375C16.25 24.843 20.5063 18.3841 26.987 15.6788Z" fill="#F5F5F5"/>
</svg>
