<?xml version="1.0" encoding="UTF-8"?>
<svg version="1.1" xmlns="http://www.w3.org/2000/svg" width="168" height="180">
<path d="M0 0 C55.44 0 110.88 0 168 0 C168 59.4 168 118.8 168 180 C112.56 180 57.12 180 0 180 C0 120.6 0 61.2 0 0 Z " fill="#101215" transform="translate(0,0)"/>
<path d="M0 0 C1.875 0.3125 1.875 0.3125 4 1 C4.99 2.485 4.99 2.485 6 4 C6.66 4 7.32 4 8 4 C8 2.68 8 1.36 8 0 C8.66 0 9.32 0 10 0 C11.26922397 2.53844795 10.99560577 4.16978459 10.875 7 C10.79862501 12.78158678 12.03180287 17.59917335 14 23 C15.65 22.34 17.3 21.68 19 21 C18.505 18.03 18.505 18.03 18 15 C16.35 15.66 14.7 16.32 13 17 C12.63478261 9.69565217 12.63478261 9.69565217 14.3125 6.5 C16 5 16 5 19 5 C19.495 6.98 19.495 6.98 20 9 C20.99 9 21.98 9 23 9 C24.35439668 11.70879335 24.06501451 14.00933268 24 17 C24.66 17 25.32 17 26 17 C24.4114658 21.28904235 21.56872632 23.32345526 18 26 C17.34 26 16.68 26 16 26 C16 29.96 16 33.92 16 38 C17.485 38.495 17.485 38.495 19 39 C19 39.66 19 40.32 19 41 C19.66 41 20.32 41 21 41 C21.28875 40.21625 21.5775 39.4325 21.875 38.625 C23 36 23 36 25 34 C25.27437757 31.73088392 25.27437757 31.73088392 25.3125 29.1875 C25.69442221 24.06092882 27.27576032 22.53325303 31 19 C31.41831404 15.28999282 31.41831404 15.28999282 31 12 C29.35 12.66 27.7 13.32 26 14 C25.51048951 7.63636364 25.51048951 7.63636364 27.875 4.5625 C30 3 30 3 32 3 C32 5.31 32 7.62 32 10 C34.475 9.505 34.475 9.505 37 9 C37.29352171 12.05262578 37.44212192 14.95778015 37 18 C34.5625 20.375 34.5625 20.375 32 22 C31.505 23.485 31.505 23.485 31 25 C31.99 24.34 32.98 23.68 34 23 C36.33199388 22.92094936 38.66832622 22.91201231 41 23 C39.9375 25.4375 39.9375 25.4375 38 28 C34.3125 28.8125 34.3125 28.8125 31 29 C31 29.66 31 30.32 31 31 C34.3 31 37.6 31 41 31 C40.67 31.66 40.34 32.32 40 33 C41.485 33.495 41.485 33.495 43 34 C43 34.66 43 35.32 43 36 C44.65 36 46.3 36 48 36 C48 33.03 48 30.06 48 27 C46.35 27.66 44.7 28.32 43 29 C42.63734957 24.76907828 43.39749195 22.37362154 46 19 C46.99 19 47.98 19 49 19 C49 20.65 49 22.3 49 24 C50.65 23.67 52.3 23.34 54 23 C54.08121924 24.60332791 54.13929134 26.20784026 54.1875 27.8125 C54.23970703 29.15248047 54.23970703 29.15248047 54.29296875 30.51953125 C54 33 54 33 52.61328125 34.82421875 C51 36 51 36 49 36 C48.71125 36.598125 48.4225 37.19625 48.125 37.8125 C47 40 47 40 45 43 C46.65 43.66 48.3 44.32 50 45 C49.505 45.99 49.505 45.99 49 47 C46.71484375 47.4140625 46.71484375 47.4140625 43.9375 47.625 C43.01839844 47.69976562 42.09929687 47.77453125 41.15234375 47.8515625 C40.44207031 47.90054688 39.73179688 47.94953125 39 48 C42.12180401 48.96661363 44.52083795 48.98988909 47.75 48.5625 C48.54921875 48.46066406 49.3484375 48.35882813 50.171875 48.25390625 C50.77515625 48.17011719 51.3784375 48.08632812 52 48 C51.67 49.32 51.34 50.64 51 52 C50.01 52 49.02 52 48 52 C48.33 52.99 48.66 53.98 49 55 C44.545 55.495 44.545 55.495 40 56 C38.71019877 59.69743019 37.77285639 63.13571805 37 67 C41.29 67.33 45.58 67.66 50 68 C50.99 66.515 50.99 66.515 52 65 C50.35 65.66 48.7 66.32 47 67 C47.25 64.625 47.25 64.625 48 62 C50.0625 60.6875 50.0625 60.6875 52 60 C52.33 60.99 52.66 61.98 53 63 C53.18175781 62.38511719 53.36351562 61.77023438 53.55078125 61.13671875 C53.80214844 60.32847656 54.05351562 59.52023438 54.3125 58.6875 C54.55613281 57.88699219 54.79976563 57.08648437 55.05078125 56.26171875 C56.05354349 53.87242107 56.98059282 52.60410493 59 51 C59.66 51 60.32 51 61 51 C60.67 53.97 60.34 56.94 60 60 C61.98 60 63.96 60 66 60 C64.98823563 63.40320742 64.35156418 64.75725331 61.375 66.8125 C60.59125 67.204375 59.8075 67.59625 59 68 C60.29233853 68 61.58388123 67.9311356 62.875 67.875 C66 68 66 68 69 70 C69 70.66 69 71.32 69 72 C63.31150252 73.49697302 58.58190932 72.3348044 53 71 C53 71.66 53 72.32 53 73 C56.56071312 74.04882391 60.05527897 74.30386953 63.75 74.5625 C65.50570312 74.68818359 65.50570312 74.68818359 67.296875 74.81640625 C68.18890625 74.87699219 69.0809375 74.93757813 70 75 C69.01 76.98 69.01 76.98 68 79 C65.69 78.67 63.38 78.34 61 78 C61 78.66 61 79.32 61 80 C62.04800781 80.12955078 62.04800781 80.12955078 63.1171875 80.26171875 C65.83968863 80.68204824 68.38196209 81.13743453 71 82 C72.625 84.625 72.625 84.625 73 87 C70.3125 87.3125 70.3125 87.3125 67 87 C65.28891311 85.37897032 63.62746694 83.70496537 62 82 C57.83833835 79.34163246 54.05407318 77.36824085 49 78 C49.763125 78.4125 50.52625 78.825 51.3125 79.25 C53.95787162 80.97256756 55.36476551 82.33198584 57 85 C57 85.66 57 86.32 57 87 C51.73840541 87.64165788 49.31407151 86.20577001 45.3203125 83.09375 C44.88460937 82.7328125 44.44890625 82.371875 44 82 C43.7834375 83.3921875 43.7834375 83.3921875 43.5625 84.8125 C43 88 43 88 42 91 C40.02 90.505 40.02 90.505 38 90 C37.92652344 88.93458984 37.92652344 88.93458984 37.8515625 87.84765625 C37.73941406 86.46900391 37.73941406 86.46900391 37.625 85.0625 C37.55539063 84.14597656 37.48578125 83.22945313 37.4140625 82.28515625 C37.20910156 81.15400391 37.20910156 81.15400391 37 80 C34.20268195 78.60134097 31.80715441 78.75462733 28.6875 78.6875 C26.99173828 78.63142578 26.99173828 78.63142578 25.26171875 78.57421875 C21.32376994 79.08827434 19.78154379 80.21845621 17 83 C12.32385051 91.86855938 13.62259368 101.35815576 15 111 C8.73 111 2.46 111 -4 111 C-3.34 108.69 -2.68 106.38 -2 104 C-1.3071542 96.52266417 -1.36333884 89.66721212 -5 83 C-8.00369279 79.75276455 -10.11960961 79.05888899 -14.50390625 78.765625 C-18.01282936 78.75146184 -21.49570523 78.82718546 -25 79 C-25.03867188 79.92232422 -25.03867188 79.92232422 -25.078125 80.86328125 C-25.54716981 87.54716981 -25.54716981 87.54716981 -28.0625 90.0625 C-29.0215625 90.5265625 -29.0215625 90.5265625 -30 91 C-31.32 88.36 -32.64 85.72 -34 83 C-35.299375 83.99 -35.299375 83.99 -36.625 85 C-40.21423463 87.12695385 -41.92694798 87.38790972 -46 87 C-45.21448343 85.68381002 -44.4213763 84.37214772 -43.625 83.0625 C-43.18414062 82.33160156 -42.74328125 81.60070312 -42.2890625 80.84765625 C-41 79 -41 79 -39 78 C-43.68385251 78.49017061 -46.30650073 79.61149416 -50 82.5 C-53.69349927 85.38850584 -56.31614749 86.50982939 -61 87 C-60.5625 84.6875 -60.5625 84.6875 -59 82 C-56.09244107 80.63924116 -53.10712212 79.78637041 -50 79 C-50.94875 79.020625 -51.8975 79.04125 -52.875 79.0625 C-56 79 -56 79 -58 78 C-58 77.34 -58 76.68 -58 76 C-57.18015625 75.86722656 -56.3603125 75.73445313 -55.515625 75.59765625 C-53.89914063 75.33275391 -53.89914063 75.33275391 -52.25 75.0625 C-50.64898437 74.80146484 -50.64898437 74.80146484 -49.015625 74.53515625 C-46.63652407 74.11295829 -44.33084789 73.62797116 -42 73 C-42 72.34 -42 71.68 -42 71 C-42.58007812 71.15597656 -43.16015625 71.31195313 -43.7578125 71.47265625 C-48.52516927 72.66056198 -52.12820288 73.24917875 -57 72 C-57 71.01 -57 70.02 -57 69 C-54.03 68.505 -54.03 68.505 -51 68 C-51.639375 67.071875 -52.27875 66.14375 -52.9375 65.1875 C-55 62 -55 62 -56 59 C-54.02 59 -52.04 59 -50 59 C-50 56.03 -50 53.06 -50 50 C-48 50 -48 50 -46 51.5625 C-43.54601052 54.55329967 -42.86224673 57.26359752 -42 61 C-41.67 60.34 -41.34 59.68 -41 59 C-39.68 59 -38.36 59 -37 59 C-37 58.34 -37 57.68 -37 57 C-34.36 57.33 -31.72 57.66 -29 58 C-28.505 60.475 -28.505 60.475 -28 63 C-30.31 63 -32.62 63 -35 63 C-34.67 64.65 -34.34 66.3 -34 68 C-33.01 67.505 -33.01 67.505 -32 67 C-29.6670134 66.95977609 -27.33293334 66.95679753 -25 67 C-25.28241641 65.53984709 -25.57626614 64.08190207 -25.875 62.625 C-26.03742187 61.81289062 -26.19984375 61.00078125 -26.3671875 60.1640625 C-26.86658932 57.81326077 -26.86658932 57.81326077 -29 56 C-31.20250992 55.53993654 -31.20250992 55.53993654 -33.625 55.375 C-34.44226563 55.30023438 -35.25953125 55.22546875 -36.1015625 55.1484375 C-36.72804688 55.09945312 -37.35453125 55.05046875 -38 55 C-35.9375 52.5 -35.9375 52.5 -33 50 C-29.1875 49.6875 -29.1875 49.6875 -26 50 C-26.33 49.34 -26.66 48.68 -27 48 C-29.55491823 47.60786962 -29.55491823 47.60786962 -32.5 47.5 C-35.53125 47.34375 -35.53125 47.34375 -38 47 C-38.33 46.34 -38.66 45.68 -39 45 C-35.78548731 43.39274365 -32.56387464 43.94251815 -29 44 C-29.495 43.54625 -29.99 43.0925 -30.5 42.625 C-32 41 -32 41 -32 39 C-26.84535266 39.48324819 -23.18449681 42.18610761 -19 45 C-19 43.35 -19 41.7 -19 40 C-19.86625 40.0825 -20.7325 40.165 -21.625 40.25 C-25.79290588 39.94126623 -27.78527774 38.60239421 -31 36 C-31 35.34 -31 34.68 -31 34 C-30.01 33.505 -30.01 33.505 -29 33 C-29.5053125 32.64808594 -30.010625 32.29617187 -30.53125 31.93359375 C-32.56331266 30.3893874 -34.32768795 28.93217006 -36 27 C-36.4375 23.125 -36.4375 23.125 -36 20 C-25.06974729 20.21056529 -25.06974729 20.21056529 -21.8125 23.5625 C-21.214375 24.366875 -20.61625 25.17125 -20 26 C-20 24.02 -20 22.04 -20 20 C-16.76710126 21.74751283 -15.23023886 23.28012653 -14.10546875 26.796875 C-13.62619172 28.89851761 -13.18090934 31.00826316 -12.7734375 33.125 C-11.98079517 36.07138767 -10.98474645 37.7191864 -9 40 C-9.27540704 36.18186553 -9.27540704 36.18186553 -11 33 C-11.04092937 30.66702567 -11.04241723 28.33294775 -11 26 C-6.07692308 30.30769231 -6.07692308 30.30769231 -5.6875 33.8125 C-5.8421875 34.8953125 -5.8421875 34.8953125 -6 36 C-3.78990566 34.12977392 -3.78990566 34.12977392 -3.3125 31.3125 C-4.15503675 27.25300475 -5.16925008 26.81346582 -8.4375 24.4375 C-9.26121094 23.89996094 -10.08492187 23.36242187 -10.93359375 22.80859375 C-13.43192324 20.62196511 -13.694959 19.24452704 -14 16 C-13.34 16.33 -12.68 16.66 -12 17 C-11.67 14.36 -11.34 11.72 -11 9 C-10.34 9 -9.68 9 -9 9 C-8.03929566 11.88211302 -7.89418117 13.69850044 -7.9375 16.6875 C-7.94652344 17.49574219 -7.95554688 18.30398437 -7.96484375 19.13671875 C-7.97644531 19.75160156 -7.98804688 20.36648437 -8 21 C-6.35 21.33 -4.7 21.66 -3 22 C-2.66501699 19.66834966 -2.66501699 19.66834966 -3 17 C-3.66 16.401875 -4.32 15.80375 -5 15.1875 C-7.30939231 12.66160216 -7.27310201 12.03626087 -7.25 8.75 C-7.1675 7.5125 -7.085 6.275 -7 5 C-5 6 -3 7 -1 8 C-0.67 5.36 -0.34 2.72 0 0 Z " fill="#89D171" transform="translate(76,29)"/>
<path d="M0 0 C0 2.31 0 4.62 0 7 C1.65 6.67 3.3 6.34 5 6 C5.29352171 9.05262578 5.44212192 11.95778015 5 15 C2.5625 17.375 2.5625 17.375 0 19 C-0.33 19.99 -0.66 20.98 -1 22 C-0.01 21.34 0.98 20.68 2 20 C4.33199388 19.92094936 6.66832622 19.91201231 9 20 C7.9375 22.4375 7.9375 22.4375 6 25 C2.3125 25.8125 2.3125 25.8125 -1 26 C-1 26.66 -1 27.32 -1 28 C2.3 28 5.6 28 9 28 C8.67 28.66 8.34 29.32 8 30 C8.99 30.33 9.98 30.66 11 31 C11 31.66 11 32.32 11 33 C12.65 33 14.3 33 16 33 C16 30.03 16 27.06 16 24 C14.35 24.66 12.7 25.32 11 26 C10.63734957 21.76907828 11.39749195 19.37362154 14 16 C14.99 16 15.98 16 17 16 C17 17.65 17 19.3 17 21 C18.65 20.67 20.3 20.34 22 20 C22.08121924 21.60332791 22.13929134 23.20784026 22.1875 24.8125 C22.23970703 26.15248047 22.23970703 26.15248047 22.29296875 27.51953125 C22 30 22 30 20.61328125 31.82421875 C19 33 19 33 17 33 C16.71125 33.598125 16.4225 34.19625 16.125 34.8125 C15 37 15 37 13 40 C14.65 40.66 16.3 41.32 18 42 C17.505 42.99 17.505 42.99 17 44 C14.71484375 44.4140625 14.71484375 44.4140625 11.9375 44.625 C11.01839844 44.69976562 10.09929687 44.77453125 9.15234375 44.8515625 C8.44207031 44.90054688 7.73179688 44.94953125 7 45 C10.12180401 45.96661363 12.52083795 45.98988909 15.75 45.5625 C16.94882813 45.40974609 16.94882813 45.40974609 18.171875 45.25390625 C18.77515625 45.17011719 19.3784375 45.08632812 20 45 C19.67 46.32 19.34 47.64 19 49 C18.01 49 17.02 49 16 49 C16.33 49.99 16.66 50.98 17 52 C12.545 52.495 12.545 52.495 8 53 C6.71019877 56.69743019 5.77285639 60.13571805 5 64 C9.29 64.33 13.58 64.66 18 65 C18.66 64.01 19.32 63.02 20 62 C18.35 62.66 16.7 63.32 15 64 C15.25 61.625 15.25 61.625 16 59 C18.0625 57.6875 18.0625 57.6875 20 57 C20.33 57.99 20.66 58.98 21 60 C21.18175781 59.38511719 21.36351562 58.77023438 21.55078125 58.13671875 C21.92783203 56.92435547 21.92783203 56.92435547 22.3125 55.6875 C22.55613281 54.88699219 22.79976562 54.08648437 23.05078125 53.26171875 C24.05354349 50.87242107 24.98059282 49.60410493 27 48 C27.66 48 28.32 48 29 48 C28.67 50.97 28.34 53.94 28 57 C29.98 57 31.96 57 34 57 C32.98823563 60.40320742 32.35156418 61.75725331 29.375 63.8125 C28.59125 64.204375 27.8075 64.59625 27 65 C28.29233853 65 29.58388123 64.9311356 30.875 64.875 C34 65 34 65 37 67 C37 67.66 37 68.32 37 69 C31.31150252 70.49697302 26.58190932 69.3348044 21 68 C21 68.66 21 69.32 21 70 C24.56071312 71.04882391 28.05527897 71.30386953 31.75 71.5625 C33.50570312 71.68818359 33.50570312 71.68818359 35.296875 71.81640625 C36.18890625 71.87699219 37.0809375 71.93757813 38 72 C37.34 73.32 36.68 74.64 36 76 C33.69 75.67 31.38 75.34 29 75 C29 75.66 29 76.32 29 77 C30.04800781 77.12955078 30.04800781 77.12955078 31.1171875 77.26171875 C33.83968863 77.68204824 36.38196209 78.13743453 39 79 C40.625 81.625 40.625 81.625 41 84 C38.3125 84.3125 38.3125 84.3125 35 84 C33.28891311 82.37897032 31.62746694 80.70496537 30 79 C25.83833835 76.34163246 22.05407318 74.36824085 17 75 C17.763125 75.4125 18.52625 75.825 19.3125 76.25 C21.95787162 77.97256756 23.36476551 79.33198584 25 82 C25 82.66 25 83.32 25 84 C19.73840541 84.64165788 17.31407151 83.20577001 13.3203125 80.09375 C12.88460937 79.7328125 12.44890625 79.371875 12 79 C11.855625 79.928125 11.71125 80.85625 11.5625 81.8125 C11 85 11 85 10 88 C8.68 87.67 7.36 87.34 6 87 C5.95101562 86.28972656 5.90203125 85.57945313 5.8515625 84.84765625 C5.77679688 83.92855469 5.70203125 83.00945312 5.625 82.0625 C5.55539063 81.14597656 5.48578125 80.22945313 5.4140625 79.28515625 C5.27742188 78.53105469 5.14078125 77.77695313 5 77 C2.18433745 75.59216873 -0.2363707 75.7923186 -3.375 75.75 C-4.51710938 75.72421875 -5.65921875 75.6984375 -6.8359375 75.671875 C-10.29843647 76.03094897 -11.3996709 76.82351309 -14 79 C-14.99 79 -15.98 79 -17 79 C-17 76.36 -17 73.72 -17 71 C-18.65 71 -20.3 71 -22 71 C-22 70.67 -22 70.34 -22 70 C-20.35 70 -18.7 70 -17 70 C-17 69.01 -17 68.02 -17 67 C-18.98 67 -20.96 67 -23 67 C-23 65.35 -23 63.7 -23 62 C-23.99 61.67 -24.98 61.34 -26 61 C-24.68 58.36 -23.36 55.72 -22 53 C-21.34 53 -20.68 53 -20 53 C-18.55217863 47.86788524 -17.73690903 41.93434234 -19.89453125 36.921875 C-20.25933594 36.28765625 -20.62414062 35.6534375 -21 35 C-23.622829 30.40539884 -23.60409954 26.17799604 -23 21 C-22 17.375 -22 17.375 -21 15 C-20.34 15 -19.68 15 -19 15 C-18.67 16.65 -18.34 18.3 -18 20 C-16.35 19.34 -14.7 18.68 -13 18 C-13.33 16.02 -13.66 14.04 -14 12 C-15.65 12.66 -17.3 13.32 -19 14 C-19.36521739 6.69565217 -19.36521739 6.69565217 -17.6875 3.5 C-16 2 -16 2 -13 2 C-12.67 3.32 -12.34 4.64 -12 6 C-11.01 6 -10.02 6 -9 6 C-7.64560332 8.70879335 -7.93498549 11.00933268 -8 14 C-7.34 14 -6.68 14 -6 14 C-7.5885342 18.28904235 -10.43127368 20.32345526 -14 23 C-14.66 23 -15.32 23 -16 23 C-16 26.96 -16 30.92 -16 35 C-15.01 35.33 -14.02 35.66 -13 36 C-13 36.66 -13 37.32 -13 38 C-12.34 38 -11.68 38 -11 38 C-10.71125 37.21625 -10.4225 36.4325 -10.125 35.625 C-9 33 -9 33 -7 31 C-6.72562243 28.73088392 -6.72562243 28.73088392 -6.6875 26.1875 C-6.30557779 21.06092882 -4.72423968 19.53325303 -1 16 C-0.58168596 12.28999282 -0.58168596 12.28999282 -1 9 C-2.65 9.66 -4.3 10.32 -6 11 C-6.48951049 4.63636364 -6.48951049 4.63636364 -4.125 1.5625 C-2 0 -2 0 0 0 Z " fill="#99DA75" transform="translate(108,32)"/>
<path d="M0 0 C1.875 0.3125 1.875 0.3125 4 1 C4.66 1.99 5.32 2.98 6 4 C6.66 4 7.32 4 8 4 C8 2.68 8 1.36 8 0 C8.66 0 9.32 0 10 0 C11.61229477 3.22458954 11.01501302 6.62471601 10.9375 10.17578125 C10.91431042 12.99641113 10.91431042 12.99641113 11.55859375 15.6875 C12 18 12 18 11.0625 20.6875 C9.46240841 25.67602083 8.7574007 31.136619 10.8984375 36.0703125 C11.63169156 37.3548072 12.36606369 38.63866431 13.1015625 39.921875 C14.76401353 43.76719651 14.5988588 47.90547707 14 52 C13.03956359 54.28002762 12.28544836 55.72644532 10.5 57.4375 C8.60096688 59.4156595 7.90100969 61.43558782 7 64 C7.99 64.99 7.99 64.99 9 66 C8.01 66 7.02 66 6 66 C5.505 67.485 5.505 67.485 5 69 C5 68.01 5 67.02 5 66 C4.01 66 3.02 66 2 66 C2 66.99 2 67.98 2 69 C-0.24834496 69.13526139 -2.49902514 69.23210804 -4.75 69.3125 C-6.00296875 69.37050781 -7.2559375 69.42851563 -8.546875 69.48828125 C-12 69 -12 69 -14.3203125 66.94921875 C-16.24641686 63.56733783 -17.26852852 60.26102692 -18.125 56.5 C-19.15462321 52.20281222 -20.23273336 48.06627722 -22 44 C-21.01 44.33 -20.02 44.66 -19 45 C-19 43.35 -19 41.7 -19 40 C-19.86625 40.0825 -20.7325 40.165 -21.625 40.25 C-25.79290588 39.94126623 -27.78527774 38.60239421 -31 36 C-31 35.34 -31 34.68 -31 34 C-30.01 33.505 -30.01 33.505 -29 33 C-29.5053125 32.64808594 -30.010625 32.29617187 -30.53125 31.93359375 C-32.56331266 30.3893874 -34.32768795 28.93217006 -36 27 C-36.4375 23.125 -36.4375 23.125 -36 20 C-25.06974729 20.21056529 -25.06974729 20.21056529 -21.8125 23.5625 C-20.9153125 24.7690625 -20.9153125 24.7690625 -20 26 C-20 24.02 -20 22.04 -20 20 C-16.76710126 21.74751283 -15.23023886 23.28012653 -14.10546875 26.796875 C-13.62619172 28.89851761 -13.18090934 31.00826316 -12.7734375 33.125 C-11.98079517 36.07138767 -10.98474645 37.7191864 -9 40 C-9.27540704 36.18186553 -9.27540704 36.18186553 -11 33 C-11.04092937 30.66702567 -11.04241723 28.33294775 -11 26 C-6.07692308 30.30769231 -6.07692308 30.30769231 -5.6875 33.8125 C-5.790625 34.534375 -5.89375 35.25625 -6 36 C-3.78990566 34.12977392 -3.78990566 34.12977392 -3.3125 31.3125 C-4.15503675 27.25300475 -5.16925008 26.81346582 -8.4375 24.4375 C-9.26121094 23.89996094 -10.08492187 23.36242187 -10.93359375 22.80859375 C-13.43192324 20.62196511 -13.694959 19.24452704 -14 16 C-13.34 16.33 -12.68 16.66 -12 17 C-11.67 14.36 -11.34 11.72 -11 9 C-10.34 9 -9.68 9 -9 9 C-8.03929566 11.88211302 -7.89418117 13.69850044 -7.9375 16.6875 C-7.94652344 17.49574219 -7.95554687 18.30398437 -7.96484375 19.13671875 C-7.97644531 19.75160156 -7.98804687 20.36648437 -8 21 C-6.35 21.33 -4.7 21.66 -3 22 C-2.66501699 19.66834966 -2.66501699 19.66834966 -3 17 C-3.66 16.401875 -4.32 15.80375 -5 15.1875 C-7.30939231 12.66160216 -7.27310201 12.03626087 -7.25 8.75 C-7.1675 7.5125 -7.085 6.275 -7 5 C-5 6 -3 7 -1 8 C-0.67 5.36 -0.34 2.72 0 0 Z " fill="#8AD271" transform="translate(76,29)"/>
<path d="M0 0 C0.99 0 1.98 0 3 0 C3 1.65 3 3.3 3 5 C4.65 4.67 6.3 4.34 8 4 C8.08121924 5.60332791 8.13929134 7.20784026 8.1875 8.8125 C8.23970703 10.15248047 8.23970703 10.15248047 8.29296875 11.51953125 C8 14 8 14 6.61328125 15.82421875 C5 17 5 17 3 17 C2.566875 17.8971875 2.566875 17.8971875 2.125 18.8125 C1 21 1 21 -1 24 C-0.34 24.33 0.32 24.66 1 25 C-1.31 25.33 -3.62 25.66 -6 26 C-4.84826645 23.53199953 -3.95216435 21.95216435 -2 20 C-7.05813459 21.29394141 -9.68271549 22.96432267 -13 27 C-14.16894728 29.95236395 -14.87063879 32.96785727 -15.5625 36.0625 C-17.82984189 46.03720195 -17.82984189 46.03720195 -22 49 C-25.25 49.25 -25.25 49.25 -28 49 C-27.3715847 42.46448087 -27.3715847 42.46448087 -25.5 40.125 C-23.78230162 37.69159397 -23.76205836 36.54536627 -23.5625 33.625 C-23.20009534 29.11343173 -21.79566199 26.61791552 -19 23 C-18.484375 22.05125 -17.96875 21.1025 -17.4375 20.125 C-16.963125 19.42375 -16.48875 18.7225 -16 18 C-15.01 18 -14.02 18 -13 18 C-13 18.66 -13 19.32 -13 20 C-11.700625 19.5359375 -11.700625 19.5359375 -10.375 19.0625 C-6.21359158 17.75242698 -2.36367128 17 2 17 C2 14.03 2 11.06 2 8 C0.35 8.66 -1.3 9.32 -3 10 C-3.36265043 5.76907828 -2.60250805 3.37362154 0 0 Z " fill="#577946" transform="translate(122,48)"/>
<path d="M0 0 C0.66 0 1.32 0 2 0 C2 1.98 2 3.96 2 6 C2.66 6 3.32 6 4 6 C4 7.98 4 9.96 4 12 C3.67 10.68 3.34 9.36 3 8 C-2.34673609 11.32364676 -3.47549821 15.19945661 -5 21 C-5.33 19.68 -5.66 18.36 -6 17 C-9.11205929 18.98512949 -9.11205929 18.98512949 -10.75 22.1875 C-10.8325 22.785625 -10.915 23.38375 -11 24 C-9.35 23.34 -7.7 22.68 -6 22 C-6.66 23.32 -7.32 24.64 -8 26 C-12.81938524 26.23509196 -16.46298506 25.45184478 -21 24 C-20.88601335 22.37419034 -20.75844341 20.74932843 -20.625 19.125 C-20.55539063 18.22007813 -20.48578125 17.31515625 -20.4140625 16.3828125 C-20 14 -20 14 -18 12 C-15.34462628 11.43479997 -12.70855287 11.26211802 -10 11 C-10 10.34 -10 9.68 -10 9 C-9.01 8.67 -8.02 8.34 -7 8 C-6.67 7.01 -6.34 6.02 -6 5 C-6.639375 5.33 -7.27875 5.66 -7.9375 6 C-12.01236841 7.33056928 -15.75190425 7.16659199 -20 7 C-19.67 6.01 -19.34 5.02 -19 4 C-15.7 3.67 -12.4 3.34 -9 3 C-9.33 2.34 -9.66 1.68 -10 1 C-8.68 1 -7.36 1 -6 1 C-6 1.66 -6 2.32 -6 3 C-3.13275314 2.42655063 -2.1385485 2.1385485 0 0 Z " fill="#2F3D29" transform="translate(134,72)"/>
<path d="M0 0 C1.875 0.3125 1.875 0.3125 4 1 C4.66 1.99 5.32 2.98 6 4 C6.66 4 7.32 4 8 4 C8 2.68 8 1.36 8 0 C8.66 0 9.32 0 10 0 C11.34832104 2.69664208 11.16910682 4.86587521 11.1875 7.875 C11.20167969 8.92429687 11.21585938 9.97359375 11.23046875 11.0546875 C11.00504937 13.93547071 10.48964317 15.56240208 9 18 C8.01 17.01 7.02 16.02 6 15 C6.144375 15.58007812 6.28875 16.16015625 6.4375 16.7578125 C7.50889428 21.26659675 8.23945936 25.33054247 8 30 C7.34 29.67 6.68 29.34 6 29 C6 28.34 6 27.68 6 27 C5.34 27 4.68 27 4 27 C3.67 25.68 3.34 24.36 3 23 C2.34 23 1.68 23 1 23 C0.67 21.35 0.34 19.7 0 18 C-0.33 19.98 -0.66 21.96 -1 24 C-2.32 23.67 -3.64 23.34 -5 23 C-4.34 22.67 -3.68 22.34 -3 22 C-2.66501699 19.66834966 -2.66501699 19.66834966 -3 17 C-3.66 16.401875 -4.32 15.80375 -5 15.1875 C-7.30939231 12.66160216 -7.27310201 12.03626087 -7.25 8.75 C-7.1675 7.5125 -7.085 6.275 -7 5 C-5 6 -3 7 -1 8 C-0.67 5.36 -0.34 2.72 0 0 Z " fill="#32472E" transform="translate(76,29)"/>
<path d="M0 0 C3.24299151 2.38957269 5.50902342 4.2047869 7 8 C7.66 7.34 8.32 6.68 9 6 C9 9.3 9 12.6 9 16 C8.34 16 7.68 16 7 16 C9.50447623 18.57603269 11.84672342 20.89440947 14.8125 22.9375 C17 25 17 25 17.4375 28.0625 C17 31 17 31 15 34 C14.34 33.67 13.68 33.34 13 33 C12.66073053 30.66752239 12.32759934 28.33414529 12 26 C11.34 25.34 10.68 24.68 10 24 C9.76571687 28.7897321 9.76571687 28.7897321 12 33 C12.125 35.6875 12.125 35.6875 12 38 C6.79094775 34.05801451 6.01353753 30.06108344 4.87109375 23.7421875 C3.84572664 20.51435024 2.88586688 19.67304478 0 18 C-0.9075 17.608125 -1.815 17.21625 -2.75 16.8125 C-5 15 -5 15 -5.31640625 13.03125 C-5.31286192 11.01807185 -5.1644633 9.00645226 -5 7 C-2.03 7.495 -2.03 7.495 1 8 C0.67 7.34 0.34 6.68 0 6 C-0.039992 4.00039988 -0.04346799 1.99952758 0 0 Z " fill="#1B2620" transform="translate(56,32)"/>
<path d="M0 0 C0.86625 0.495 0.86625 0.495 1.75 1 C4.19883862 2.27075898 4.19883862 2.27075898 8 2 C8 1.34 8 0.68 8 0 C8.99 0.33 9.98 0.66 11 1 C10.67 1.33 10.34 1.66 10 2 C13.63 2.33 17.26 2.66 21 3 C21.33 3.99 21.66 4.98 22 6 C20.9275 6.103125 19.855 6.20625 18.75 6.3125 C15.14179128 6.97400493 13.63604977 7.57483421 11 10 C12.8871875 10.1546875 12.8871875 10.1546875 14.8125 10.3125 C17.32435783 10.51838999 18.66716223 10.75793617 20.71875 12.25 C23.06691962 15.45725607 22.71899193 19.12208862 23 23 C20.03 23.33 17.06 23.66 14 24 C13.34 22.02 12.68 20.04 12 18 C17.75 17.875 17.75 17.875 20 19 C19.505 16.525 19.505 16.525 19 14 C16.36 13.67 13.72 13.34 11 13 C11 13.66 11 14.32 11 15 C9.68 15 8.36 15 7 15 C6.67 16.32 6.34 17.64 6 19 C5.81824219 18.38511719 5.63648438 17.77023438 5.44921875 17.13671875 C5.07216797 15.92435547 5.07216797 15.92435547 4.6875 14.6875 C4.32205078 13.48673828 4.32205078 13.48673828 3.94921875 12.26171875 C3.1479625 9.94319063 3.1479625 9.94319063 1.40625 8.4375 C0 7 0 7 -0.1875 3.3125 C-0.125625 2.219375 -0.06375 1.12625 0 0 Z " fill="#365133" transform="translate(28,73)"/>
<path d="M0 0 C0.33 0.99 0.66 1.98 1 3 C1.99 3 2.98 3 4 3 C4.33 2.01 4.66 1.02 5 0 C5 0.99 5 1.98 5 3 C7.31 3 9.62 3 12 3 C12 6.63 12 10.26 12 14 C10.02 14 8.04 14 6 14 C6 14.99 6 15.98 6 17 C4.02 17 2.04 17 0 17 C0 15.68 0 14.36 0 13 C-1.98 13 -3.96 13 -6 13 C-6 9.7 -6 6.4 -6 3 C-4.02 3 -2.04 3 0 3 C0 2.01 0 1.02 0 0 Z " fill="#242D20" transform="translate(79,96)"/>
<path d="M0 0 C1.32 0.66 2.64 1.32 4 2 C4 2.66 4 3.32 4 4 C5.423125 4.1546875 5.423125 4.1546875 6.875 4.3125 C10 5 10 5 12 8 C12.265625 10.33984375 12.265625 10.33984375 12.25 12.9375 C12.25515625 13.79214844 12.2603125 14.64679688 12.265625 15.52734375 C11.98269164 18.1611205 11.41289078 19.77197993 10 22 C7.875 23.25 7.875 23.25 6 24 C5.67 21.36 5.34 18.72 5 16 C4.01 16 3.02 16 2 16 C1.34 17.32 0.68 18.64 0 20 C-0.33 18.68 -0.66 17.36 -1 16 C-0.01 15.67 0.98 15.34 2 15 C2 12.36 2 9.72 2 7 C1.34 7 0.68 7 0 7 C-1.88391785 10.26545761 -2.49287967 13.28111761 -3 17 C-3.33 17 -3.66 17 -4 17 C-4.36499063 10.06517795 -3.09392307 6.18784615 0 0 Z " fill="#344A31" transform="translate(78,63)"/>
<path d="M0 0 C4.35304454 3.18515454 7.10038951 6.36880955 8.09765625 11.77734375 C8.34483917 14.48243011 8.50848812 17.15967535 8.5625 19.875 C7.9025 19.875 7.2425 19.875 6.5625 19.875 C6.74379815 23.31293339 6.74379815 23.31293339 7.5625 26.875 C9.49847032 28.38794288 9.49847032 28.38794288 11.5625 28.875 C11.8925 27.555 12.2225 26.235 12.5625 24.875 C15.18636487 27.93617568 15.5625 28.60673127 15.5625 32.875 C9.60546875 32.58203125 9.60546875 32.58203125 7.5625 31.875 C4.79209054 28.30468358 3.89511212 24.75337702 3 20.375 C2.16505724 16.33708474 1.20820077 12.66081809 -0.4375 8.875 C0.5525 9.205 1.5425 9.535 2.5625 9.875 C2.5625 8.225 2.5625 6.575 2.5625 4.875 C1.69625 4.9575 0.83 5.04 -0.0625 5.125 C-4.23040588 4.81626623 -6.22277774 3.47739421 -9.4375 0.875 C-9.4375 0.215 -9.4375 -0.445 -9.4375 -1.125 C-5.43236087 -2.46004638 -3.75718194 -1.73408397 0 0 Z " fill="#507B47" transform="translate(54.4375,64.125)"/>
<path d="M0 0 C0 2.31 0 4.62 0 7 C1.65 6.67 3.3 6.34 5 6 C5.29352171 9.05262578 5.44212192 11.95778015 5 15 C2.5625 17.375 2.5625 17.375 0 19 C-0.33 19.99 -0.66 20.98 -1 22 C-0.01 21.34 0.98 20.68 2 20 C4.33199388 19.92094936 6.66832622 19.91201231 9 20 C7.9375 22.4375 7.9375 22.4375 6 25 C2.3125 25.8125 2.3125 25.8125 -1 26 C-1 26.66 -1 27.32 -1 28 C2.3 28 5.6 28 9 28 C7 30 7 30 4.6171875 30.1953125 C3.71226563 30.17210938 2.80734375 30.14890625 1.875 30.125 C0.50988281 30.09792969 0.50988281 30.09792969 -0.8828125 30.0703125 C-1.58148438 30.04710938 -2.28015625 30.02390625 -3 30 C-6.17857143 23.64285714 -6.17857143 23.64285714 -5.375 20.75 C-4 19 -4 19 -2.375 17.6875 C-0.18687302 15.00207143 -0.8116381 12.32772689 -1 9 C-2.65 9.66 -4.3 10.32 -6 11 C-6.48951049 4.63636364 -6.48951049 4.63636364 -4.125 1.5625 C-2 0 -2 0 0 0 Z " fill="#4E6D41" transform="translate(108,32)"/>
<path d="M0 0 C2 0 2 0 4 1.4375 C6.77974608 4.99904966 7.28673172 8.607769 8 13 C6.68 12.34 5.36 11.68 4 11 C4.99 14.3 5.98 17.6 7 21 C1.83955235 22.512545 -1.65998179 23.33500455 -7 22 C-7 21.01 -7 20.02 -7 19 C-5.02 18.67 -3.04 18.34 -1 18 C-1.639375 17.071875 -2.27875 16.14375 -2.9375 15.1875 C-5 12 -5 12 -6 9 C-4.02 9 -2.04 9 0 9 C0 6.03 0 3.06 0 0 Z " fill="#3F643D" transform="translate(26,79)"/>
<path d="M0 0 C2.31 0 4.62 0 7 0 C7 0.66 7 1.32 7 2 C7.78375 1.649375 8.5675 1.29875 9.375 0.9375 C14.13169713 -0.29268029 18.18890305 0.29640084 23 1 C23 1.33 23 1.66 23 2 C20.69 2.33 18.38 2.66 16 3 C15.97421875 3.61488281 15.9484375 4.22976562 15.921875 4.86328125 C15.45283019 11.54716981 15.45283019 11.54716981 12.9375 14.0625 C12.298125 14.371875 11.65875 14.68125 11 15 C9.68 12.36 8.36 9.72 7 7 C5.700625 7.99 5.700625 7.99 4.375 9 C0.78576537 11.12695385 -0.92694798 11.38790972 -5 11 C-4.21448343 9.68381002 -3.4213763 8.37214772 -2.625 7.0625 C-2.18414062 6.33160156 -1.74328125 5.60070312 -1.2890625 4.84765625 C0 3 0 3 2 2 C1.34 1.34 0.68 0.68 0 0 Z " fill="#233426" transform="translate(35,105)"/>
<path d="M0 0 C0.66 0.12375 1.32 0.2475 2 0.375 C6.45869812 1.76834316 9.55901205 4.01733545 12 8 C12 8.66 12 9.32 12 10 C6.73840541 10.64165788 4.31407151 9.20577001 0.3203125 6.09375 C-0.11539063 5.7328125 -0.55109375 5.371875 -1 5 C-1.144375 5.928125 -1.28875 6.85625 -1.4375 7.8125 C-2 11 -2 11 -3 14 C-4.32 13.67 -5.64 13.34 -7 13 C-7.33 9.7 -7.66 6.4 -8 3 C-12.455 2.01 -12.455 2.01 -17 1 C-17 0.67 -17 0.34 -17 0 C-11.09010575 -1.12569414 -5.87380992 -1.39116551 0 0 Z " fill="#33462F" transform="translate(121,106)"/>
<path d="M0 0 C10.93025271 0.21056529 10.93025271 0.21056529 14.1875 3.5625 C15.0846875 4.7690625 15.0846875 4.7690625 16 6 C16.66 5.34 17.32 4.68 18 4 C18 6.64 18 9.28 18 12 C15.9367016 11.93958131 13.87422586 11.85068362 11.8125 11.75 C10.66394531 11.70359375 9.51539063 11.6571875 8.33203125 11.609375 C4.45258967 10.89988744 2.71242494 9.83387681 0 7 C-0.3125 3.25 -0.3125 3.25 0 0 Z " fill="#263929" transform="translate(40,49)"/>
<path d="M0 0 C0.99 0 1.98 0 3 0 C3 1.65 3 3.3 3 5 C4.65 4.67 6.3 4.34 8 4 C8.08121924 5.60332791 8.13929134 7.20784026 8.1875 8.8125 C8.22230469 9.70582031 8.25710937 10.59914063 8.29296875 11.51953125 C8 14 8 14 6.61328125 15.82421875 C5 17 5 17 3 17 C2.566875 17.8971875 2.566875 17.8971875 2.125 18.8125 C1 21 1 21 -1 24 C-0.34 24.33 0.32 24.66 1 25 C-1.31 25.33 -3.62 25.66 -6 26 C-4.84826645 23.53199953 -3.95216435 21.95216435 -2 20 C-3.32 20 -4.64 20 -6 20 C-5.505 18.515 -5.505 18.515 -5 17 C-2.69 17 -0.38 17 2 17 C2 14.03 2 11.06 2 8 C0.35 8.66 -1.3 9.32 -3 10 C-3.36265043 5.76907828 -2.60250805 3.37362154 0 0 Z " fill="#394C31" transform="translate(122,48)"/>
<path d="M0 0 C0.12375 0.639375 0.2475 1.27875 0.375 1.9375 C0.58125 2.618125 0.7875 3.29875 1 4 C1.66 4.33 2.32 4.66 3 5 C3.43112315 9.91480393 3.49648044 12.88224653 0.625 17 C-0.24125 17.99 -1.1075 18.98 -2 20 C-4 20 -4 20 -6.125 17.9375 C-8.43502339 14.31846336 -8.39094921 12.22225144 -8 8 C-6.88333826 4.65001479 -6.25305075 4.20659778 -3.4375 2.3125 C-2.79683594 1.87550781 -2.15617187 1.43851563 -1.49609375 0.98828125 C-1.00238281 0.66214844 -0.50867188 0.33601563 0 0 Z " fill="#2B3B29" transform="translate(99,50)"/>
<path d="M0 0 C0.33 1.32 0.66 2.64 1 4 C1.99 4 2.98 4 4 4 C5.35439668 6.70879335 5.06501451 9.00933268 5 12 C5.66 12 6.32 12 7 12 C5.72617782 14.54764436 4.43334567 15.5399926 2 17 C-0.25 16.6875 -0.25 16.6875 -2 16 C-1.34 16 -0.68 16 0 16 C-0.33 14.02 -0.66 12.04 -1 10 C-2.65 10.66 -4.3 11.32 -6 12 C-6.36521739 4.69565217 -6.36521739 4.69565217 -4.6875 1.5 C-3 0 -3 0 0 0 Z " fill="#425C38" transform="translate(95,34)"/>
<path d="M0 0 C-0.66 2.31 -1.32 4.62 -2 7 C-0.35 6.34 1.3 5.68 3 5 C3 7.97 3 10.94 3 14 C1.02 14.33 -0.96 14.66 -3 15 C-2.67 14.01 -2.34 13.02 -2 12 C-3.32 11.67 -4.64 11.34 -6 11 C-5.67 10.67 -5.34 10.34 -5 10 C-7.97 9.67 -10.94 9.34 -14 9 C-14 8.34 -14 7.68 -14 7 C-13.43410156 6.80664062 -12.86820312 6.61328125 -12.28515625 6.4140625 C-11.55167969 6.15367188 -10.81820312 5.89328125 -10.0625 5.625 C-8.96615234 5.24214844 -8.96615234 5.24214844 -7.84765625 4.8515625 C-5.81317884 4.14728587 -5.81317884 4.14728587 -5 2 C-5.99 1.34 -6.98 0.68 -8 0 C-4.71023192 -1.09658936 -3.28696233 -0.79953138 0 0 Z " fill="#1C251F" transform="translate(121,51)"/>
<path d="M0 0 C1.125 1.625 1.125 1.625 2 4 C1.33333333 6 0.66666667 8 0 10 C-0.36527249 15.05699474 -0.31301533 20.07619251 1 25 C-1.86130829 24.68207686 -3.82885783 24.10176021 -6.3125 22.625 C-9.03032025 18.39727962 -8.30349766 13.88968458 -8 9 C-7.34 10.32 -6.68 11.64 -6 13 C-5.34 13 -4.68 13 -4 13 C-3.67 13.66 -3.34 14.32 -3 15 C-3.33 10.38 -3.66 5.76 -4 1 C-3.01 1.33 -2.02 1.66 -1 2 C-0.67 1.34 -0.34 0.68 0 0 Z " fill="#618D4F" transform="translate(86,43)"/>
<path d="M0 0 C0.91058531 3.07322544 1.08886184 5.80097361 1 9 C1.99 9 2.98 9 4 9 C5.52560954 14.86772899 5.52560954 14.86772899 4.1640625 17.80078125 C2.9375 19.4375 2.9375 19.4375 0 22 C-3.3125 22.375 -3.3125 22.375 -6 22 C-5.3715847 15.46448087 -5.3715847 15.46448087 -3.5 13.125 C-1.43505898 10.1996669 -1.4561614 7.5383134 -1.2109375 4.0234375 C-1 2 -1 2 0 0 Z " fill="#455E39" transform="translate(100,75)"/>
<path d="M0 0 C2.27024968 -0.08097324 4.54132075 -0.13917704 6.8125 -0.1875 C8.07707031 -0.22230469 9.34164062 -0.25710937 10.64453125 -0.29296875 C14 0 14 0 15.90625 1.21875 C17.9568599 4.55831469 17.72121946 8.15282859 18 12 C13.545 12.495 13.545 12.495 9 13 C8.34 11.02 7.68 9.04 7 7 C12.75 6.875 12.75 6.875 15 8 C14.67 6.35 14.34 4.7 14 3 C11.36 2.67 8.72 2.34 6 2 C6 2.66 6 3.32 6 4 C4.68 4 3.36 4 2 4 C1.67 5.32 1.34 6.64 1 8 C-0.35439668 5.29120665 -0.06501451 2.99066732 0 0 Z " fill="#1D231B" transform="translate(33,84)"/>
<path d="M0 0 C1.32 0 2.64 0 4 0 C4 0.66 4 1.32 4 2 C6.38564077 1.42415568 8.66682784 0.77772405 11 0 C11.38478078 3.36683181 11.1432716 4.77182671 9.3125 7.6875 C6.11895039 10.88104961 3.68282019 11.92520799 -0.8125 12.125 C-1.534375 12.08375 -2.25625 12.0425 -3 12 C-2.01 11.34 -1.02 10.68 0 10 C0 9.34 0 8.68 0 8 C0.99 7.67 1.98 7.34 3 7 C3.33 6.01 3.66 5.02 4 4 C3.360625 4.33 2.72125 4.66 2.0625 5 C-2.01236841 6.33056928 -5.75190425 6.16659199 -10 6 C-9.67 5.01 -9.34 4.02 -9 3 C-5.7 2.67 -2.4 2.34 1 2 C0.67 1.34 0.34 0.68 0 0 Z " fill="#4D693F" transform="translate(124,73)"/>
<path d="M0 0 C0.66 0 1.32 0 2 0 C2 2.64 2 5.28 2 8 C1.01 8.495 1.01 8.495 0 9 C0 9.99 0 10.98 0 12 C0.66 11.01 1.32 10.02 2 9 C2.99 9 3.98 9 5 9 C5.38909985 10.45463481 5.76088029 11.91391207 6.125 13.375 C6.33382812 14.18710938 6.54265625 14.99921875 6.7578125 15.8359375 C6.83773437 16.55007812 6.91765625 17.26421875 7 18 C6.34 18.66 5.68 19.32 5 20 C4.01 20 3.02 20 2 20 C0 17 0 17 0 14 C-0.99 13.67 -1.98 13.34 -3 13 C-4.32757546 9.01727361 -3.3296542 6.9189808 -2 3 C-1.34 2.01 -0.68 1.02 0 0 Z " fill="#43623C" transform="translate(78,70)"/>
<path d="M0 0 C0.66 0 1.32 0 2 0 C2.054348 2.0622048 2.09294961 4.12482816 2.125 6.1875 C2.14820312 7.33605469 2.17140625 8.48460937 2.1953125 9.66796875 C2.00267423 12.95437765 1.34116736 15.03317524 0 18 C-0.37593066 19.9924325 -0.71979545 21.9918674 -1 24 C-2.32 23.67 -3.64 23.34 -5 23 C-4.34 22.67 -3.68 22.34 -3 22 C-2.66501699 19.66834966 -2.66501699 19.66834966 -3 17 C-3.66 16.401875 -4.32 15.80375 -5 15.1875 C-7.30939231 12.66160216 -7.27310201 12.03626087 -7.25 8.75 C-7.1675 7.5125 -7.085 6.275 -7 5 C-5 6 -3 7 -1 8 C-0.67 5.36 -0.34 2.72 0 0 Z " fill="#2B3B29" transform="translate(76,29)"/>
<path d="M0 0 C-0.33 2.97 -0.66 5.94 -1 9 C0.98 9 2.96 9 5 9 C4.02640613 12.27481575 3.30933359 13.76205109 0.5625 15.875 C-2 17 -2 17 -5 16 C-4.67 14.02 -4.34 12.04 -4 10 C-4.99 10.33 -5.98 10.66 -7 11 C-6.51098901 4.64285714 -6.51098901 4.64285714 -4.0625 1.5625 C-2 0 -2 0 0 0 Z " fill="#61834C" transform="translate(137,80)"/>
<path d="M0 0 C2.64 0.33 5.28 0.66 8 1 C8.33 2.65 8.66 4.3 9 6 C6.69 6 4.38 6 2 6 C2.66 7.98 3.32 9.96 4 12 C2.02 12 0.04 12 -2 12 C-5.07692308 6.58461538 -5.07692308 6.58461538 -4.6875 3.625 C-4.460625 3.08875 -4.23375 2.5525 -4 2 C-2.68 2 -1.36 2 0 2 C0 1.34 0 0.68 0 0 Z " fill="#3A5836" transform="translate(39,86)"/>
<path d="M0 0 C3.96 0 7.92 0 12 0 C11.34 1.32 10.68 2.64 10 4 C7.69 3.67 5.38 3.34 3 3 C3 3.66 3 4.32 3 5 C3.69867188 5.08636719 4.39734375 5.17273438 5.1171875 5.26171875 C7.83968863 5.68204824 10.38196209 6.13743453 13 7 C14.625 9.625 14.625 9.625 15 12 C12.3125 12.3125 12.3125 12.3125 9 12 C6.5 9.6875 6.5 9.6875 4 7 C0.83354526 5.20679176 0.83354526 5.20679176 -2 4 C-1.34 3.34 -0.68 2.68 0 2 C0 1.34 0 0.68 0 0 Z " fill="#749A56" transform="translate(134,104)"/>
<path d="M0 0 C1.32 0.66 2.64 1.32 4 2 C4 2.66 4 3.32 4 4 C4.969375 4.144375 5.93875 4.28875 6.9375 4.4375 C10 5 10 5 11 6 C11.04063832 7.66617115 11.042721 9.33388095 11 11 C9 11 9 11 6.875 9 C6.25625 8.34 5.6375 7.68 5 7 C5 8.98 5 10.96 5 13 C4.01 13.495 4.01 13.495 3 14 C3 11.36 3 8.72 3 6 C-1.0042343 9.49087093 -2.62671065 11.64951939 -3 17 C-3.33 17 -3.66 17 -4 17 C-4.36499063 10.06517795 -3.09392307 6.18784615 0 0 Z " fill="#1F291F" transform="translate(78,63)"/>
<path d="M0 0 C1.485 0.99 1.485 0.99 3 2 C3.51171875 4.6015625 3.51171875 4.6015625 3.6875 7.625 C3.75324219 8.62789062 3.81898437 9.63078125 3.88671875 10.6640625 C3.92410156 11.43492188 3.96148437 12.20578125 4 13 C3.34 13 2.68 13 2 13 C2.18129815 16.43793339 2.18129815 16.43793339 3 20 C4.93597032 21.51294288 4.93597032 21.51294288 7 22 C7.33 20.68 7.66 19.36 8 18 C10.62386487 21.06117568 11 21.73173127 11 26 C3.6828143 25.64013841 3.6828143 25.64013841 1 23.125 C-0.74421786 17.67431919 -0.58174763 11.89199722 0.54296875 6.30078125 C1.03519504 3.82282153 0.79050203 2.37150608 0 0 Z " fill="#253324" transform="translate(59,71)"/>
<path d="M0 0 C0.33 0 0.66 0 1 0 C1 1.65 1 3.3 1 5 C2.98 4.01 4.96 3.02 7 2 C7.73277403 8.96135332 7.73277403 8.96135332 5.69921875 11.84375 C4.60823254 12.98941571 3.50922256 14.1274939 2.40234375 15.2578125 C0.1538191 18.05124424 0.14354858 20.48305991 0 24 C-0.33 24 -0.66 24 -1 24 C-1 21.36 -1 18.72 -1 16 C-1.66 15.67 -2.32 15.34 -3 15 C-1.68 12.69 -0.36 10.38 1 8 C0.34 8 -0.32 8 -1 8 C-1.125 2.25 -1.125 2.25 0 0 Z " fill="#171E1C" transform="translate(101,38)"/>
<path d="M0 0 C2 2 2 2 2.25 4.9375 C2 8 2 8 0 11 C-0.66 10.67 -1.32 10.34 -2 10 C-2.33926947 7.66752239 -2.67240066 5.33414529 -3 3 C-3.66 2.34 -4.32 1.68 -5 1 C-5.23428313 5.7897321 -5.23428313 5.7897321 -3 10 C-2.875 12.6875 -2.875 12.6875 -3 15 C-8.784689 9.66028708 -8.784689 9.66028708 -9 6 C-8.72686657 3.65885633 -8.40197001 1.32249342 -8 -1 C-4.34765818 -2.21744727 -3.37046678 -1.64202228 0 0 Z " fill="#2D3D27" transform="translate(71,55)"/>
<path d="M0 0 C0 3.63 0 7.26 0 11 C-1.98 11 -3.96 11 -6 11 C-6 11.99 -6 12.98 -6 14 C-7.98 14 -9.96 14 -12 14 C-11.67 12.68 -11.34 11.36 -11 10 C-9.02 10 -7.04 10 -5 10 C-5.33 8.68 -5.66 7.36 -6 6 C-6 6.66 -6 7.32 -6 8 C-6.99 7.67 -7.98 7.34 -9 7 C-10 4 -10 4 -9 1 C-5.8035914 -0.06546953 -3.34252724 -0.07427838 0 0 Z " fill="#557946" transform="translate(91,99)"/>
<path d="M0 0 C-0.66 1.32 -1.32 2.64 -2 4 C-1.34 4.33 -0.68 4.66 0 5 C-9.22551253 11.70387244 -9.22551253 11.70387244 -15 12 C-14.5625 9.6875 -14.5625 9.6875 -13 7 C-10.09244107 5.63924116 -7.10712212 4.78637041 -4 4 C-4.94875 4.020625 -5.8975 4.04125 -6.875 4.0625 C-10 4 -10 4 -12 3 C-12 2.34 -12 1.68 -12 1 C-8.0186217 -0.3271261 -4.14954773 -0.06915913 0 0 Z " fill="#4E7D47" transform="translate(30,104)"/>
<path d="M0 0 C0.625 1.875 0.625 1.875 1 4 C0.34 4.66 -0.32 5.32 -1 6 C-1.6425235 8.06874034 -1.6425235 8.06874034 -2 10 C-0.35 9.34 1.3 8.68 3 8 C2.34 9.32 1.68 10.64 1 12 C-1.875 12.125 -1.875 12.125 -5 12 C-5.66 11.34 -6.32 10.68 -7 10 C-6.01 9.67 -5.02 9.34 -4 9 C-3.67 8.01 -3.34 7.02 -3 6 C-4.98 6 -6.96 6 -9 6 C-8.625 3.5625 -8.625 3.5625 -8 1 C-5.29120665 -0.35439668 -2.99066732 -0.06501451 0 0 Z " fill="#3E5132" transform="translate(125,86)"/>
<path d="M0 0 C0.99 0.33 1.98 0.66 3 1 C3 1.66 3 2.32 3 3 C2.34 3 1.68 3 1 3 C1.144375 3.65226562 1.28875 4.30453125 1.4375 4.9765625 C2.44627294 9.72620177 3.25715306 14.11409188 3 19 C2.34 18.67 1.68 18.34 1 18 C1 17.34 1 16.68 1 16 C0.34 16 -0.32 16 -1 16 C-2.69213943 13.04044139 -3.29521319 10.84300083 -3.3125 7.4375 C-3.32925781 6.67308594 -3.34601563 5.90867187 -3.36328125 5.12109375 C-2.91796488 2.52102077 -1.99996498 1.65168612 0 0 Z " fill="#191D18" transform="translate(81,40)"/>
<path d="M0 0 C0 2.31 0 4.62 0 7 C1.65 6.67 3.3 6.34 5 6 C5 8.97 5 11.94 5 15 C4.67 15 4.34 15 4 15 C4 12.69 4 10.38 4 8 C3.071875 8.495 3.071875 8.495 2.125 9 C0 10 0 10 -2 10 C-3.33783393 10.31478446 -4.67203709 10.64587656 -6 11 C-6.48951049 4.63636364 -6.48951049 4.63636364 -4.125 1.5625 C-2 0 -2 0 0 0 Z " fill="#3F5534" transform="translate(108,32)"/>
<path d="M0 0 C0.66 0 1.32 0 2 0 C2.96070434 2.88211302 3.10581883 4.69850044 3.0625 7.6875 C3.05347656 8.49574219 3.04445313 9.30398437 3.03515625 10.13671875 C3.02355469 10.75160156 3.01195313 11.36648437 3 12 C3.99 12.33 4.98 12.66 6 13 C6 13.99 6 14.98 6 16 C2.00808796 16 0.81920756 14.74501788 -2 12 C-2.8125 9.25 -2.8125 9.25 -3 7 C-2.01 7.495 -2.01 7.495 -1 8 C-0.67 5.36 -0.34 2.72 0 0 Z " fill="#72AD5F" transform="translate(65,38)"/>
<path d="M0 0 C0.99 0.33 1.98 0.66 3 1 C2.34 1 1.68 1 1 1 C1.39170438 6.87556564 1.7374381 8.8749401 6 13 C6.25 16.25 6.25 16.25 6 19 C4.02 18.34 2.04 17.68 0 17 C-0.19644384 15.10507254 -0.38177288 13.20899097 -0.5625 11.3125 C-0.66691406 10.25675781 -0.77132812 9.20101562 -0.87890625 8.11328125 C-0.99277552 5.18573914 -0.70848415 2.82868856 0 0 Z " fill="#222C20" transform="translate(68,33)"/>
<path d="M0 0 C2.6875 -0.375 2.6875 -0.375 6 0 C8.16704095 1.81426684 9.38125003 3.61948534 11 6 C11 6.66 11 7.32 11 8 C8.3125 8.375 8.3125 8.375 5 8 C2.83295905 6.18573316 1.61874997 4.38051466 0 2 C0 1.34 0 0.68 0 0 Z " fill="#9ED975" transform="translate(122,108)"/>
<path d="M0 0 C2.29141286 -0.05384521 4.58318188 -0.09272087 6.875 -0.125 C8.78925781 -0.15980469 8.78925781 -0.15980469 10.7421875 -0.1953125 C14 0 14 0 16 2 C16.125 4.625 16.125 4.625 16 7 C15.835 6.360625 15.67 5.72125 15.5 5.0625 C14.218214 2.83880759 14.218214 2.83880759 12.0859375 2.51171875 C10.06424845 2.2724022 8.03158061 2.13106972 6 2 C6 2.66 6 3.32 6 4 C4.68 4 3.36 4 2 4 C1.67 5.32 1.34 6.64 1 8 C-0.35439668 5.29120665 -0.06501451 2.99066732 0 0 Z " fill="#121718" transform="translate(33,84)"/>
<path d="M0 0 C1.88500864 2.82751297 2.42317657 4.27652054 3.0625 7.5 C3.58700025 10.10082768 4.15796475 12.47389425 5 15 C4.5625 17.1875 4.5625 17.1875 4 19 C0.125 18.125 0.125 18.125 -1 17 C-1.04092937 14.66702567 -1.04241723 12.33294775 -1 10 C-0.34 10 0.32 10 1 10 C0.67 6.7 0.34 3.4 0 0 Z " fill="#496A3E" transform="translate(62,74)"/>
<path d="M0 0 C0.33 0.66 0.66 1.32 1 2 C5.95 1.67 10.9 1.34 16 1 C16 1.66 16 2.32 16 3 C12.51783717 5.05137315 9.22724343 5.56818592 5.25 6.125 C4.07953125 6.29257813 2.9090625 6.46015625 1.703125 6.6328125 C0.81109375 6.75398438 -0.0809375 6.87515625 -1 7 C-0.67 4.69 -0.34 2.38 0 0 Z " fill="#3B5B36" transform="translate(18,99)"/>
<path d="M0 0 C0.58052245 3.00988272 1.05989746 5.92889402 1 9 C-0.9375 11.0625 -0.9375 11.0625 -3 12 C-5.021829 7.95634201 -5.19150921 5.36886712 -4 1 C-2 0 -2 0 0 0 Z " fill="#77BD67" transform="translate(49,108)"/>
<path d="M0 0 C5.32410244 -0.11327878 10.77391797 -0.12823767 16 1 C16.66 1.66 17.32 2.32 18 3 C17.67 3.99 17.34 4.98 17 6 C17 5.34 17 4.68 17 4 C16.10796875 4.02320312 15.2159375 4.04640625 14.296875 4.0703125 C13.12640625 4.08835937 11.9559375 4.10640625 10.75 4.125 C9.00976562 4.15980469 9.00976562 4.15980469 7.234375 4.1953125 C4.17213954 4.0103949 2.55797249 3.60823023 0 2 C0 1.34 0 0.68 0 0 Z " fill="#435534" transform="translate(129,100)"/>
<path d="M0 0 C0.33 0.66 0.66 1.32 1 2 C2.03060547 1.85691406 2.03060547 1.85691406 3.08203125 1.7109375 C3.98308594 1.60007812 4.88414062 1.48921875 5.8125 1.375 C6.70582031 1.25898437 7.59914062 1.14296875 8.51953125 1.0234375 C11 1 11 1 14 3 C14 3.66 14 4.32 14 5 C8.65998179 6.33500455 5.16044765 5.512545 0 4 C0 2.68 0 1.36 0 0 Z " fill="#759D58" transform="translate(131,96)"/>
<path d="M0 0 C0.66 0 1.32 0 2 0 C2.33 4.95 2.66 9.9 3 15 C2.67 14.01 2.34 13.02 2 12 C0.68 12.33 -0.64 12.66 -2 13 C-1.85966889 11.02043559 -1.7125877 9.04134859 -1.5625 7.0625 C-1.48128906 5.96035156 -1.40007812 4.85820313 -1.31640625 3.72265625 C-1 1 -1 1 0 0 Z " fill="#232B1F" transform="translate(102,72)"/>
<path d="M0 0 C1.98 0.495 1.98 0.495 4 1 C4.125 7.625 4.125 7.625 3 11 C1.68 10.67 0.36 10.34 -1 10 C-1.125 3.375 -1.125 3.375 0 0 Z " fill="#8AC16A" transform="translate(115,109)"/>
<path d="M0 0 C2.40928735 0.96371494 3.76007009 1.65210163 5.25 3.8125 C6.11081611 6.32321365 6.14647297 8.36348649 6 11 C3.13275314 10.42655063 2.1385485 10.1385485 0 8 C-0.26991906 5.31160615 -0.08737357 2.70858064 0 0 Z " fill="#7DBD67" transform="translate(69,34)"/>
<path d="M0 0 C4.93670886 4.31962025 4.93670886 4.31962025 5.25 7.6875 C5.1675 8.450625 5.085 9.21375 5 10 C5.33 10.66 5.66 11.32 6 12 C5.34 12 4.68 12 4 12 C4 13.32 4 14.64 4 16 C3.01 16 2.02 16 1 16 C1.20625 15.071875 1.4125 14.14375 1.625 13.1875 C2.36692966 9.84826598 2.36692966 9.84826598 0 7 C-0.07905064 4.66800612 -0.08798769 2.33167378 0 0 Z " fill="#7BBB66" transform="translate(65,55)"/>
<path d="M0 0 C0.33 0 0.66 0 1 0 C1 1.65 1 3.3 1 5 C2.98 4.01 4.96 3.02 7 2 C7 4.31 7 6.62 7 9 C5.02 9.99 3.04 10.98 1 12 C0.63597631 10.56496445 0.28413409 9.12683494 -0.0625 7.6875 C-0.25972656 6.88699219 -0.45695312 6.08648437 -0.66015625 5.26171875 C-1 3 -1 3 0 0 Z " fill="#21291E" transform="translate(88,41)"/>
<path d="M0 0 C-0.3125 2.375 -0.3125 2.375 -1 5 C-4.4352048 7.29013653 -5.985331 7.17842973 -10 7 C-5.53191489 0 -5.53191489 0 0 0 Z " fill="#7CC96D" transform="translate(40,109)"/>
<path d="M0 0 C2 0 2 0 4 1.4375 C6.77974608 4.99904966 7.28673172 8.607769 8 13 C4.39354228 11.10186436 2.52502828 9.81257069 1 6 C0.67 5.67 0.34 5.34 0 5 C-0.04063832 3.33382885 -0.042721 1.66611905 0 0 Z " fill="#68AA5E" transform="translate(26,79)"/>
<path d="M0 0 C2.046875 1.609375 2.046875 1.609375 4 4 C3.953125 7.015625 3.953125 7.015625 3.25 10.25 C3.02828125 11.32765625 2.8065625 12.4053125 2.578125 13.515625 C2.38734375 14.33546875 2.1965625 15.1553125 2 16 C1.67 16 1.34 16 1 16 C0.87882812 15.40832031 0.75765625 14.81664063 0.6328125 14.20703125 C-0.26744643 9.96196415 -1.20456621 5.97560339 -3 2 C-2.01 2.33 -1.02 2.66 0 3 C0 2.01 0 1.02 0 0 Z " fill="#5E8E4F" transform="translate(57,71)"/>
<path d="M0 0 C3.19395026 0.71401232 3.19395026 0.71401232 6 1 C6 2.65 6 4.3 6 6 C3.32867456 5.0353547 1.21650113 4.17590717 -1 2.375 C-2.95600818 0.75214364 -2.95600818 0.75214364 -5.625 1 C-6.40875 1 -7.1925 1 -8 1 C-8.66 0.01 -9.32 -0.98 -10 -2 C-5.45335707 -3.42894492 -3.90891055 -2.47882132 0 0 Z " fill="#344C31" transform="translate(51,68)"/>
<path d="M0 0 C0.66 0 1.32 0 2 0 C2 2.97 2 5.94 2 9 C0.02 9.33 -1.96 9.66 -4 10 C-4 7.69 -4 5.38 -4 3 C-3.01 3 -2.02 3 -1 3 C-0.67 2.01 -0.34 1.02 0 0 Z " fill="#131919" transform="translate(122,56)"/>
<path d="M0 0 C1.62433191 2.50076998 2.07333427 3.58982529 1.5390625 6.578125 C1.23742187 7.45984375 0.93578125 8.3415625 0.625 9.25 C0.32851562 10.14203125 0.03203125 11.0340625 -0.2734375 11.953125 C-0.51320313 12.62859375 -0.75296875 13.3040625 -1 14 C-3.37945265 9.24109471 -4.10095578 6.45161235 -4 1 C-3.01 1.33 -2.02 1.66 -1 2 C-0.67 1.34 -0.34 0.68 0 0 Z " fill="#618C4E" transform="translate(86,43)"/>
<path d="M0 0 C2.61007735 3.91511603 2.22006613 7.4519666 2 12 C1.67 12.66 1.34 13.32 1 14 C0.77532169 15.53668865 0.59203195 17.07968054 0.4375 18.625 C0.35371094 19.44226563 0.26992187 20.25953125 0.18359375 21.1015625 C0.12300781 21.72804688 0.06242187 22.35453125 0 23 C-0.33 23 -0.66 23 -1 23 C-1.19573608 21.56359829 -1.38127816 20.12580496 -1.5625 18.6875 C-1.71912109 17.48673828 -1.71912109 17.48673828 -1.87890625 16.26171875 C-2 14 -2 14 -1 11 C-0.9566427 9.47978483 -0.95992606 7.95780527 -1 6.4375 C-1.11076443 2.22152886 -1.11076443 2.22152886 0 0 Z " fill="#44613A" transform="translate(78,29)"/>
<path d="M0 0 C1.32 0 2.64 0 4 0 C4 0.66 4 1.32 4 2 C4.99 2.33 5.98 2.66 7 3 C6.34 3.66 5.68 4.32 5 5 C5 4.34 5 3.68 5 3 C4.195625 3.495 3.39125 3.99 2.5625 4.5 C-1.82002454 6.34527349 -5.32315231 6.28061086 -10 6 C-9.67 5.01 -9.34 4.02 -9 3 C-5.7 2.67 -2.4 2.34 1 2 C0.67 1.34 0.34 0.68 0 0 Z " fill="#425836" transform="translate(124,73)"/>
<path d="M0 0 C0 0.66 0 1.32 0 2 C-3.41831915 4.5393228 -5.75776898 5.3636198 -10 5 C-10 4.34 -10 3.68 -10 3 C-10.66 2.67 -11.32 2.34 -12 2 C-7.52828892 -0.66173278 -5.06604612 -1.3268216 0 0 Z " fill="#7EB162" transform="translate(119,63)"/>
<path d="M0 0 C1.485 0.99 1.485 0.99 3 2 C3.51171875 4.6015625 3.51171875 4.6015625 3.6875 7.625 C3.75324219 8.62789062 3.81898437 9.63078125 3.88671875 10.6640625 C3.92410156 11.43492188 3.96148437 12.20578125 4 13 C3.34 13 2.68 13 2 13 C1.67 14.98 1.34 16.96 1 19 C0.67 19 0.34 19 0 19 C-0.09034431 13.83029757 -0.04502163 9.07581935 1 4 C0.63143136 1.76832815 0.63143136 1.76832815 0 0 Z " fill="#212A1E" transform="translate(59,71)"/>
<path d="M0 0 C0.25 6.625 0.25 6.625 -2 10 C-2.99 10 -3.98 10 -5 10 C-5.3669579 3.51707705 -5.3669579 3.51707705 -3.625 1.0625 C-2 0 -2 0 0 0 Z " fill="#82BB66" transform="translate(99,55)"/>
<path d="M0 0 C0.93423645 3.01031744 1.04449911 3.86650268 0 7 C0 6.34 0 5.68 0 5 C-3.87952544 7.62948691 -3.87952544 7.62948691 -5.8125 11.75 C-5.9053125 12.86375 -5.9053125 12.86375 -6 14 C-6.66 13.67 -7.32 13.34 -8 13 C-7.8794926 5.89006342 -7.8794926 5.89006342 -5.375 3.35546875 C-3.64434882 2.14471077 -1.82561508 1.06217605 0 0 Z " fill="#293625" transform="translate(99,50)"/>
<path d="M0 0 C0.36637589 6.35051546 0.36637589 6.35051546 -1.375 9.4375 C-3 11 -3 11 -5 11 C-5.36717663 3.5340751 -5.36717663 3.5340751 -3.625 1 C-2 0 -2 0 0 0 Z " fill="#76AB5F" transform="translate(94,35)"/>
<path d="M0 0 C6.75 0.75 6.75 0.75 9 3 C9 3.99 9 4.98 9 6 C6.1875 6.25 6.1875 6.25 3 6 C1.125 4.125 1.125 4.125 0 2 C0 1.34 0 0.68 0 0 Z " fill="#77BB67" transform="translate(46,51)"/>
<path d="M0 0 C2.4375 1.5625 2.4375 1.5625 5 4 C5.8125 7.75 5.8125 7.75 6 11 C2.83884224 9.63016497 2.0072908 9.0109362 0 6 C-0.125 2.8125 -0.125 2.8125 0 0 Z " fill="#7FC46A" transform="translate(56,32)"/>
<path d="M0 0 C2.31 0.33 4.62 0.66 7 1 C6.67 2.98 6.34 4.96 6 7 C5.34 7 4.68 7 4 7 C3.67 6.34 3.34 5.68 3 5 C2.67 5.66 2.34 6.32 2 7 C1.34 7 0.68 7 0 7 C0 4.69 0 2.38 0 0 Z " fill="#394E30" transform="translate(75,100)"/>
<path d="M0 0 C3.875 1.75 3.875 1.75 5 4 C5.039992 5.99960012 5.04346799 8.00047242 5 10 C1.125 8.125 1.125 8.125 0 7 C-0.04092937 4.66702567 -0.04241723 2.33294775 0 0 Z " fill="#86C66B" transform="translate(83,70)"/>
<path d="M0 0 C2.875 -0.125 2.875 -0.125 6 0 C8 2 8 2 8 6 C5.6875 6.25 5.6875 6.25 3 6 C1.02389614 3.95575462 0 2.8823175 0 0 Z " fill="#74C169" transform="translate(21,89)"/>
<path d="M0 0 C0.99 0 1.98 0 3 0 C3 2.64 3 5.28 3 8 C1.02 8.99 1.02 8.99 -1 10 C-1.02689216 8.52093108 -1.04634621 7.04172517 -1.0625 5.5625 C-1.07410156 4.73878906 -1.08570312 3.91507813 -1.09765625 3.06640625 C-1 1 -1 1 0 0 Z " fill="#97CF70" transform="translate(126,54)"/>
<path d="M0 0 C0.66 0 1.32 0 2 0 C2 2.64 2 5.28 2 8 C0.02 8.99 0.02 8.99 -2 10 C-3 9 -3 9 -3.25 6.6875 C-2.95661225 3.53358172 -2.17633205 2.26003713 0 0 Z " fill="#85C66C" transform="translate(78,70)"/>
<path d="M0 0 C0.33 0 0.66 0 1 0 C1.33 1.65 1.66 3.3 2 5 C3.27259511 4.54658132 4.54301243 4.08704773 5.8125 3.625 C6.52019531 3.36976562 7.22789063 3.11453125 7.95703125 2.8515625 C10.24773359 1.9734231 10.24773359 1.9734231 13 0 C11.49776416 4.20626034 8.71449966 5.73900021 5 8 C4.67 7.34 4.34 6.68 4 6 C2.02 6.99 2.02 6.99 0 8 C0 5.36 0 2.72 0 0 Z " fill="#7EB563" transform="translate(88,47)"/>
<path d="M0 0 C3.21365891 1.10815825 3.9914224 1.98529554 5.75 5 C7 8 7 8 7 10 C3.17398693 8.54875366 1.77670876 6.64225296 0 3 C0 2.01 0 1.02 0 0 Z " fill="#6EB463" transform="translate(28,73)"/>
<path d="M0 0 C0.33 0 0.66 0 1 0 C1 2.64 1 5.28 1 8 C1.99 8.33 2.98 8.66 4 9 C4.33 11.31 4.66 13.62 5 16 C-0.784689 10.66028708 -0.784689 10.66028708 -1 7 C-0.72686657 4.65885633 -0.40197001 2.32249342 0 0 Z " fill="#1E2A22" transform="translate(63,54)"/>
<path d="M0 0 C0.99 0 1.98 0 3 0 C3.25532751 3.06393013 3.21861333 4.63233212 1.625 7.3125 C0.820625 8.1478125 0.820625 8.1478125 0 9 C-0.66 9 -1.32 9 -2 9 C-2.125 5.625 -2.125 5.625 -2 2 C-1.34 1.34 -0.68 0.68 0 0 Z " fill="#85BC66" transform="translate(104,34)"/>
<path d="M0 0 C2.5 1.6875 2.5 1.6875 5 4 C5.3125 6.75 5.3125 6.75 5 9 C1.125 8.125 1.125 8.125 0 7 C-0.04092937 4.66702567 -0.04241723 2.33294775 0 0 Z " fill="#6FB162" transform="translate(40,49)"/>
<path d="M0 0 C0.66 0 1.32 0 2 0 C3.36952673 2.73905345 3.12621361 4.97087332 3 8 C2.67 8.66 2.34 9.32 2 10 C1.01 10 0.02 10 -1 10 C-0.67 6.7 -0.34 3.4 0 0 Z " fill="#7BB564" transform="translate(84,29)"/>
<path d="M0 0 C1.2065625 0.0309375 1.2065625 0.0309375 2.4375 0.0625 C1.75 2.5 1.75 2.5 0.4375 5.0625 C-2.1875 5.875 -2.1875 5.875 -4.5625 6.0625 C-3.48963568 0.08511307 -3.48963568 0.08511307 0 0 Z " fill="#A1DB76" transform="translate(139.5625,88.9375)"/>
<path d="M0 0 C2.475 0.99 2.475 0.99 5 2 C5 3.65 5 5.3 5 7 C3 7 3 7 0.875 5 C0.25625 4.34 -0.3625 3.68 -1 3 C-1 4.98 -1 6.96 -1 9 C-1.33 9 -1.66 9 -2 9 C-2.125 5.625 -2.125 5.625 -2 2 C-1.34 1.34 -0.68 0.68 0 0 Z " fill="#273626" transform="translate(84,67)"/>
<path d="M0 0 C0.66 0 1.32 0 2 0 C2.36666667 5.5 2.36666667 5.5 0.625 7.875 C-1 9 -1 9 -3 9 C-3.25532751 5.93606987 -3.21861333 4.36766788 -1.625 1.6875 C-0.820625 0.8521875 -0.820625 0.8521875 0 0 Z " fill="#7FAF61" transform="translate(122,49)"/>
<path d="M0 0 C1.98 0.99 1.98 0.99 4 2 C4 4.31 4 6.62 4 9 C2.68 8.67 1.36 8.34 0 8 C0 5.36 0 2.72 0 0 Z " fill="#6AA45B" transform="translate(51,39)"/>
<path d="M0 0 C-0.33 1.32 -0.66 2.64 -1 4 C-3.64 4 -6.28 4 -9 4 C-8.67 3.01 -8.34 2.02 -8 1 C-5.07175348 0.02391783 -3.04386724 -0.08226668 0 0 Z " fill="#20261D" transform="translate(122,92)"/>
<path d="M0 0 C0.99 0.33 1.98 0.66 3 1 C3 1.66 3 2.32 3 3 C-0.63 3 -4.26 3 -8 3 C-8.33 2.34 -8.66 1.68 -9 1 C-6.01002175 -0.49498913 -3.29957225 -0.11577446 0 0 Z " fill="#7CC56B" transform="translate(46,73)"/>
<path d="M0 0 C2.31 0 4.62 0 7 0 C7 0.66 7 1.32 7 2 C7.99 2.33 8.98 2.66 10 3 C9.01 3 8.02 3 7 3 C6.67 3.99 6.34 4.98 6 6 C5.67 5.34 5.34 4.68 5 4 C3.02 4.33 1.04 4.66 -1 5 C-0.01 4.01 0.98 3.02 2 2 C1.34 1.34 0.68 0.68 0 0 Z " fill="#4C7746" transform="translate(35,105)"/>
<path d="M0 0 C2.31 0 4.62 0 7 0 C7.33 1.65 7.66 3.3 8 5 C4.5625 4.1875 4.5625 4.1875 1 3 C0.67 2.01 0.34 1.02 0 0 Z " fill="#74B864" transform="translate(40,87)"/>
<path d="M0 0 C-0.66 2.31 -1.32 4.62 -2 7 C-1.34 7.33 -0.68 7.66 0 8 C-0.99 8 -1.98 8 -3 8 C-3.33 7.01 -3.66 6.02 -4 5 C-4.99 5 -5.98 5 -7 5 C-6.34 4.01 -5.68 3.02 -5 2 C-5.99 1.34 -6.98 0.68 -8 0 C-4.71023192 -1.09658936 -3.28696233 -0.79953138 0 0 Z " fill="#435C3A" transform="translate(121,51)"/>
<path d="M0 0 C-1.125 2.5 -1.125 2.5 -3 5 C-6.1875 5.3125 -6.1875 5.3125 -9 5 C-9 4.34 -9 3.68 -9 3 C-6.04341306 0.15291628 -4.05047276 -0.3375394 0 0 Z " fill="#94D071" transform="translate(117,52)"/>
<path d="M0 0 C-1.485 1.98 -1.485 1.98 -3 4 C-5.31 3.67 -7.62 3.34 -10 3 C-10 2.34 -10 1.68 -10 1 C-6.61981469 -0.04005702 -3.5219721 -0.08004482 0 0 Z " fill="#6EB664" transform="translate(28,104)"/>
<path d="M0 0 C0.66 0 1.32 0 2 0 C2.66 1.65 3.32 3.3 4 5 C1.69 5.66 -0.62 6.32 -3 7 C-2.25 2.25 -2.25 2.25 0 0 Z " fill="#89BC67" transform="translate(126,89)"/>
<path d="M0 0 C0.66 0 1.32 0 2 0 C2 2.31 2 4.62 2 7 C0.02 7.99 0.02 7.99 -2 9 C-2.25 3.375 -2.25 3.375 0 0 Z " fill="#8BC76C" transform="translate(101,84)"/>
<path d="M0 0 C0.99 0 1.98 0 3 0 C3.33 2.31 3.66 4.62 4 7 C2.68 7 1.36 7 0 7 C0 4.69 0 2.38 0 0 Z " fill="#85C66C" transform="translate(80,79)"/>
<path d="M0 0 C0.66 0 1.32 0 2 0 C2.25 2.25 2.25 2.25 2 5 C0.125 7.3125 0.125 7.3125 -2 9 C-2.66 9 -3.32 9 -4 9 C-2.25 2.25 -2.25 2.25 0 0 Z " fill="#8BBE69" transform="translate(133,73)"/>
<path d="M0 0 C0.66 0 1.32 0 2 0 C2 1.98 2 3.96 2 6 C2.66 6 3.32 6 4 6 C4 7.98 4 9.96 4 12 C3.67 10.68 3.34 9.36 3 8 C0.525 9.485 0.525 9.485 -2 11 C-2 8 -2 8 0 6 C0.16681109 2.91652174 0.16681109 2.91652174 0 0 Z " fill="#405636" transform="translate(134,72)"/>
<path d="M0 0 C0.66 0 1.32 0 2 0 C2.37211538 7.56634615 2.37211538 7.56634615 0.48828125 9.76171875 C-0.00285156 10.17035156 -0.49398437 10.57898437 -1 11 C-1.0270043 9.54176788 -1.04639787 8.08339325 -1.0625 6.625 C-1.07410156 5.81289063 -1.08570312 5.00078125 -1.09765625 4.1640625 C-1 2 -1 2 0 0 Z " fill="#89C56B" transform="translate(97,38)"/>
<path d="M0 0 C-0.33 0.99 -0.66 1.98 -1 3 C-6.75 4.125 -6.75 4.125 -9 3 C-9 2.34 -9 1.68 -9 1 C-5.92677456 0.08941469 -3.19902639 -0.08886184 0 0 Z " fill="#7ACC6F" transform="translate(28,98)"/>
<path d="M0 0 C3.93846154 3.32307692 3.93846154 3.32307692 4.25 6.75 C4.1675 7.4925 4.085 8.235 4 9 C2.68 8.34 1.36 7.68 0 7 C0 4.69 0 2.38 0 0 Z " fill="#86CD6F" transform="translate(61,84)"/>
<path d="M0 0 C1.60031344 3.20062687 0.03173691 5.72271806 -1 9 C-1.33 7.68 -1.66 6.36 -2 5 C-2.99 5 -3.98 5 -5 5 C-5 4.01 -5 3.02 -5 2 C-3.35 1.34 -1.7 0.68 0 0 Z " fill="#1A221E" transform="translate(131,82)"/>
<path d="M0 0 C2.31 0.33 4.62 0.66 7 1 C7.33 1.99 7.66 2.98 8 4 C6.02 4 4.04 4 2 4 C1.34 2.68 0.68 1.36 0 0 Z " fill="#8CB965" transform="translate(141,112)"/>
<path d="M0 0 C-0.99 0.33 -1.98 0.66 -3 1 C-2.34 2.65 -1.68 4.3 -1 6 C-2.32 5.34 -3.64 4.68 -5 4 C-5.33 5.32 -5.66 6.64 -6 8 C-5.979375 7.05125 -5.95875 6.1025 -5.9375 5.125 C-5.77448174 2.09333717 -5.77448174 2.09333717 -7 0 C-3.86650268 -1.04449911 -3.01031744 -0.93423645 0 0 Z " fill="#3A4F33" transform="translate(125,107)"/>
<path d="M0 0 C2.31 0 4.62 0 7 0 C4.47211993 2.79872437 2.79588866 4.45773019 -1 5 C-0.67 3.35 -0.34 1.7 0 0 Z " fill="#91C96D" transform="translate(117,87)"/>
<path d="M0 0 C-0.33 1.32 -0.66 2.64 -1 4 C-3.3125 4.6875 -3.3125 4.6875 -6 5 C-7.8125 3.5625 -7.8125 3.5625 -9 2 C-3.375 0 -3.375 0 0 0 Z " fill="#78A45B" transform="translate(128,77)"/>
<path d="M0 0 C0.33 0 0.66 0 1 0 C1.05437607 1.58294782 1.09296271 3.16644256 1.125 4.75 C1.14820312 5.63171875 1.17140625 6.5134375 1.1953125 7.421875 C0.99139502 10.1135858 0.36551721 11.69904974 -1 14 C-1.66 13.67 -2.32 13.34 -3 13 C-2.01 8.71 -1.02 4.42 0 0 Z " fill="#4E7143" transform="translate(89,71)"/>
<path d="M0 0 C0.33 0.99 0.66 1.98 1 3 C2.65 2.34 4.3 1.68 6 1 C5.34 2.32 4.68 3.64 4 5 C1.125 5.125 1.125 5.125 -2 5 C-2.66 4.34 -3.32 3.68 -4 3 C-3.01 2.67 -2.02 2.34 -1 2 C-0.67 1.34 -0.34 0.68 0 0 Z " fill="#516D40" transform="translate(122,93)"/>
<path d="M0 0 C-0.35049575 3.24208567 -0.56221181 4.61527704 -3.0625 6.8125 C-3.701875 7.204375 -4.34125 7.59625 -5 8 C-5.36625971 3.48279689 -5.36625971 3.48279689 -3.625 1.1875 C-2 0 -2 0 0 0 Z " fill="#9BD272" transform="translate(137,80)"/>
<path d="M0 0 C2.31 0 4.62 0 7 0 C5.7260411 2.03833424 4.38938077 4.03852126 3 6 C2.34 6 1.68 6 1 6 C0.67 4.02 0.34 2.04 0 0 Z " fill="#2A3524" transform="translate(106,69)"/>
<path d="M0 0 C1.64846769 0.44876616 3.29373455 0.90930488 4.9375 1.375 C5.85402344 1.63023438 6.77054688 1.88546875 7.71484375 2.1484375 C10 3 10 3 11 5 C7.37 4.67 3.74 4.34 0 4 C0 2.68 0 1.36 0 0 Z " fill="#141A1A" transform="translate(46,55)"/>
<path d="M0 0 C0.33 0 0.66 0 1 0 C1 1.98 1 3.96 1 6 C1.66 6 2.32 6 3 6 C1.72617782 8.54764436 0.43334567 9.5399926 -2 11 C-4.25 10.6875 -4.25 10.6875 -6 10 C-5.34 10 -4.68 10 -4 10 C-3.67 9.01 -3.34 8.02 -3 7 C-2.67 7.33 -2.34 7.66 -2 8 C-1.34 5.36 -0.68 2.72 0 0 Z " fill="#5A804A" transform="translate(99,40)"/>
<path d="M0 0 C-1.97420135 2.52259061 -2.96745642 2.9929808 -6.1875 3.6875 C-7.5796875 3.8421875 -7.5796875 3.8421875 -9 4 C-8.25 2.0625 -8.25 2.0625 -7 0 C-4.04680182 -1.23843794 -3.12561472 -1.04187157 0 0 Z " fill="#72C068" transform="translate(24,112)"/>
<path d="M0 0 C1.9375 0.6875 1.9375 0.6875 4 2 C4.75 4.625 4.75 4.625 5 7 C1.125 6.125 1.125 6.125 0 5 C-0.04063832 3.33382885 -0.042721 1.66611905 0 0 Z " fill="#88C96D" transform="translate(80,59)"/>
<path d="M0 0 C0.99 0 1.98 0 3 0 C3 2.97 3 5.94 3 9 C3.66 9.33 4.32 9.66 5 10 C4.01 10 3.02 10 2 10 C-1.125 3.375 -1.125 3.375 0 0 Z " fill="#7BAF61" transform="translate(103,52)"/>
<path d="M0 0 C0.66 0 1.32 0 2 0 C2 2.97 2 5.94 2 9 C1.01 8.67 0.02 8.34 -1 8 C-0.67 5.36 -0.34 2.72 0 0 Z " fill="#85CB6E" transform="translate(65,38)"/>
<path d="M0 0 C3.375 -0.1875 3.375 -0.1875 7 0 C7.66 0.99 8.32 1.98 9 3 C2.25 3.125 2.25 3.125 0 2 C0 1.34 0 0.68 0 0 Z " fill="#2D3825" transform="translate(129,100)"/>
<path d="M0 0 C2.97 0 5.94 0 9 0 C9 0.66 9 1.32 9 2 C3.375 3.125 3.375 3.125 0 2 C0 1.34 0 0.68 0 0 Z " fill="#A5DF77" transform="translate(136,99)"/>
<path d="M0 0 C0.66 0 1.32 0 2 0 C2 2.31 2 4.62 2 7 C1.01 7.33 0.02 7.66 -1 8 C-1.04241723 5.66705225 -1.04092937 3.33297433 -1 1 C-0.67 0.67 -0.34 0.34 0 0 Z " fill="#88BF68" transform="translate(110,40)"/>
<path d="M0 0 C-0.33 0.99 -0.66 1.98 -1 3 C-0.01 3.66 0.98 4.32 2 5 C-0.97 5 -3.94 5 -7 5 C-2.25 0 -2.25 0 0 0 Z " fill="#70B262" transform="translate(45,79)"/>
<path d="M0 0 C0.33 0 0.66 0 1 0 C3.42857143 7.42857143 3.42857143 7.42857143 2 11 C0.68 10.34 -0.64 9.68 -2 9 C-1.34 8.67 -0.68 8.34 0 8 C-0.185625 7.05125 -0.37125 6.1025 -0.5625 5.125 C-1 2 -1 2 0 0 Z " fill="#48653C" transform="translate(84,57)"/>
<path d="M0 0 C0.33 0 0.66 0 1 0 C1 2.64 1 5.28 1 8 C-0.65 8 -2.3 8 -4 8 C-3.01 7.34 -2.02 6.68 -1 6 C-2.32 5.34 -3.64 4.68 -5 4 C-4.01 4 -3.02 4 -2 4 C-1.34 2.68 -0.68 1.36 0 0 Z " fill="#3F5F3B" transform="translate(57,53)"/>
<path d="M0 0 C0.33 0 0.66 0 1 0 C1 2.97 1 5.94 1 9 C-0.65 9 -2.3 9 -4 9 C-4.33 7.35 -4.66 5.7 -5 4 C-3.515 4.99 -3.515 4.99 -2 6 C-1.34 6 -0.68 6 0 6 C0 4.02 0 2.04 0 0 Z " fill="#639554" transform="translate(67,41)"/>
<path d="M0 0 C2.09350689 3.4019487 2.17942163 6.05272412 2 10 C1.34 10 0.68 10 0 10 C-1.125 2.25 -1.125 2.25 0 0 Z " fill="#88CB6F" transform="translate(78,29)"/>
<path d="M0 0 C1.85776765 3.13498292 2.20140476 5.37471432 2 9 C0.35 9 -1.3 9 -3 9 C-2.01 8.34 -1.02 7.68 0 7 C-0.99 6.34 -1.98 5.68 -3 5 C-2.34 4.67 -1.68 4.34 -1 4 C-0.34786708 1.97536745 -0.34786708 1.97536745 0 0 Z " fill="#3F5D38" transform="translate(49,87)"/>
<path d="M0 0 C5.53846154 0.61538462 5.53846154 0.61538462 7.875 2.5625 C8.431875 3.2740625 8.431875 3.2740625 9 4 C6.1875 4.25 6.1875 4.25 3 4 C1.125 2 1.125 2 0 0 Z " fill="#7FC96D" transform="translate(46,64)"/>
<path d="M0 0 C0.99 0.33 1.98 0.66 3 1 C3 2.98 3 4.96 3 7 C2.01 7 1.02 7 0 7 C0 4.69 0 2.38 0 0 Z " fill="#7DB764" transform="translate(82,44)"/>
<path d="M0 0 C5.53846154 -0.36923077 5.53846154 -0.36923077 7.875 1.5 C8.24625 1.995 8.6175 2.49 9 3 C8.67 3.66 8.34 4.32 8 5 C7.34 4.34 6.68 3.68 6 3 C3.41645782 2.83312552 3.41645782 2.83312552 1 3 C0.67 2.01 0.34 1.02 0 0 Z " fill="#82B262" transform="translate(122,108)"/>
<path d="M0 0 C2.31 0 4.62 0 7 0 C6.67 0.99 6.34 1.98 6 3 C4.35 3 2.7 3 1 3 C0.67 2.01 0.34 1.02 0 0 Z " fill="#98CC6E" transform="translate(138,105)"/>
<path d="M0 0 C0 0.66 0 1.32 0 2 C-1.98 2.66 -3.96 3.32 -6 4 C-6.33 3.01 -6.66 2.02 -7 1 C-4.53721199 -0.231394 -2.7204945 -0.07159196 0 0 Z " fill="#20291E" transform="translate(34,100)"/>
<path d="M0 0 C0.33 0 0.66 0 1 0 C1.433125 1.423125 1.433125 1.423125 1.875 2.875 C2.76825109 6.05211578 2.76825109 6.05211578 5 8 C4.67 8.66 4.34 9.32 4 10 C1 9 1 9 -0.25 6.6875 C-1.0275526 3.90126985 -0.98726527 2.66561622 0 0 Z " fill="#3B5434" transform="translate(60,86)"/>
<path d="M0 0 C2 1.25 2 1.25 4 3 C4 4.32 4 5.64 4 7 C2.68 6.34 1.36 5.68 0 5 C0 3.35 0 1.7 0 0 Z " fill="#7AC56B" transform="translate(36,89)"/>
<path d="M0 0 C2.1385485 2.1385485 2.42655063 3.13275314 3 6 C1.5199159 5.88637738 0.04089926 5.75877092 -1.4375 5.625 C-2.26121094 5.55539063 -3.08492187 5.48578125 -3.93359375 5.4140625 C-4.61550781 5.27742188 -5.29742188 5.14078125 -6 5 C-6.33 4.34 -6.66 3.68 -7 3 C-5.02 3 -3.04 3 -1 3 C-0.67 2.01 -0.34 1.02 0 0 Z " fill="#345335" transform="translate(27,85)"/>
<path d="M0 0 C2.375 -0.125 2.375 -0.125 5 0 C7 2 7 2 7.125 4.625 C7.08375 5.40875 7.0425 6.1925 7 7 C6.731875 6.360625 6.46375 5.72125 6.1875 5.0625 C5.11332248 2.66868314 5.11332248 2.66868314 2 2 C1.34 1.34 0.68 0.68 0 0 Z " fill="#20281E" transform="translate(42,84)"/>
<path d="M0 0 C0.99 0.33 1.98 0.66 3 1 C2.625 3.9375 2.625 3.9375 2 7 C1.01 7.495 1.01 7.495 0 8 C0 5.36 0 2.72 0 0 Z " fill="#263627" transform="translate(84,79)"/>
<path d="M0 0 C2 1.8125 2 1.8125 4 4 C4 4.99 4 5.98 4 7 C2.68 6.67 1.36 6.34 0 6 C0 4.02 0 2.04 0 0 Z " fill="#7CBF68" transform="translate(57,71)"/>
<path d="M0 0 C2.625 0.9375 2.625 0.9375 5 2 C5 2.33 5 2.66 5 3 C3.35 3 1.7 3 0 3 C-0.33 4.98 -0.66 6.96 -1 9 C-1.33 9 -1.66 9 -2 9 C-2 6.36 -2 3.72 -2 1 C-1.34 0.67 -0.68 0.34 0 0 Z " fill="#32482F" transform="translate(66,53)"/>
<path d="M0 0 C1.5 1.1875 1.5 1.1875 3 3 C3.1875 5.6875 3.1875 5.6875 3 8 C-0.875 6.25 -0.875 6.25 -2 4 C-1.34 4 -0.68 4 0 4 C0 2.68 0 1.36 0 0 Z " fill="#70AC5F" transform="translate(59,35)"/>
<path d="M0 0 C0.66 0 1.32 0 2 0 C2.80967438 2.91482778 3.21845993 4.46113217 2.0625 7.3125 C1.5365625 8.1478125 1.5365625 8.1478125 1 9 C-0.4783226 6.04335481 -0.06032783 3.25770263 0 0 Z " fill="#719F58" transform="translate(105,72)"/>
<path d="M0 0 C2.475 0.99 2.475 0.99 5 2 C5 2.99 5 3.98 5 5 C3.68 4.67 2.36 4.34 1 4 C0.67 2.68 0.34 1.36 0 0 Z " fill="#6EB062" transform="translate(35,76)"/>
<path d="M0 0 C0.99 0.66 1.98 1.32 3 2 C-0.69418201 3.231394 -3.2056261 2.64432764 -7 2 C-7 1.34 -7 0.68 -7 0 C-3.8195064 -1.06016453 -3.04021693 -1.04507457 0 0 Z " fill="#5C8F52" transform="translate(52,63)"/>
<path d="M0 0 C-1.39332574 3.36720387 -2.9789286 4.9859524 -6 7 C-5.37162381 3.35541809 -4.14650034 0 0 0 Z " fill="#242D21" transform="translate(98,108)"/>
<path d="M0 0 C0.66 0.33 1.32 0.66 2 1 C1.34 1.66 0.68 2.32 0 3 C0.33 3.66 0.66 4.32 1 5 C-0.65 5.33 -2.3 5.66 -4 6 C-2.25 1.125 -2.25 1.125 0 0 Z " fill="#70B664" transform="translate(32,102)"/>
<path d="M0 0 C0.33 0 0.66 0 1 0 C1 1.98 1 3.96 1 6 C1.66 6.33 2.32 6.66 3 7 C2.34 7.66 1.68 8.32 1 9 C0.01 8.01 -0.98 7.02 -2 6 C-1.34 4.02 -0.68 2.04 0 0 Z " fill="#517242" transform="translate(93,59)"/>
<path d="M0 0 C0.33 0 0.66 0 1 0 C1 1.98 1 3.96 1 6 C0.01 6.33 -0.98 6.66 -2 7 C-2.125 4.625 -2.125 4.625 -2 2 C-1.34 1.34 -0.68 0.68 0 0 Z " fill="#97DD77" transform="translate(92,37)"/>
</svg>
