<svg width="60" height="61" viewBox="0 0 60 61" fill="none" xmlns="http://www.w3.org/2000/svg">
<rect y="0.490723" width="60" height="60" rx="9" fill="#12B347"/>
<path fill-rule="evenodd" clip-rule="evenodd" d="M26.5646 15.9075H33.4356C36.5065 15.9074 38.9382 15.9074 40.8412 16.1626C42.7992 16.4252 44.3837 16.9784 45.6336 18.2251C47.3495 19.9368 47.7665 22.2939 47.898 25.4207L47.8997 25.461C47.9112 25.7341 47.923 26.0129 47.9127 26.2478C47.9017 26.4976 47.8631 26.8584 47.6636 27.2147C47.5255 27.4614 47.3406 27.6318 47.2175 27.7339C47.0839 27.8445 46.9355 27.9448 46.7941 28.034C46.5212 28.2062 46.1522 28.4122 45.7195 28.6538L45.6877 28.6716C45.0449 29.0306 44.6166 29.7124 44.6166 30.4908C44.6166 31.2692 45.0449 31.951 45.6877 32.31L45.7197 32.3279C46.1522 32.5694 46.5213 32.7755 46.7941 32.9476C46.9355 33.0368 47.0839 33.1371 47.2175 33.2477C47.3406 33.3498 47.5255 33.5202 47.6636 33.7669C47.8631 34.1232 47.9017 34.484 47.9127 34.7338C47.923 34.9687 47.9112 35.2475 47.8997 35.5206L47.898 35.5609C47.7665 38.6877 47.3495 41.0448 45.6336 42.7565C44.3837 44.0032 42.7992 44.5564 40.8412 44.819C38.9382 45.0742 36.5065 45.0742 33.4356 45.0741H26.5646C23.4937 45.0742 21.0619 45.0742 19.1589 44.819C17.2009 44.5564 15.6164 44.0032 14.3666 42.7565C12.6507 41.0448 12.2336 38.6877 12.1021 35.5609L12.1004 35.5206C12.0889 35.2475 12.0771 34.9687 12.0875 34.7338C12.0985 34.484 12.1371 34.1232 12.3366 33.7669C12.4746 33.5202 12.6595 33.3498 12.7827 33.2477C12.9163 33.1371 13.0646 33.0368 13.206 32.9476C13.4789 32.7755 13.848 32.5694 14.2806 32.3278L14.3124 32.31C14.9553 31.951 15.3835 31.2692 15.3835 30.4908C15.3835 29.7124 14.9553 29.0306 14.3124 28.6716L14.2806 28.6538C13.848 28.4122 13.4789 28.2061 13.206 28.034C13.0646 27.9448 12.9163 27.8445 12.7827 27.7339C12.6595 27.6318 12.4746 27.4614 12.3366 27.2148C12.1371 26.8584 12.0985 26.4976 12.0875 26.2478C12.0771 26.0129 12.0889 25.7341 12.1004 25.4611C12.101 25.4476 12.1016 25.4342 12.1021 25.4207C12.2336 22.2939 12.6507 19.9368 14.3666 18.2251C15.6164 16.9784 17.2009 16.4252 19.1589 16.1626C21.0619 15.9074 23.4937 15.9074 26.5646 15.9075ZM45.4115 34.7978C45.4115 34.7978 45.4118 34.7995 45.4123 34.8034L45.4115 34.7978ZM45.4155 35.0341C45.4153 35.045 45.4151 35.0564 45.4147 35.0682C45.412 35.1748 45.4068 35.2987 45.4002 35.4558C45.2702 38.5492 44.8476 40.0093 43.868 40.9865C43.1603 41.6924 42.1908 42.1156 40.5089 42.3412C38.7914 42.5715 36.5275 42.5741 33.3417 42.5741H26.6584C23.4727 42.5741 21.2088 42.5715 19.4912 42.3412C17.8093 42.1156 16.8398 41.6924 16.1322 40.9865C15.1525 40.0093 14.73 38.5492 14.5999 35.4558C14.5933 35.2987 14.5882 35.1748 14.5854 35.0682C14.5851 35.0564 14.5848 35.045 14.5846 35.0341C14.7924 34.9058 15.0908 34.7388 15.5313 34.4927C16.9311 33.7111 17.8835 32.2135 17.8835 30.4908C17.8835 28.7681 16.9311 27.2705 15.5313 26.4889C15.0908 26.2429 14.7924 26.0758 14.5846 25.9475C14.5848 25.9366 14.5851 25.9252 14.5854 25.9134C14.5882 25.8068 14.5933 25.6829 14.5999 25.5258C14.73 22.4324 15.1525 20.9723 16.1322 19.9951C16.8398 19.2892 17.8093 18.866 19.4912 18.6405C21.2088 18.4101 23.4727 18.4075 26.6584 18.4075H33.3417C36.5275 18.4075 38.7914 18.4101 40.5089 18.6405C42.1908 18.866 43.1603 19.2892 43.868 19.9951C44.8476 20.9723 45.2702 22.4324 45.4002 25.5258C45.4068 25.6829 45.412 25.8068 45.4147 25.9134C45.4151 25.9252 45.4153 25.9366 45.4155 25.9475C45.2078 26.0758 44.9094 26.2429 44.4688 26.4889C43.0691 27.2705 42.1166 28.7681 42.1166 30.4908C42.1166 32.2135 43.0691 33.7111 44.4688 34.4927C44.9094 34.7388 45.2078 34.9058 45.4155 35.0341ZM45.6226 25.8087L45.6207 25.8102C45.6278 25.8038 45.6291 25.8033 45.6226 25.8087ZM45.4115 26.1838C45.4115 26.1838 45.4117 26.1818 45.4123 26.1783L45.4115 26.1838ZM14.3775 25.8087C14.371 25.8033 14.3724 25.8038 14.3794 25.8102L14.3775 25.8087ZM14.5879 26.1783C14.5885 26.1818 14.5886 26.1838 14.5886 26.1838L14.5879 26.1783ZM14.5886 34.7978C14.5886 34.7978 14.5885 34.7998 14.5879 34.8033L14.5886 34.7978ZM14.3794 35.1714C14.3724 35.1778 14.371 35.1783 14.3775 35.1729L14.3794 35.1714ZM45.6207 35.1714L45.6226 35.1729C45.6291 35.1783 45.6278 35.1778 45.6207 35.1714ZM35.884 24.6069C36.3721 25.0951 36.3721 25.8865 35.884 26.3747L25.884 36.3747C25.3958 36.8628 24.6043 36.8628 24.1162 36.3747C23.628 35.8865 23.628 35.0951 24.1162 34.6069L34.1162 24.6069C34.6043 24.1188 35.3958 24.1188 35.884 24.6069Z" fill="#F5F5F5"/>
<path d="M35.8334 34.6575C35.8334 35.5779 35.0872 36.3241 34.1667 36.3241C33.2463 36.3241 32.5001 35.5779 32.5001 34.6575C32.5001 33.737 33.2463 32.9908 34.1667 32.9908C35.0872 32.9908 35.8334 33.737 35.8334 34.6575Z" fill="#F5F5F5"/>
<path d="M27.5001 26.3241C27.5001 27.2446 26.7539 27.9908 25.8334 27.9908C24.9129 27.9908 24.1667 27.2446 24.1667 26.3241C24.1667 25.4037 24.9129 24.6575 25.8334 24.6575C26.7539 24.6575 27.5001 25.4037 27.5001 26.3241Z" fill="#F5F5F5"/>
</svg>
