<svg width="60" height="61" viewBox="0 0 60 61" fill="none" xmlns="http://www.w3.org/2000/svg">
<rect y="0.490723" width="60" height="60" rx="9" fill="#12B347"/>
<path fill-rule="evenodd" clip-rule="evenodd" d="M29.9998 12.574C25.6276 12.574 22.0832 16.1184 22.0832 20.4906C22.0832 24.8629 25.6276 28.4073 29.9998 28.4073C34.3721 28.4073 37.9165 24.8629 37.9165 20.4906C37.9165 16.1184 34.3721 12.574 29.9998 12.574ZM24.5832 20.4906C24.5832 17.4991 27.0083 15.074 29.9998 15.074C32.9914 15.074 35.4165 17.4991 35.4165 20.4906C35.4165 23.4822 32.9914 25.9073 29.9998 25.9073C27.0083 25.9073 24.5832 23.4822 24.5832 20.4906Z" fill="#F5F5F5"/>
<path d="M39.9998 15.9073C39.3095 15.9073 38.7498 16.467 38.7498 17.1573C38.7498 17.8477 39.3095 18.4073 39.9998 18.4073C42.294 18.4073 43.7498 19.9169 43.7498 21.324C43.7498 22.7311 42.294 24.2406 39.9998 24.2406C39.3095 24.2406 38.7498 24.8003 38.7498 25.4906C38.7498 26.181 39.3095 26.7406 39.9998 26.7406C43.2285 26.7406 46.2498 24.5192 46.2498 21.324C46.2498 18.1287 43.2285 15.9073 39.9998 15.9073Z" fill="#F5F5F5"/>
<path d="M21.2498 17.1573C21.2498 16.467 20.6902 15.9073 19.9998 15.9073C16.7711 15.9073 13.7498 18.1287 13.7498 21.324C13.7498 24.5192 16.7711 26.7406 19.9998 26.7406C20.6902 26.7406 21.2498 26.181 21.2498 25.4906C21.2498 24.8003 20.6902 24.2406 19.9998 24.2406C17.7057 24.2406 16.2498 22.7311 16.2498 21.324C16.2498 19.9169 17.7057 18.4073 19.9998 18.4073C20.6902 18.4073 21.2498 17.8477 21.2498 17.1573Z" fill="#F5F5F5"/>
<path fill-rule="evenodd" clip-rule="evenodd" d="M29.9998 30.9073C27.0261 30.9073 24.2773 31.7086 22.2354 33.0699C20.2023 34.4253 18.7498 36.435 18.7498 38.824C18.7498 41.2129 20.2023 43.2227 22.2354 44.5781C24.2773 45.9393 27.0261 46.7406 29.9998 46.7406C32.9736 46.7406 35.7224 45.9393 37.7643 44.5781C39.7974 43.2227 41.2498 41.2129 41.2498 38.824C41.2498 36.435 39.7974 34.4253 37.7643 33.0699C35.7224 31.7086 32.9736 30.9073 29.9998 30.9073ZM21.2498 38.824C21.2498 37.531 22.036 36.2074 23.6221 35.15C25.1996 34.0984 27.4508 33.4073 29.9998 33.4073C32.5489 33.4073 34.8001 34.0984 36.3775 35.15C37.9637 36.2074 38.7498 37.531 38.7498 38.824C38.7498 40.1169 37.9637 41.4405 36.3775 42.498C34.8001 43.5496 32.5489 44.2406 29.9998 44.2406C27.4508 44.2406 25.1996 43.5496 23.6221 42.498C22.036 41.4405 21.2498 40.1169 21.2498 38.824Z" fill="#F5F5F5"/>
<path d="M42.1122 33.5562C42.2601 32.8819 42.9266 32.4551 43.6009 32.603C45.2041 32.9545 46.6487 33.5896 47.7212 34.4672C48.7928 35.344 49.5832 36.5494 49.5832 37.9906C49.5832 39.4319 48.7928 40.6373 47.7212 41.5141C46.6487 42.3917 45.2041 43.0267 43.6009 43.3783C42.9266 43.5262 42.2601 43.0994 42.1122 42.4251C41.9643 41.7507 42.3911 41.0842 43.0654 40.9363C44.386 40.6467 45.4414 40.1493 46.138 39.5793C46.8355 39.0086 47.0832 38.4511 47.0832 37.9906C47.0832 37.5301 46.8355 36.9727 46.138 36.402C45.4414 35.832 44.386 35.3346 43.0654 35.045C42.3911 34.8971 41.9643 34.2306 42.1122 33.5562Z" fill="#F5F5F5"/>
<path d="M16.3987 32.603C17.0731 32.4551 17.7396 32.8819 17.8875 33.5562C18.0354 34.2306 17.6086 34.8971 16.9343 35.045C15.6137 35.3346 14.5583 35.832 13.8617 36.402C13.1642 36.9727 12.9165 37.5301 12.9165 37.9906C12.9165 38.4511 13.1642 39.0086 13.8617 39.5793C14.5583 40.1493 15.6137 40.6467 16.9343 40.9363C17.6086 41.0842 18.0354 41.7507 17.8875 42.4251C17.7396 43.0994 17.0731 43.5262 16.3987 43.3783C14.7956 43.0267 13.351 42.3917 12.2785 41.5141C11.2069 40.6373 10.4165 39.4319 10.4165 37.9906C10.4165 36.5494 11.2069 35.344 12.2785 34.4672C13.351 33.5896 14.7956 32.9545 16.3987 32.603Z" fill="#F5F5F5"/>
</svg>
