<svg width="1418" height="887" viewBox="0 0 1418 887" fill="none" xmlns="http://www.w3.org/2000/svg">
<mask id="path-1-inside-1_33_1410" fill="white">
<path d="M708.999 -98.8737L710.521 169.927C710.971 249.567 812.679 282.613 859.854 218.449L1019.08 1.87823L862.315 220.237C815.869 284.931 878.728 371.449 954.608 347.268L1210.72 265.65L955.548 350.161C879.946 375.2 879.946 482.141 955.549 507.179L1210.72 591.69L954.608 510.073C878.728 485.892 815.869 572.409 862.315 637.104L1019.08 855.462L859.854 638.892C812.679 574.727 710.971 607.774 710.521 687.413L708.999 956.214L707.478 687.413C707.028 607.774 605.32 574.727 558.145 638.892L398.917 855.462L555.684 637.103C602.13 572.409 539.271 485.892 463.39 510.073L207.275 591.69L462.45 507.179C538.052 482.141 538.052 375.2 462.45 350.161L207.275 265.65L463.391 347.268C539.271 371.449 602.13 284.931 555.684 220.237L398.917 1.87823L558.145 218.449C605.32 282.613 707.028 249.566 707.478 169.927L708.999 -98.8737Z"/>
</mask>
<g clip-path="url(#paint0_diamond_33_1410_clip_path)" data-figma-skip-parse="true" mask="url(#path-1-inside-1_33_1410)"><g transform="matrix(0 0.527544 -0.501724 0 708.999 428.67)"><rect x="0" y="0" width="1001.9" height="1001.99" fill="url(#paint0_diamond_33_1410)" opacity="1" shape-rendering="crispEdges"/><rect x="0" y="0" width="1001.9" height="1001.99" transform="scale(1 -1)" fill="url(#paint0_diamond_33_1410)" opacity="1" shape-rendering="crispEdges"/><rect x="0" y="0" width="1001.9" height="1001.99" transform="scale(-1 1)" fill="url(#paint0_diamond_33_1410)" opacity="1" shape-rendering="crispEdges"/><rect x="0" y="0" width="1001.9" height="1001.99" transform="scale(-1)" fill="url(#paint0_diamond_33_1410)" opacity="1" shape-rendering="crispEdges"/></g></g><path d="M708.999 -98.8737L709.999 -98.8793L707.999 -98.8793L708.999 -98.8737ZM1019.08 1.87823L1019.89 2.46143L1018.28 1.28587L1019.08 1.87823ZM1210.72 265.65L1211.04 266.599L1210.42 264.697L1210.72 265.65ZM1210.72 591.69L1210.42 592.643L1211.04 590.741L1210.72 591.69ZM1019.08 855.462L1018.28 856.055L1019.89 854.879L1019.08 855.462ZM708.999 956.214L707.999 956.22H709.999L708.999 956.214ZM398.917 855.462L398.105 854.879L399.723 856.055L398.917 855.462ZM207.275 591.69L206.961 590.741L207.579 592.643L207.275 591.69ZM207.275 265.65L207.579 264.697L206.961 266.599L207.275 265.65ZM398.917 1.87823L399.723 1.28587L398.105 2.46143L398.917 1.87823ZM558.145 218.449L557.339 219.041L558.145 218.449ZM707.478 169.927L708.478 169.933L707.478 169.927ZM463.391 347.268L463.694 346.315L463.391 347.268ZM555.684 220.237L554.871 220.82L555.684 220.237ZM462.45 507.179L462.136 506.23L462.45 507.179ZM462.45 350.161L462.765 349.212L462.45 350.161ZM555.684 637.103L556.496 637.687L555.684 637.103ZM463.39 510.073L463.087 509.12L463.39 510.073ZM707.478 687.413L706.478 687.419L707.478 687.413ZM558.145 638.892L558.951 639.484L558.145 638.892ZM859.854 638.892L859.048 639.484L859.854 638.892ZM710.521 687.413L709.521 687.408L710.521 687.413ZM954.608 510.073L954.912 509.12L954.608 510.073ZM862.315 637.104L861.503 637.687L862.315 637.104ZM955.548 350.161L955.863 351.11L955.548 350.161ZM955.549 507.179L955.863 506.23L955.549 507.179ZM862.315 220.237L861.503 219.654L862.315 220.237ZM954.608 347.268L954.305 346.315L954.608 347.268ZM710.521 169.927L711.521 169.922L710.521 169.927ZM859.854 218.449L859.048 217.856L859.854 218.449ZM707.999 -98.868L709.521 169.933L711.521 169.922L709.999 -98.8793L707.999 -98.868ZM860.66 219.041L1019.89 2.47058L1018.28 1.28587L859.048 217.856L860.66 219.041ZM1018.27 1.29503L861.503 219.654L863.128 220.82L1019.89 2.46143L1018.27 1.29503ZM954.912 348.22L1211.03 266.603L1210.42 264.697L954.305 346.315L954.912 348.22ZM1210.41 264.701L955.234 349.212L955.863 351.11L1211.04 266.599L1210.41 264.701ZM955.234 508.129L1210.41 592.64L1211.04 590.741L955.863 506.23L955.234 508.129ZM1211.03 590.738L954.912 509.12L954.305 511.026L1210.42 592.643L1211.03 590.738ZM861.503 637.687L1018.27 856.046L1019.89 854.879L863.128 636.52L861.503 637.687ZM1019.89 854.87L860.66 638.299L859.048 639.484L1018.28 856.055L1019.89 854.87ZM709.521 687.408L707.999 956.208L709.999 956.22L711.521 687.419L709.521 687.408ZM709.999 956.208L708.478 687.407L706.478 687.419L707.999 956.22L709.999 956.208ZM557.339 638.299L398.111 854.87L399.723 856.055L558.951 639.484L557.339 638.299ZM399.729 856.046L556.496 637.687L554.871 636.52L398.105 854.879L399.729 856.046ZM463.087 509.12L206.972 590.738L207.579 592.643L463.694 511.026L463.087 509.12ZM207.59 592.64L462.765 508.129L462.136 506.23L206.961 590.741L207.59 592.64ZM462.765 349.212L207.59 264.701L206.961 266.599L462.136 351.11L462.765 349.212ZM206.972 266.603L463.087 348.22L463.694 346.315L207.579 264.697L206.972 266.603ZM556.496 219.654L399.729 1.29503L398.105 2.46143L554.871 220.82L556.496 219.654ZM398.111 2.47058L557.339 219.041L558.951 217.856L399.723 1.28587L398.111 2.47058ZM708.478 169.933L709.999 -98.868L707.999 -98.8793L706.478 169.922L708.478 169.933ZM557.339 219.041C605.085 283.982 708.022 250.535 708.478 169.933L706.478 169.922C706.033 248.598 605.556 281.245 558.951 217.856L557.339 219.041ZM463.087 348.22C539.885 372.694 603.504 285.13 556.496 219.654L554.871 220.82C600.756 284.732 538.657 370.204 463.694 346.315L463.087 348.22ZM462.765 508.129C539.281 482.787 539.281 374.553 462.765 349.212L462.136 351.11C536.824 375.846 536.824 481.494 462.136 506.23L462.765 508.129ZM556.496 637.687C603.504 572.21 539.885 484.647 463.087 509.12L463.694 511.026C538.657 487.137 600.756 572.608 554.871 636.52L556.496 637.687ZM708.478 687.407C708.022 606.805 605.085 573.359 557.339 638.299L558.951 639.484C605.555 576.095 706.033 608.742 706.478 687.419L708.478 687.407ZM860.66 638.299C812.914 573.359 709.977 606.805 709.521 687.408L711.521 687.419C711.966 608.743 812.443 576.095 859.048 639.484L860.66 638.299ZM954.912 509.12C878.114 484.647 814.495 572.21 861.503 637.687L863.128 636.52C817.243 572.608 879.342 487.137 954.305 511.026L954.912 509.12ZM955.234 349.212C878.718 374.553 878.718 482.788 955.234 508.129L955.863 506.23C881.175 481.494 881.175 375.846 955.863 351.11L955.234 349.212ZM861.503 219.654C814.495 285.131 878.114 372.694 954.912 348.22L954.305 346.315C879.342 370.204 817.243 284.732 863.128 220.82L861.503 219.654ZM709.521 169.933C709.977 250.535 812.914 283.981 860.66 219.041L859.048 217.856C812.443 281.245 711.966 248.598 711.521 169.922L709.521 169.933Z" data-figma-gradient-fill="{&#34;type&#34;:&#34;GRADIENT_DIAMOND&#34;,&#34;stops&#34;:[{&#34;color&#34;:{&#34;r&#34;:1.0,&#34;g&#34;:0.68333333730697632,&#34;b&#34;:0.0,&#34;a&#34;:1.0},&#34;position&#34;:0.33854165673255920},{&#34;color&#34;:{&#34;r&#34;:0.0,&#34;g&#34;:0.0,&#34;b&#34;:0.0,&#34;a&#34;:1.0},&#34;position&#34;:0.80208331346511841},{&#34;color&#34;:{&#34;r&#34;:1.0,&#34;g&#34;:1.0,&#34;b&#34;:1.0,&#34;a&#34;:1.0},&#34;position&#34;:1.0}],&#34;stopsVar&#34;:[{&#34;color&#34;:{&#34;r&#34;:1.0,&#34;g&#34;:0.68333333730697632,&#34;b&#34;:0.0,&#34;a&#34;:1.0},&#34;position&#34;:0.33854165673255920},{&#34;color&#34;:{&#34;r&#34;:0.0,&#34;g&#34;:0.0,&#34;b&#34;:0.0,&#34;a&#34;:1.0},&#34;position&#34;:0.80208331346511841},{&#34;color&#34;:{&#34;r&#34;:1.0,&#34;g&#34;:1.0,&#34;b&#34;:1.0,&#34;a&#34;:1.0},&#34;position&#34;:1.0}],&#34;transform&#34;:{&#34;m00&#34;:6.1443478614493091e-14,&#34;m01&#34;:-1003.4480590820312,&#34;m02&#34;:1210.7233886718750,&#34;m10&#34;:1055.0878906250,&#34;m11&#34;:6.4605500040438441e-14,&#34;m12&#34;:-98.873687744140625},&#34;opacity&#34;:1.0,&#34;blendMode&#34;:&#34;NORMAL&#34;,&#34;visible&#34;:true}" mask="url(#path-1-inside-1_33_1410)"/>
<mask id="path-3-inside-2_33_1410" fill="white">
<path d="M709 -316.816L711.15 63.0339C711.787 175.574 855.512 222.273 922.177 131.601L1147.19 -174.441L925.655 134.128C860.021 225.549 948.848 347.809 1056.08 313.638L1418 198.302L1057.41 317.727C950.57 353.11 950.57 504.231 1057.41 539.614L1418 659.039L1056.08 543.703C948.848 509.532 860.021 631.792 925.655 723.213L1147.19 1031.78L922.177 725.74C855.512 635.067 711.787 681.767 711.15 794.307L709 1174.16L706.85 794.307C706.214 681.767 562.488 635.068 495.823 725.74L270.814 1031.78L492.345 723.213C557.98 631.792 469.152 509.532 361.923 543.703L0 659.039L360.595 539.614C467.43 504.231 467.43 353.109 360.595 317.727L0 198.302L361.923 313.638C469.152 347.809 557.979 225.549 492.345 134.128L270.814 -174.441L495.823 131.601C562.488 222.273 706.214 175.574 706.85 63.0337L709 -316.816Z"/>
</mask>
<g clip-path="url(#paint1_diamond_33_1410_clip_path)" data-figma-skip-parse="true" mask="url(#path-3-inside-2_33_1410)"><g transform="matrix(0 0.745487 -0.709 0 709 428.67)"><rect x="0" y="0" width="1001.34" height="1001.41" fill="url(#paint1_diamond_33_1410)" opacity="1" shape-rendering="crispEdges"/><rect x="0" y="0" width="1001.34" height="1001.41" transform="scale(1 -1)" fill="url(#paint1_diamond_33_1410)" opacity="1" shape-rendering="crispEdges"/><rect x="0" y="0" width="1001.34" height="1001.41" transform="scale(-1 1)" fill="url(#paint1_diamond_33_1410)" opacity="1" shape-rendering="crispEdges"/><rect x="0" y="0" width="1001.34" height="1001.41" transform="scale(-1)" fill="url(#paint1_diamond_33_1410)" opacity="1" shape-rendering="crispEdges"/></g></g><path d="M709 -316.816L710 -316.822L708 -316.822L709 -316.816ZM1147.19 -174.441L1148 -173.858L1146.38 -175.033L1147.19 -174.441ZM1418 198.302L1418.31 199.252L1417.7 197.349L1418 198.302ZM1418 659.039L1417.7 659.991L1418.31 658.089L1418 659.039ZM1147.19 1031.78L1146.38 1032.37L1148 1031.2L1147.19 1031.78ZM709 1174.16L708 1174.16H710L709 1174.16ZM270.814 1031.78L270.002 1031.2L271.62 1032.37L270.814 1031.78ZM0 659.039L-0.314394 658.089L0.30363 659.991L0 659.039ZM0 198.302L0.30363 197.349L-0.314394 199.252L0 198.302ZM270.814 -174.441L271.62 -175.033L270.002 -173.858L270.814 -174.441ZM495.823 131.601L495.018 132.193L495.823 131.601ZM706.85 63.0337L707.85 63.0393L706.85 63.0337ZM361.923 313.638L362.227 312.685L361.923 313.638ZM492.345 134.128L491.533 134.711L492.345 134.128ZM360.595 539.614L360.28 538.665L360.595 539.614ZM360.595 317.727L360.909 316.778L360.595 317.727ZM492.345 723.213L493.158 723.796L492.345 723.213ZM361.923 543.703L361.62 542.75L361.923 543.703ZM706.85 794.307L705.85 794.312L706.85 794.307ZM495.823 725.74L496.629 726.333L495.823 725.74ZM922.177 725.74L921.371 726.332L922.177 725.74ZM711.15 794.307L710.15 794.301L711.15 794.307ZM1056.08 543.703L1056.38 542.75L1056.08 543.703ZM925.655 723.213L924.843 723.796L925.655 723.213ZM1057.41 317.727L1057.72 318.676L1057.41 317.727ZM1057.41 539.614L1057.72 538.665L1057.41 539.614ZM925.655 134.128L924.843 133.545L925.655 134.128ZM1056.08 313.638L1055.77 312.685L1056.08 313.638ZM711.15 63.0339L712.15 63.0282L711.15 63.0339ZM922.177 131.601L921.371 131.008L922.177 131.601ZM708 -316.811L710.15 63.0396L712.15 63.0282L710 -316.822L708 -316.811ZM922.982 132.193L1147.99 -173.849L1146.38 -175.033L921.371 131.008L922.982 132.193ZM1146.37 -175.024L924.843 133.545L926.467 134.711L1148 -173.858L1146.37 -175.024ZM1056.38 314.591L1418.3 199.255L1417.7 197.349L1055.77 312.685L1056.38 314.591ZM1417.69 197.353L1057.09 316.778L1057.72 318.676L1418.31 199.252L1417.69 197.353ZM1057.09 540.563L1417.69 659.988L1418.31 658.089L1057.72 538.665L1057.09 540.563ZM1418.3 658.086L1056.38 542.75L1055.77 544.656L1417.7 659.991L1418.3 658.086ZM924.843 723.796L1146.37 1032.37L1148 1031.2L926.467 722.63L924.843 723.796ZM1147.99 1031.19L922.982 725.148L921.371 726.332L1146.38 1032.37L1147.99 1031.19ZM710.15 794.301L708 1174.15L710 1174.16L712.15 794.313L710.15 794.301ZM710 1174.15L707.85 794.301L705.85 794.312L708 1174.16L710 1174.15ZM495.018 725.148L270.008 1031.19L271.62 1032.37L496.629 726.333L495.018 725.148ZM271.626 1032.37L493.158 723.796L491.533 722.63L270.002 1031.2L271.626 1032.37ZM361.62 542.75L-0.30363 658.086L0.30363 659.991L362.227 544.656L361.62 542.75ZM0.314394 659.988L360.909 540.563L360.28 538.665L-0.314394 658.089L0.314394 659.988ZM360.909 316.778L0.314394 197.353L-0.314394 199.252L360.28 318.676L360.909 316.778ZM-0.30363 199.255L361.62 314.591L362.227 312.685L0.30363 197.349L-0.30363 199.255ZM493.157 133.544L271.626 -175.024L270.002 -173.858L491.533 134.711L493.157 133.544ZM270.008 -173.849L495.018 132.193L496.629 131.008L271.62 -175.033L270.008 -173.849ZM707.85 63.0393L710 -316.811L708 -316.822L705.85 63.028L707.85 63.0393ZM495.018 132.193C562.253 223.642 707.208 176.543 707.85 63.0393L705.85 63.028C705.219 174.605 562.723 220.905 496.629 131.008L495.018 132.193ZM361.62 314.591C469.766 349.054 559.353 225.748 493.157 133.544L491.533 134.711C556.605 225.35 468.538 346.564 362.227 312.685L361.62 314.591ZM360.909 540.563C468.659 504.878 468.659 352.463 360.909 316.778L360.28 318.676C466.202 353.756 466.202 503.585 360.28 538.665L360.909 540.563ZM493.158 723.796C559.353 631.593 469.766 508.286 361.62 542.75L362.227 544.656C468.538 510.777 556.606 631.991 491.533 722.63L493.158 723.796ZM707.85 794.301C707.208 680.798 562.253 633.699 495.018 725.148L496.629 726.333C562.723 636.436 705.219 682.735 705.85 794.312L707.85 794.301ZM922.982 725.148C855.747 633.699 710.792 680.798 710.15 794.301L712.15 794.313C712.781 682.735 855.277 636.436 921.371 726.332L922.982 725.148ZM1056.38 542.75C948.234 508.286 858.647 631.593 924.843 723.796L926.467 722.63C861.395 631.991 949.462 510.777 1055.77 544.656L1056.38 542.75ZM1057.09 316.778C949.341 352.463 949.341 504.878 1057.09 540.563L1057.72 538.665C951.799 503.585 951.798 353.756 1057.72 318.676L1057.09 316.778ZM924.843 133.545C858.647 225.748 948.234 349.054 1056.38 314.591L1055.77 312.685C949.462 346.564 861.395 225.35 926.467 134.711L924.843 133.545ZM710.15 63.0396C710.792 176.543 855.747 223.641 922.982 132.193L921.371 131.008C855.277 220.905 712.781 174.606 712.15 63.0282L710.15 63.0396Z" data-figma-gradient-fill="{&#34;type&#34;:&#34;GRADIENT_DIAMOND&#34;,&#34;stops&#34;:[{&#34;color&#34;:{&#34;r&#34;:1.0,&#34;g&#34;:0.68333333730697632,&#34;b&#34;:0.0,&#34;a&#34;:1.0},&#34;position&#34;:0.33854165673255920},{&#34;color&#34;:{&#34;r&#34;:0.0,&#34;g&#34;:0.0,&#34;b&#34;:0.0,&#34;a&#34;:1.0},&#34;position&#34;:0.80208331346511841},{&#34;color&#34;:{&#34;r&#34;:1.0,&#34;g&#34;:1.0,&#34;b&#34;:1.0,&#34;a&#34;:1.0},&#34;position&#34;:1.0}],&#34;stopsVar&#34;:[{&#34;color&#34;:{&#34;r&#34;:1.0,&#34;g&#34;:0.68333333730697632,&#34;b&#34;:0.0,&#34;a&#34;:1.0},&#34;position&#34;:0.33854165673255920},{&#34;color&#34;:{&#34;r&#34;:0.0,&#34;g&#34;:0.0,&#34;b&#34;:0.0,&#34;a&#34;:1.0},&#34;position&#34;:0.80208331346511841},{&#34;color&#34;:{&#34;r&#34;:1.0,&#34;g&#34;:1.0,&#34;b&#34;:1.0,&#34;a&#34;:1.0},&#34;position&#34;:1.0}],&#34;transform&#34;:{&#34;m00&#34;:8.6827463621763634e-14,&#34;m01&#34;:-1418.0,&#34;m02&#34;:1418.0,&#34;m10&#34;:1490.9735107421875,&#34;m11&#34;:9.1295799587755300e-14,&#34;m12&#34;:-316.816406250},&#34;opacity&#34;:1.0,&#34;blendMode&#34;:&#34;NORMAL&#34;,&#34;visible&#34;:true}" mask="url(#path-3-inside-2_33_1410)"/>
<mask id="path-5-inside-3_33_1410" fill="white">
<path d="M708.999 94.0101L709.964 264.531C710.25 315.052 774.771 336.015 804.698 295.311L905.708 157.925L806.259 296.446C776.795 337.486 816.671 392.37 864.807 377.03L1027.28 325.255L865.404 378.866C817.444 394.75 817.444 462.591 865.404 478.474L1027.28 532.086L864.807 480.31C816.671 464.97 776.795 519.854 806.259 560.895L905.708 699.416L804.698 562.029C774.771 521.325 710.25 542.289 709.964 592.81L708.999 763.33L708.034 592.81C707.748 542.289 643.228 521.325 613.301 562.029L512.291 699.416L611.74 560.895C641.204 519.854 601.328 464.97 553.191 480.31L390.719 532.086L552.595 478.474C600.555 462.591 600.555 394.75 552.595 378.866L390.719 325.255L553.192 377.031C601.328 392.37 641.204 337.486 611.74 296.446L512.291 157.925L613.301 295.311C643.228 336.016 707.749 315.051 708.034 264.53L708.999 94.0101Z"/>
</mask>
<g clip-path="url(#paint2_diamond_33_1410_clip_path)" data-figma-skip-parse="true" mask="url(#path-5-inside-3_33_1410)"><g transform="matrix(0 0.33466 -0.318281 0 708.999 428.67)"><rect x="0" y="0" width="1002.99" height="1003.14" fill="url(#paint2_diamond_33_1410)" opacity="1" shape-rendering="crispEdges"/><rect x="0" y="0" width="1002.99" height="1003.14" transform="scale(1 -1)" fill="url(#paint2_diamond_33_1410)" opacity="1" shape-rendering="crispEdges"/><rect x="0" y="0" width="1002.99" height="1003.14" transform="scale(-1 1)" fill="url(#paint2_diamond_33_1410)" opacity="1" shape-rendering="crispEdges"/><rect x="0" y="0" width="1002.99" height="1003.14" transform="scale(-1)" fill="url(#paint2_diamond_33_1410)" opacity="1" shape-rendering="crispEdges"/></g></g><path d="M708.999 94.0101L709.999 94.0045L707.999 94.0045L708.999 94.0101ZM905.708 157.925L906.52 158.508L904.902 157.332L905.708 157.925ZM1027.28 325.255L1027.59 326.204L1026.98 324.302L1027.28 325.255ZM1027.28 532.086L1026.98 533.039L1027.59 531.137L1027.28 532.086ZM905.708 699.416L904.902 700.008L906.52 698.833L905.708 699.416ZM708.999 763.33L707.999 763.336H709.999L708.999 763.33ZM512.291 699.416L511.479 698.833L513.097 700.008L512.291 699.416ZM390.719 532.086L390.404 531.137L391.022 533.039L390.719 532.086ZM390.719 325.255L391.022 324.302L390.404 326.204L390.719 325.255ZM512.291 157.925L513.097 157.332L511.479 158.508L512.291 157.925ZM613.301 295.311L612.496 295.904L613.301 295.311ZM708.034 264.53L709.034 264.536L708.034 264.53ZM553.192 377.031L553.495 376.078L553.192 377.031ZM611.74 296.446L610.927 297.029L611.74 296.446ZM552.595 478.474L552.281 477.525L552.595 478.474ZM552.595 378.866L552.909 377.917L552.595 378.866ZM611.74 560.895L612.552 561.478L611.74 560.895ZM553.191 480.31L552.888 479.357L553.191 480.31ZM708.034 592.81L707.034 592.816L708.034 592.81ZM613.301 562.029L614.107 562.622L613.301 562.029ZM804.698 562.029L803.892 562.622L804.698 562.029ZM709.964 592.81L708.964 592.804L709.964 592.81ZM864.807 480.31L865.111 479.357L864.807 480.31ZM806.259 560.895L805.447 561.478L806.259 560.895ZM865.404 378.866L865.718 379.815L865.404 378.866ZM865.404 478.474L865.718 477.525L865.404 478.474ZM806.259 296.446L805.447 295.863L806.259 296.446ZM864.807 377.03L864.504 376.078L864.807 377.03ZM709.964 264.531L710.964 264.525L709.964 264.531ZM804.698 295.311L803.892 294.719L804.698 295.311ZM707.999 94.0158L708.964 264.536L710.964 264.525L709.999 94.0045L707.999 94.0158ZM805.503 295.904L906.513 158.517L904.902 157.332L803.892 294.719L805.503 295.904ZM904.895 157.341L805.447 295.863L807.071 297.029L906.52 158.508L904.895 157.341ZM865.111 377.983L1027.58 326.207L1026.98 324.302L864.504 376.078L865.111 377.983ZM1026.97 324.305L865.089 377.917L865.718 379.815L1027.59 326.204L1026.97 324.305ZM865.089 479.424L1026.97 533.035L1027.59 531.137L865.718 477.525L865.089 479.424ZM1027.58 531.133L865.111 479.357L864.504 481.263L1026.98 533.039L1027.58 531.133ZM805.447 561.478L904.895 699.999L906.52 698.833L807.071 560.312L805.447 561.478ZM906.513 698.824L805.503 561.437L803.892 562.622L904.902 700.008L906.513 698.824ZM708.964 592.804L707.999 763.325L709.999 763.336L710.964 592.816L708.964 592.804ZM709.999 763.325L709.034 592.804L707.034 592.816L707.999 763.336L709.999 763.325ZM612.496 561.437L511.485 698.824L513.097 700.008L614.107 562.622L612.496 561.437ZM513.103 699.999L612.552 561.478L610.928 560.312L511.479 698.833L513.103 699.999ZM552.888 479.357L390.415 531.133L391.022 533.039L553.495 481.263L552.888 479.357ZM391.033 533.035L552.91 479.424L552.281 477.525L390.404 531.137L391.033 533.035ZM552.909 377.917L391.033 324.305L390.404 326.204L552.281 379.815L552.909 377.917ZM390.415 326.207L552.888 377.983L553.495 376.078L391.022 324.302L390.415 326.207ZM612.552 295.862L513.103 157.341L511.479 158.508L610.927 297.029L612.552 295.862ZM511.485 158.517L612.496 295.904L614.107 294.719L513.097 157.332L511.485 158.517ZM709.034 264.536L709.999 94.0158L707.999 94.0045L707.034 264.525L709.034 264.536ZM612.496 295.904C642.993 337.384 708.743 316.02 709.034 264.536L707.034 264.525C706.754 314.083 643.463 334.647 614.107 294.719L612.496 295.904ZM552.888 377.983C601.942 393.616 642.578 337.685 612.552 295.862L610.927 297.029C639.83 337.287 600.714 391.125 553.495 376.078L552.888 377.983ZM552.91 479.424C601.784 463.237 601.784 394.103 552.909 377.917L552.281 379.815C599.327 395.396 599.327 461.944 552.281 477.525L552.91 479.424ZM612.552 561.478C642.578 519.655 601.942 463.725 552.888 479.357L553.495 481.263C600.714 466.215 639.83 520.053 610.928 560.312L612.552 561.478ZM709.034 592.804C708.743 541.32 642.993 519.957 612.496 561.437L614.107 562.622C643.463 522.693 706.754 543.258 707.034 592.816L709.034 592.804ZM805.503 561.437C775.006 519.957 709.256 541.32 708.964 592.804L710.964 592.816C711.245 543.258 774.536 522.693 803.892 562.622L805.503 561.437ZM865.111 479.357C816.057 463.725 775.421 519.655 805.447 561.478L807.071 560.312C778.169 520.054 817.285 466.215 864.504 481.263L865.111 479.357ZM865.089 377.917C816.215 394.103 816.215 463.237 865.089 479.424L865.718 477.525C818.672 461.944 818.672 395.396 865.718 379.815L865.089 377.917ZM805.447 295.863C775.421 337.685 816.057 393.616 865.111 377.983L864.504 376.078C817.285 391.125 778.169 337.287 807.071 297.029L805.447 295.863ZM708.964 264.536C709.256 316.02 775.006 337.384 805.503 295.904L803.892 294.719C774.536 334.647 711.245 314.083 710.964 264.525L708.964 264.536Z" data-figma-gradient-fill="{&#34;type&#34;:&#34;GRADIENT_DIAMOND&#34;,&#34;stops&#34;:[{&#34;color&#34;:{&#34;r&#34;:1.0,&#34;g&#34;:0.68333333730697632,&#34;b&#34;:0.0,&#34;a&#34;:1.0},&#34;position&#34;:0.33854165673255920},{&#34;color&#34;:{&#34;r&#34;:0.0,&#34;g&#34;:0.0,&#34;b&#34;:0.0,&#34;a&#34;:1.0},&#34;position&#34;:0.80208331346511841},{&#34;color&#34;:{&#34;r&#34;:1.0,&#34;g&#34;:1.0,&#34;b&#34;:1.0,&#34;a&#34;:1.0},&#34;position&#34;:1.0}],&#34;stopsVar&#34;:[{&#34;color&#34;:{&#34;r&#34;:1.0,&#34;g&#34;:0.68333333730697632,&#34;b&#34;:0.0,&#34;a&#34;:1.0},&#34;position&#34;:0.33854165673255920},{&#34;color&#34;:{&#34;r&#34;:0.0,&#34;g&#34;:0.0,&#34;b&#34;:0.0,&#34;a&#34;:1.0},&#34;position&#34;:0.80208331346511841},{&#34;color&#34;:{&#34;r&#34;:1.0,&#34;g&#34;:1.0,&#34;b&#34;:1.0,&#34;a&#34;:1.0},&#34;position&#34;:1.0}],&#34;transform&#34;:{&#34;m00&#34;:3.8978138750499214e-14,&#34;m01&#34;:-636.5612792968750,&#34;m02&#34;:1027.2800292968750,&#34;m10&#34;:669.32019042968750,&#34;m11&#34;:4.0984044906737169e-14,&#34;m12&#34;:94.01013183593750},&#34;opacity&#34;:1.0,&#34;blendMode&#34;:&#34;NORMAL&#34;,&#34;visible&#34;:true}" mask="url(#path-5-inside-3_33_1410)"/>
<mask id="path-7-inside-4_33_1410" fill="white">
<path d="M709 215.226L709.615 323.983C709.798 356.205 750.949 369.576 770.036 343.615L834.459 255.99L771.032 344.338C752.239 370.514 777.672 405.519 808.373 395.735L911.998 362.712L808.754 396.906C778.165 407.036 778.165 450.305 808.754 460.435L911.998 494.629L808.373 461.606C777.672 451.822 752.239 486.827 771.032 513.003L834.459 601.351L770.036 513.726C750.949 487.765 709.798 501.136 709.615 533.358L709 642.115L708.384 533.358C708.202 501.136 667.051 487.765 647.964 513.726L583.54 601.351L646.968 513.003C665.76 486.827 640.328 451.822 609.626 461.606L506.002 494.629L609.246 460.435C639.835 450.305 639.835 407.036 609.246 396.906L506.002 362.712L609.626 395.735C640.328 405.519 665.76 370.514 646.968 344.338L583.54 255.99L647.964 343.615C667.051 369.576 708.202 356.205 708.384 323.983L709 215.226Z"/>
</mask>
<g clip-path="url(#paint3_diamond_33_1410_clip_path)" data-figma-skip-parse="true" mask="url(#path-7-inside-4_33_1410)"><g transform="matrix(0 0.213445 -0.202998 0 709 428.67)"><rect x="0" y="0" width="1004.69" height="1004.93" fill="url(#paint3_diamond_33_1410)" opacity="1" shape-rendering="crispEdges"/><rect x="0" y="0" width="1004.69" height="1004.93" transform="scale(1 -1)" fill="url(#paint3_diamond_33_1410)" opacity="1" shape-rendering="crispEdges"/><rect x="0" y="0" width="1004.69" height="1004.93" transform="scale(-1 1)" fill="url(#paint3_diamond_33_1410)" opacity="1" shape-rendering="crispEdges"/><rect x="0" y="0" width="1004.69" height="1004.93" transform="scale(-1)" fill="url(#paint3_diamond_33_1410)" opacity="1" shape-rendering="crispEdges"/></g></g><path d="M709 215.226L710 215.22L708 215.22L709 215.226ZM834.459 255.99L835.272 256.573L833.654 255.398L834.459 255.99ZM911.998 362.712L912.312 363.662L911.694 361.76L911.998 362.712ZM911.998 494.629L911.694 495.581L912.312 493.679L911.998 494.629ZM834.459 601.351L833.654 601.943L835.272 600.768L834.459 601.351ZM709 642.115L708 642.121H710L709 642.115ZM583.54 601.351L582.728 600.768L584.346 601.943L583.54 601.351ZM506.002 494.629L505.688 493.679L506.306 495.581L506.002 494.629ZM506.002 362.712L506.306 361.76L505.688 363.662L506.002 362.712ZM583.54 255.99L584.346 255.398L582.728 256.573L583.54 255.99ZM647.964 343.615L647.158 344.207L647.964 343.615ZM708.384 323.983L709.384 323.989L708.384 323.983ZM609.626 395.735L609.93 394.782L609.626 395.735ZM646.968 344.338L646.156 344.921L646.968 344.338ZM609.246 460.435L608.932 459.486L609.246 460.435ZM609.246 396.906L609.56 395.956L609.246 396.906ZM646.968 513.003L647.781 513.586L646.968 513.003ZM609.626 461.606L609.323 460.653L609.626 461.606ZM708.384 533.358L707.384 533.364L708.384 533.358ZM647.964 513.726L648.77 514.319L647.964 513.726ZM770.036 513.726L769.23 514.319L770.036 513.726ZM709.615 533.358L708.615 533.352L709.615 533.358ZM808.373 461.606L808.677 460.653L808.373 461.606ZM771.032 513.003L770.219 513.586L771.032 513.003ZM808.754 396.906L809.068 397.855L808.754 396.906ZM808.754 460.435L809.068 459.486L808.754 460.435ZM771.032 344.338L770.219 343.755L771.032 344.338ZM808.373 395.735L808.07 394.782L808.373 395.735ZM709.615 323.983L710.615 323.977L709.615 323.983ZM770.036 343.615L769.23 343.022L770.036 343.615ZM708 215.231L708.615 323.989L710.615 323.977L710 215.22L708 215.231ZM770.841 344.207L835.265 256.582L833.654 255.398L769.23 343.022L770.841 344.207ZM833.647 255.407L770.219 343.755L771.844 344.921L835.272 256.573L833.647 255.407ZM808.677 396.688L912.301 363.665L911.694 361.76L808.07 394.782L808.677 396.688ZM911.683 361.763L808.439 395.956L809.068 397.855L912.312 363.662L911.683 361.763ZM808.439 461.385L911.683 495.578L912.312 493.679L809.068 459.486L808.439 461.385ZM912.301 493.676L808.677 460.653L808.07 462.559L911.694 495.581L912.301 493.676ZM770.219 513.586L833.647 601.934L835.272 600.768L771.844 512.42L770.219 513.586ZM835.265 600.758L770.841 513.134L769.23 514.319L833.654 601.943L835.265 600.758ZM708.615 533.352L708 642.109L710 642.121L710.615 533.364L708.615 533.352ZM710 642.109L709.384 533.352L707.384 533.364L708 642.121L710 642.109ZM647.158 513.134L582.735 600.758L584.346 601.943L648.77 514.319L647.158 513.134ZM584.353 601.934L647.781 513.586L646.156 512.419L582.728 600.768L584.353 601.934ZM609.323 460.653L505.698 493.676L506.306 495.581L609.93 462.559L609.323 460.653ZM506.316 495.578L609.56 461.385L608.932 459.486L505.688 493.679L506.316 495.578ZM609.56 395.956L506.316 361.763L505.688 363.662L608.932 397.855L609.56 395.956ZM505.698 363.665L609.323 396.688L609.93 394.782L506.306 361.76L505.698 363.665ZM647.78 343.755L584.353 255.407L582.728 256.573L646.156 344.921L647.78 343.755ZM582.735 256.582L647.158 344.207L648.77 343.022L584.346 255.398L582.735 256.582ZM709.384 323.989L710 215.231L708 215.22L707.384 323.977L709.384 323.989ZM647.158 344.207C666.816 370.944 709.197 357.174 709.384 323.989L707.384 323.977C707.208 355.236 667.286 368.208 648.77 343.022L647.158 344.207ZM609.323 396.688C640.942 406.764 667.134 370.713 647.78 343.755L646.156 344.921C664.386 370.315 639.714 404.273 609.93 394.782L609.323 396.688ZM609.56 461.385C641.063 450.951 641.063 406.39 609.56 395.956L608.932 397.855C638.606 407.683 638.606 449.658 608.932 459.486L609.56 461.385ZM647.781 513.586C667.134 486.628 640.941 450.577 609.323 460.653L609.93 462.559C639.714 453.067 664.386 487.026 646.156 512.419L647.781 513.586ZM709.384 533.352C709.197 500.167 666.816 486.397 647.158 513.134L648.77 514.319C667.286 489.133 707.207 502.105 707.384 533.364L709.384 533.352ZM770.841 513.134C751.184 486.397 708.803 500.167 708.615 533.352L710.615 533.364C710.792 502.105 750.713 489.133 769.23 514.319L770.841 513.134ZM808.677 460.653C777.058 450.577 750.866 486.628 770.219 513.586L771.844 512.42C753.613 487.026 778.286 453.067 808.07 462.559L808.677 460.653ZM808.439 395.956C776.937 406.39 776.937 450.951 808.439 461.385L809.068 459.486C779.394 449.658 779.394 407.683 809.068 397.855L808.439 395.956ZM770.219 343.755C750.865 370.713 777.058 406.764 808.677 396.688L808.07 394.782C778.286 404.273 753.613 370.315 771.844 344.921L770.219 343.755ZM708.615 323.989C708.803 357.174 751.184 370.944 770.841 344.207L769.23 343.022C750.713 368.208 710.792 355.236 710.615 323.977L708.615 323.989Z" data-figma-gradient-fill="{&#34;type&#34;:&#34;GRADIENT_DIAMOND&#34;,&#34;stops&#34;:[{&#34;color&#34;:{&#34;r&#34;:1.0,&#34;g&#34;:0.68333333730697632,&#34;b&#34;:0.0,&#34;a&#34;:1.0},&#34;position&#34;:0.33854165673255920},{&#34;color&#34;:{&#34;r&#34;:0.0,&#34;g&#34;:0.0,&#34;b&#34;:0.0,&#34;a&#34;:1.0},&#34;position&#34;:0.80208331346511841},{&#34;color&#34;:{&#34;r&#34;:1.0,&#34;g&#34;:1.0,&#34;b&#34;:1.0,&#34;a&#34;:1.0},&#34;position&#34;:1.0}],&#34;stopsVar&#34;:[{&#34;color&#34;:{&#34;r&#34;:1.0,&#34;g&#34;:0.68333333730697632,&#34;b&#34;:0.0,&#34;a&#34;:1.0},&#34;position&#34;:0.33854165673255920},{&#34;color&#34;:{&#34;r&#34;:0.0,&#34;g&#34;:0.0,&#34;b&#34;:0.0,&#34;a&#34;:1.0},&#34;position&#34;:0.80208331346511841},{&#34;color&#34;:{&#34;r&#34;:1.0,&#34;g&#34;:1.0,&#34;b&#34;:1.0,&#34;a&#34;:1.0},&#34;position&#34;:1.0}],&#34;transform&#34;:{&#34;m00&#34;:2.4860073106537130e-14,&#34;m01&#34;:-405.99578857421875,&#34;m02&#34;:911.99774169921875,&#34;m10&#34;:426.88925170898438,&#34;m11&#34;:2.6139428281938236e-14,&#34;m12&#34;:215.2258300781250},&#34;opacity&#34;:1.0,&#34;blendMode&#34;:&#34;NORMAL&#34;,&#34;visible&#34;:true}" mask="url(#path-7-inside-4_33_1410)"/>
<mask id="path-9-inside-5_33_1410" fill="white">
<path d="M709 304.82L709.357 367.926C709.463 386.623 733.34 394.381 744.416 379.317L781.797 328.473L744.994 379.737C734.089 394.925 748.847 415.237 766.661 409.56L826.789 390.399L766.882 410.239C749.133 416.117 749.133 441.224 766.882 447.102L826.789 466.942L766.661 447.781C748.847 442.104 734.089 462.416 744.994 477.604L781.797 528.868L744.416 478.024C733.34 462.96 709.463 470.718 709.357 489.415L709 552.521L708.643 489.415C708.537 470.718 684.659 462.96 673.584 478.024L636.202 528.868L673.006 477.604C683.91 462.416 669.153 442.104 651.339 447.781L591.211 466.942L651.118 447.102C668.867 441.224 668.867 416.117 651.118 410.239L591.211 390.399L651.339 409.56C669.153 415.237 683.91 394.925 673.006 379.737L636.202 328.473L673.584 379.317C684.659 394.381 708.537 386.623 708.643 367.926L709 304.82Z"/>
</mask>
<g clip-path="url(#paint4_diamond_33_1410_clip_path)" data-figma-skip-parse="true" mask="url(#path-9-inside-5_33_1410)"><g transform="matrix(0 0.123851 -0.117789 0 709 428.67)"><rect x="0" y="0" width="1008.07" height="1008.49" fill="url(#paint4_diamond_33_1410)" opacity="1" shape-rendering="crispEdges"/><rect x="0" y="0" width="1008.07" height="1008.49" transform="scale(1 -1)" fill="url(#paint4_diamond_33_1410)" opacity="1" shape-rendering="crispEdges"/><rect x="0" y="0" width="1008.07" height="1008.49" transform="scale(-1 1)" fill="url(#paint4_diamond_33_1410)" opacity="1" shape-rendering="crispEdges"/><rect x="0" y="0" width="1008.07" height="1008.49" transform="scale(-1)" fill="url(#paint4_diamond_33_1410)" opacity="1" shape-rendering="crispEdges"/></g></g><path d="M709 304.82L710 304.814L708 304.814L709 304.82ZM781.797 328.473L782.61 329.056L780.992 327.881L781.797 328.473ZM826.789 390.399L827.103 391.348L826.485 389.446L826.789 390.399ZM826.789 466.942L826.485 467.895L827.103 465.993L826.789 466.942ZM781.797 528.868L780.992 529.46L782.61 528.285L781.797 528.868ZM709 552.521L708 552.527H710L709 552.521ZM636.202 528.868L635.39 528.285L637.008 529.46L636.202 528.868ZM591.211 466.942L590.897 465.993L591.515 467.895L591.211 466.942ZM591.211 390.399L591.515 389.446L590.897 391.348L591.211 390.399ZM636.202 328.473L637.008 327.881L635.39 329.056L636.202 328.473ZM673.584 379.317L674.39 378.725L673.584 379.317ZM708.643 367.926L709.643 367.931L708.643 367.926ZM651.339 409.56L651.642 408.607L651.339 409.56ZM673.006 379.737L672.194 380.32L673.006 379.737ZM651.118 447.102L651.432 448.051L651.118 447.102ZM651.118 410.239L651.432 409.29L651.118 410.239ZM673.006 477.604L673.818 478.187L673.006 477.604ZM651.339 447.781L651.035 446.828L651.339 447.781ZM708.643 489.415L707.643 489.421L708.643 489.415ZM673.584 478.024L674.39 478.616L673.584 478.024ZM744.416 478.024L743.61 478.616L744.416 478.024ZM709.357 489.415L708.357 489.409L709.357 489.415ZM766.661 447.781L766.965 446.828L766.661 447.781ZM744.994 477.604L744.181 478.187L744.994 477.604ZM766.882 410.239L767.196 411.188L766.882 410.239ZM766.882 447.102L767.196 446.153L766.882 447.102ZM744.994 379.737L744.181 379.154L744.994 379.737ZM766.661 409.56L766.357 408.607L766.661 409.56ZM709.357 367.926L710.357 367.92L709.357 367.926ZM744.416 379.317L743.61 378.725L744.416 379.317ZM708 304.826L708.357 367.932L710.357 367.92L710 304.814L708 304.826ZM745.221 379.909L782.603 329.066L780.992 327.881L743.61 378.725L745.221 379.909ZM780.985 327.89L744.181 379.154L745.806 380.32L782.61 329.056L780.985 327.89ZM766.965 410.512L827.092 391.351L826.485 389.446L766.357 408.607L766.965 410.512ZM826.474 389.449L766.567 409.29L767.196 411.188L827.103 391.348L826.474 389.449ZM766.567 448.051L826.474 467.892L827.103 465.993L767.196 446.153L766.567 448.051ZM827.092 465.99L766.965 446.828L766.357 448.734L826.485 467.895L827.092 465.99ZM744.181 478.187L780.985 529.451L782.61 528.285L745.806 477.021L744.181 478.187ZM782.603 528.275L745.221 477.431L743.61 478.616L780.992 529.46L782.603 528.275ZM708.357 489.409L708 552.515L710 552.527L710.357 489.421L708.357 489.409ZM710 552.515L709.643 489.409L707.643 489.421L708 552.527L710 552.515ZM672.778 477.431L635.397 528.275L637.008 529.46L674.39 478.616L672.778 477.431ZM637.015 529.451L673.818 478.187L672.194 477.021L635.39 528.285L637.015 529.451ZM651.035 446.828L590.907 465.99L591.515 467.895L651.642 448.734L651.035 446.828ZM591.525 467.892L651.432 448.051L650.804 446.153L590.897 465.993L591.525 467.892ZM651.432 409.29L591.525 389.449L590.897 391.348L650.804 411.188L651.432 409.29ZM590.907 391.351L651.035 410.512L651.642 408.607L591.515 389.446L590.907 391.351ZM673.818 379.154L637.015 327.89L635.39 329.056L672.194 380.32L673.818 379.154ZM635.397 329.066L672.778 379.91L674.39 378.725L637.008 327.881L635.397 329.066ZM709.643 367.931L710 304.826L708 304.814L707.643 367.92L709.643 367.931ZM672.778 379.91C684.424 395.749 709.531 387.591 709.643 367.931L707.643 367.92C707.542 385.654 684.895 393.013 674.39 378.725L672.778 379.91ZM651.035 410.512C669.767 416.482 685.284 395.124 673.818 379.154L672.194 380.32C682.536 394.726 668.539 413.992 651.642 408.607L651.035 410.512ZM651.432 448.051C670.095 441.87 670.095 415.471 651.432 409.29L650.804 411.188C667.638 416.764 667.638 440.577 650.804 446.153L651.432 448.051ZM673.818 478.187C685.284 462.217 669.767 440.859 651.035 446.828L651.642 448.734C668.539 443.349 682.536 462.615 672.194 477.021L673.818 478.187ZM709.643 489.409C709.531 469.75 684.424 461.592 672.778 477.431L674.39 478.616C684.895 464.328 707.542 471.687 707.643 489.421L709.643 489.409ZM745.221 477.431C733.576 461.592 708.468 469.75 708.357 489.409L710.357 489.421C710.457 471.687 733.105 464.328 743.61 478.616L745.221 477.431ZM766.965 446.828C748.233 440.859 732.716 462.217 744.181 478.187L745.806 477.021C735.463 462.615 749.461 443.349 766.357 448.734L766.965 446.828ZM766.567 409.29C747.904 415.471 747.904 441.87 766.567 448.051L767.196 446.153C750.361 440.577 750.361 416.764 767.196 411.188L766.567 409.29ZM744.181 379.154C732.716 395.124 748.233 416.482 766.965 410.512L766.357 408.607C749.461 413.992 735.463 394.726 745.806 380.32L744.181 379.154ZM708.357 367.932C708.468 387.591 733.576 395.749 745.221 379.909L743.61 378.725C733.105 393.013 710.457 385.654 710.357 367.92L708.357 367.932Z" data-figma-gradient-fill="{&#34;type&#34;:&#34;GRADIENT_DIAMOND&#34;,&#34;stops&#34;:[{&#34;color&#34;:{&#34;r&#34;:0.66666668653488159,&#34;g&#34;:1.0,&#34;b&#34;:0.0,&#34;a&#34;:1.0},&#34;position&#34;:0.33854165673255920},{&#34;color&#34;:{&#34;r&#34;:0.0,&#34;g&#34;:0.0,&#34;b&#34;:0.0,&#34;a&#34;:1.0},&#34;position&#34;:0.80208331346511841},{&#34;color&#34;:{&#34;r&#34;:1.0,&#34;g&#34;:1.0,&#34;b&#34;:1.0,&#34;a&#34;:1.0},&#34;position&#34;:1.0}],&#34;stopsVar&#34;:[{&#34;color&#34;:{&#34;r&#34;:0.66666668653488159,&#34;g&#34;:1.0,&#34;b&#34;:0.0,&#34;a&#34;:1.0},&#34;position&#34;:0.33854165673255920},{&#34;color&#34;:{&#34;r&#34;:0.0,&#34;g&#34;:0.0,&#34;b&#34;:0.0,&#34;a&#34;:1.0},&#34;position&#34;:0.80208331346511841},{&#34;color&#34;:{&#34;r&#34;:1.0,&#34;g&#34;:1.0,&#34;b&#34;:1.0,&#34;a&#34;:1.0},&#34;position&#34;:1.0}],&#34;transform&#34;:{&#34;m00&#34;:1.4424981256136102e-14,&#34;m01&#34;:-235.57780456542969,&#34;m02&#34;:826.78875732421875,&#34;m10&#34;:247.70114135742188,&#34;m11&#34;:1.5167320931109771e-14,&#34;m12&#34;:304.81988525390625},&#34;opacity&#34;:1.0,&#34;blendMode&#34;:&#34;NORMAL&#34;,&#34;visible&#34;:true}" mask="url(#path-9-inside-5_33_1410)"/>
<defs>
<clipPath id="paint0_diamond_33_1410_clip_path"><path d="M708.999 -98.8737L709.999 -98.8793L707.999 -98.8793L708.999 -98.8737ZM1019.08 1.87823L1019.89 2.46143L1018.28 1.28587L1019.08 1.87823ZM1210.72 265.65L1211.04 266.599L1210.42 264.697L1210.72 265.65ZM1210.72 591.69L1210.42 592.643L1211.04 590.741L1210.72 591.69ZM1019.08 855.462L1018.28 856.055L1019.89 854.879L1019.08 855.462ZM708.999 956.214L707.999 956.22H709.999L708.999 956.214ZM398.917 855.462L398.105 854.879L399.723 856.055L398.917 855.462ZM207.275 591.69L206.961 590.741L207.579 592.643L207.275 591.69ZM207.275 265.65L207.579 264.697L206.961 266.599L207.275 265.65ZM398.917 1.87823L399.723 1.28587L398.105 2.46143L398.917 1.87823ZM558.145 218.449L557.339 219.041L558.145 218.449ZM707.478 169.927L708.478 169.933L707.478 169.927ZM463.391 347.268L463.694 346.315L463.391 347.268ZM555.684 220.237L554.871 220.82L555.684 220.237ZM462.45 507.179L462.136 506.23L462.45 507.179ZM462.45 350.161L462.765 349.212L462.45 350.161ZM555.684 637.103L556.496 637.687L555.684 637.103ZM463.39 510.073L463.087 509.12L463.39 510.073ZM707.478 687.413L706.478 687.419L707.478 687.413ZM558.145 638.892L558.951 639.484L558.145 638.892ZM859.854 638.892L859.048 639.484L859.854 638.892ZM710.521 687.413L709.521 687.408L710.521 687.413ZM954.608 510.073L954.912 509.12L954.608 510.073ZM862.315 637.104L861.503 637.687L862.315 637.104ZM955.548 350.161L955.863 351.11L955.548 350.161ZM955.549 507.179L955.863 506.23L955.549 507.179ZM862.315 220.237L861.503 219.654L862.315 220.237ZM954.608 347.268L954.305 346.315L954.608 347.268ZM710.521 169.927L711.521 169.922L710.521 169.927ZM859.854 218.449L859.048 217.856L859.854 218.449ZM707.999 -98.868L709.521 169.933L711.521 169.922L709.999 -98.8793L707.999 -98.868ZM860.66 219.041L1019.89 2.47058L1018.28 1.28587L859.048 217.856L860.66 219.041ZM1018.27 1.29503L861.503 219.654L863.128 220.82L1019.89 2.46143L1018.27 1.29503ZM954.912 348.22L1211.03 266.603L1210.42 264.697L954.305 346.315L954.912 348.22ZM1210.41 264.701L955.234 349.212L955.863 351.11L1211.04 266.599L1210.41 264.701ZM955.234 508.129L1210.41 592.64L1211.04 590.741L955.863 506.23L955.234 508.129ZM1211.03 590.738L954.912 509.12L954.305 511.026L1210.42 592.643L1211.03 590.738ZM861.503 637.687L1018.27 856.046L1019.89 854.879L863.128 636.52L861.503 637.687ZM1019.89 854.87L860.66 638.299L859.048 639.484L1018.28 856.055L1019.89 854.87ZM709.521 687.408L707.999 956.208L709.999 956.22L711.521 687.419L709.521 687.408ZM709.999 956.208L708.478 687.407L706.478 687.419L707.999 956.22L709.999 956.208ZM557.339 638.299L398.111 854.87L399.723 856.055L558.951 639.484L557.339 638.299ZM399.729 856.046L556.496 637.687L554.871 636.52L398.105 854.879L399.729 856.046ZM463.087 509.12L206.972 590.738L207.579 592.643L463.694 511.026L463.087 509.12ZM207.59 592.64L462.765 508.129L462.136 506.23L206.961 590.741L207.59 592.64ZM462.765 349.212L207.59 264.701L206.961 266.599L462.136 351.11L462.765 349.212ZM206.972 266.603L463.087 348.22L463.694 346.315L207.579 264.697L206.972 266.603ZM556.496 219.654L399.729 1.29503L398.105 2.46143L554.871 220.82L556.496 219.654ZM398.111 2.47058L557.339 219.041L558.951 217.856L399.723 1.28587L398.111 2.47058ZM708.478 169.933L709.999 -98.868L707.999 -98.8793L706.478 169.922L708.478 169.933ZM557.339 219.041C605.085 283.982 708.022 250.535 708.478 169.933L706.478 169.922C706.033 248.598 605.556 281.245 558.951 217.856L557.339 219.041ZM463.087 348.22C539.885 372.694 603.504 285.13 556.496 219.654L554.871 220.82C600.756 284.732 538.657 370.204 463.694 346.315L463.087 348.22ZM462.765 508.129C539.281 482.787 539.281 374.553 462.765 349.212L462.136 351.11C536.824 375.846 536.824 481.494 462.136 506.23L462.765 508.129ZM556.496 637.687C603.504 572.21 539.885 484.647 463.087 509.12L463.694 511.026C538.657 487.137 600.756 572.608 554.871 636.52L556.496 637.687ZM708.478 687.407C708.022 606.805 605.085 573.359 557.339 638.299L558.951 639.484C605.555 576.095 706.033 608.742 706.478 687.419L708.478 687.407ZM860.66 638.299C812.914 573.359 709.977 606.805 709.521 687.408L711.521 687.419C711.966 608.743 812.443 576.095 859.048 639.484L860.66 638.299ZM954.912 509.12C878.114 484.647 814.495 572.21 861.503 637.687L863.128 636.52C817.243 572.608 879.342 487.137 954.305 511.026L954.912 509.12ZM955.234 349.212C878.718 374.553 878.718 482.788 955.234 508.129L955.863 506.23C881.175 481.494 881.175 375.846 955.863 351.11L955.234 349.212ZM861.503 219.654C814.495 285.131 878.114 372.694 954.912 348.22L954.305 346.315C879.342 370.204 817.243 284.732 863.128 220.82L861.503 219.654ZM709.521 169.933C709.977 250.535 812.914 283.981 860.66 219.041L859.048 217.856C812.443 281.245 711.966 248.598 711.521 169.922L709.521 169.933Z" mask="url(#path-1-inside-1_33_1410)"/></clipPath><clipPath id="paint1_diamond_33_1410_clip_path"><path d="M709 -316.816L710 -316.822L708 -316.822L709 -316.816ZM1147.19 -174.441L1148 -173.858L1146.38 -175.033L1147.19 -174.441ZM1418 198.302L1418.31 199.252L1417.7 197.349L1418 198.302ZM1418 659.039L1417.7 659.991L1418.31 658.089L1418 659.039ZM1147.19 1031.78L1146.38 1032.37L1148 1031.2L1147.19 1031.78ZM709 1174.16L708 1174.16H710L709 1174.16ZM270.814 1031.78L270.002 1031.2L271.62 1032.37L270.814 1031.78ZM0 659.039L-0.314394 658.089L0.30363 659.991L0 659.039ZM0 198.302L0.30363 197.349L-0.314394 199.252L0 198.302ZM270.814 -174.441L271.62 -175.033L270.002 -173.858L270.814 -174.441ZM495.823 131.601L495.018 132.193L495.823 131.601ZM706.85 63.0337L707.85 63.0393L706.85 63.0337ZM361.923 313.638L362.227 312.685L361.923 313.638ZM492.345 134.128L491.533 134.711L492.345 134.128ZM360.595 539.614L360.28 538.665L360.595 539.614ZM360.595 317.727L360.909 316.778L360.595 317.727ZM492.345 723.213L493.158 723.796L492.345 723.213ZM361.923 543.703L361.62 542.75L361.923 543.703ZM706.85 794.307L705.85 794.312L706.85 794.307ZM495.823 725.74L496.629 726.333L495.823 725.74ZM922.177 725.74L921.371 726.332L922.177 725.74ZM711.15 794.307L710.15 794.301L711.15 794.307ZM1056.08 543.703L1056.38 542.75L1056.08 543.703ZM925.655 723.213L924.843 723.796L925.655 723.213ZM1057.41 317.727L1057.72 318.676L1057.41 317.727ZM1057.41 539.614L1057.72 538.665L1057.41 539.614ZM925.655 134.128L924.843 133.545L925.655 134.128ZM1056.08 313.638L1055.77 312.685L1056.08 313.638ZM711.15 63.0339L712.15 63.0282L711.15 63.0339ZM922.177 131.601L921.371 131.008L922.177 131.601ZM708 -316.811L710.15 63.0396L712.15 63.0282L710 -316.822L708 -316.811ZM922.982 132.193L1147.99 -173.849L1146.38 -175.033L921.371 131.008L922.982 132.193ZM1146.37 -175.024L924.843 133.545L926.467 134.711L1148 -173.858L1146.37 -175.024ZM1056.38 314.591L1418.3 199.255L1417.7 197.349L1055.77 312.685L1056.38 314.591ZM1417.69 197.353L1057.09 316.778L1057.72 318.676L1418.31 199.252L1417.69 197.353ZM1057.09 540.563L1417.69 659.988L1418.31 658.089L1057.72 538.665L1057.09 540.563ZM1418.3 658.086L1056.38 542.75L1055.77 544.656L1417.7 659.991L1418.3 658.086ZM924.843 723.796L1146.37 1032.37L1148 1031.2L926.467 722.63L924.843 723.796ZM1147.99 1031.19L922.982 725.148L921.371 726.332L1146.38 1032.37L1147.99 1031.19ZM710.15 794.301L708 1174.15L710 1174.16L712.15 794.313L710.15 794.301ZM710 1174.15L707.85 794.301L705.85 794.312L708 1174.16L710 1174.15ZM495.018 725.148L270.008 1031.19L271.62 1032.37L496.629 726.333L495.018 725.148ZM271.626 1032.37L493.158 723.796L491.533 722.63L270.002 1031.2L271.626 1032.37ZM361.62 542.75L-0.30363 658.086L0.30363 659.991L362.227 544.656L361.62 542.75ZM0.314394 659.988L360.909 540.563L360.28 538.665L-0.314394 658.089L0.314394 659.988ZM360.909 316.778L0.314394 197.353L-0.314394 199.252L360.28 318.676L360.909 316.778ZM-0.30363 199.255L361.62 314.591L362.227 312.685L0.30363 197.349L-0.30363 199.255ZM493.157 133.544L271.626 -175.024L270.002 -173.858L491.533 134.711L493.157 133.544ZM270.008 -173.849L495.018 132.193L496.629 131.008L271.62 -175.033L270.008 -173.849ZM707.85 63.0393L710 -316.811L708 -316.822L705.85 63.028L707.85 63.0393ZM495.018 132.193C562.253 223.642 707.208 176.543 707.85 63.0393L705.85 63.028C705.219 174.605 562.723 220.905 496.629 131.008L495.018 132.193ZM361.62 314.591C469.766 349.054 559.353 225.748 493.157 133.544L491.533 134.711C556.605 225.35 468.538 346.564 362.227 312.685L361.62 314.591ZM360.909 540.563C468.659 504.878 468.659 352.463 360.909 316.778L360.28 318.676C466.202 353.756 466.202 503.585 360.28 538.665L360.909 540.563ZM493.158 723.796C559.353 631.593 469.766 508.286 361.62 542.75L362.227 544.656C468.538 510.777 556.606 631.991 491.533 722.63L493.158 723.796ZM707.85 794.301C707.208 680.798 562.253 633.699 495.018 725.148L496.629 726.333C562.723 636.436 705.219 682.735 705.85 794.312L707.85 794.301ZM922.982 725.148C855.747 633.699 710.792 680.798 710.15 794.301L712.15 794.313C712.781 682.735 855.277 636.436 921.371 726.332L922.982 725.148ZM1056.38 542.75C948.234 508.286 858.647 631.593 924.843 723.796L926.467 722.63C861.395 631.991 949.462 510.777 1055.77 544.656L1056.38 542.75ZM1057.09 316.778C949.341 352.463 949.341 504.878 1057.09 540.563L1057.72 538.665C951.799 503.585 951.798 353.756 1057.72 318.676L1057.09 316.778ZM924.843 133.545C858.647 225.748 948.234 349.054 1056.38 314.591L1055.77 312.685C949.462 346.564 861.395 225.35 926.467 134.711L924.843 133.545ZM710.15 63.0396C710.792 176.543 855.747 223.641 922.982 132.193L921.371 131.008C855.277 220.905 712.781 174.606 712.15 63.0282L710.15 63.0396Z" mask="url(#path-3-inside-2_33_1410)"/></clipPath><clipPath id="paint2_diamond_33_1410_clip_path"><path d="M708.999 94.0101L709.999 94.0045L707.999 94.0045L708.999 94.0101ZM905.708 157.925L906.52 158.508L904.902 157.332L905.708 157.925ZM1027.28 325.255L1027.59 326.204L1026.98 324.302L1027.28 325.255ZM1027.28 532.086L1026.98 533.039L1027.59 531.137L1027.28 532.086ZM905.708 699.416L904.902 700.008L906.52 698.833L905.708 699.416ZM708.999 763.33L707.999 763.336H709.999L708.999 763.33ZM512.291 699.416L511.479 698.833L513.097 700.008L512.291 699.416ZM390.719 532.086L390.404 531.137L391.022 533.039L390.719 532.086ZM390.719 325.255L391.022 324.302L390.404 326.204L390.719 325.255ZM512.291 157.925L513.097 157.332L511.479 158.508L512.291 157.925ZM613.301 295.311L612.496 295.904L613.301 295.311ZM708.034 264.53L709.034 264.536L708.034 264.53ZM553.192 377.031L553.495 376.078L553.192 377.031ZM611.74 296.446L610.927 297.029L611.74 296.446ZM552.595 478.474L552.281 477.525L552.595 478.474ZM552.595 378.866L552.909 377.917L552.595 378.866ZM611.74 560.895L612.552 561.478L611.74 560.895ZM553.191 480.31L552.888 479.357L553.191 480.31ZM708.034 592.81L707.034 592.816L708.034 592.81ZM613.301 562.029L614.107 562.622L613.301 562.029ZM804.698 562.029L803.892 562.622L804.698 562.029ZM709.964 592.81L708.964 592.804L709.964 592.81ZM864.807 480.31L865.111 479.357L864.807 480.31ZM806.259 560.895L805.447 561.478L806.259 560.895ZM865.404 378.866L865.718 379.815L865.404 378.866ZM865.404 478.474L865.718 477.525L865.404 478.474ZM806.259 296.446L805.447 295.863L806.259 296.446ZM864.807 377.03L864.504 376.078L864.807 377.03ZM709.964 264.531L710.964 264.525L709.964 264.531ZM804.698 295.311L803.892 294.719L804.698 295.311ZM707.999 94.0158L708.964 264.536L710.964 264.525L709.999 94.0045L707.999 94.0158ZM805.503 295.904L906.513 158.517L904.902 157.332L803.892 294.719L805.503 295.904ZM904.895 157.341L805.447 295.863L807.071 297.029L906.52 158.508L904.895 157.341ZM865.111 377.983L1027.58 326.207L1026.98 324.302L864.504 376.078L865.111 377.983ZM1026.97 324.305L865.089 377.917L865.718 379.815L1027.59 326.204L1026.97 324.305ZM865.089 479.424L1026.97 533.035L1027.59 531.137L865.718 477.525L865.089 479.424ZM1027.58 531.133L865.111 479.357L864.504 481.263L1026.98 533.039L1027.58 531.133ZM805.447 561.478L904.895 699.999L906.52 698.833L807.071 560.312L805.447 561.478ZM906.513 698.824L805.503 561.437L803.892 562.622L904.902 700.008L906.513 698.824ZM708.964 592.804L707.999 763.325L709.999 763.336L710.964 592.816L708.964 592.804ZM709.999 763.325L709.034 592.804L707.034 592.816L707.999 763.336L709.999 763.325ZM612.496 561.437L511.485 698.824L513.097 700.008L614.107 562.622L612.496 561.437ZM513.103 699.999L612.552 561.478L610.928 560.312L511.479 698.833L513.103 699.999ZM552.888 479.357L390.415 531.133L391.022 533.039L553.495 481.263L552.888 479.357ZM391.033 533.035L552.91 479.424L552.281 477.525L390.404 531.137L391.033 533.035ZM552.909 377.917L391.033 324.305L390.404 326.204L552.281 379.815L552.909 377.917ZM390.415 326.207L552.888 377.983L553.495 376.078L391.022 324.302L390.415 326.207ZM612.552 295.862L513.103 157.341L511.479 158.508L610.927 297.029L612.552 295.862ZM511.485 158.517L612.496 295.904L614.107 294.719L513.097 157.332L511.485 158.517ZM709.034 264.536L709.999 94.0158L707.999 94.0045L707.034 264.525L709.034 264.536ZM612.496 295.904C642.993 337.384 708.743 316.02 709.034 264.536L707.034 264.525C706.754 314.083 643.463 334.647 614.107 294.719L612.496 295.904ZM552.888 377.983C601.942 393.616 642.578 337.685 612.552 295.862L610.927 297.029C639.83 337.287 600.714 391.125 553.495 376.078L552.888 377.983ZM552.91 479.424C601.784 463.237 601.784 394.103 552.909 377.917L552.281 379.815C599.327 395.396 599.327 461.944 552.281 477.525L552.91 479.424ZM612.552 561.478C642.578 519.655 601.942 463.725 552.888 479.357L553.495 481.263C600.714 466.215 639.83 520.053 610.928 560.312L612.552 561.478ZM709.034 592.804C708.743 541.32 642.993 519.957 612.496 561.437L614.107 562.622C643.463 522.693 706.754 543.258 707.034 592.816L709.034 592.804ZM805.503 561.437C775.006 519.957 709.256 541.32 708.964 592.804L710.964 592.816C711.245 543.258 774.536 522.693 803.892 562.622L805.503 561.437ZM865.111 479.357C816.057 463.725 775.421 519.655 805.447 561.478L807.071 560.312C778.169 520.054 817.285 466.215 864.504 481.263L865.111 479.357ZM865.089 377.917C816.215 394.103 816.215 463.237 865.089 479.424L865.718 477.525C818.672 461.944 818.672 395.396 865.718 379.815L865.089 377.917ZM805.447 295.863C775.421 337.685 816.057 393.616 865.111 377.983L864.504 376.078C817.285 391.125 778.169 337.287 807.071 297.029L805.447 295.863ZM708.964 264.536C709.256 316.02 775.006 337.384 805.503 295.904L803.892 294.719C774.536 334.647 711.245 314.083 710.964 264.525L708.964 264.536Z" mask="url(#path-5-inside-3_33_1410)"/></clipPath><clipPath id="paint3_diamond_33_1410_clip_path"><path d="M709 215.226L710 215.22L708 215.22L709 215.226ZM834.459 255.99L835.272 256.573L833.654 255.398L834.459 255.99ZM911.998 362.712L912.312 363.662L911.694 361.76L911.998 362.712ZM911.998 494.629L911.694 495.581L912.312 493.679L911.998 494.629ZM834.459 601.351L833.654 601.943L835.272 600.768L834.459 601.351ZM709 642.115L708 642.121H710L709 642.115ZM583.54 601.351L582.728 600.768L584.346 601.943L583.54 601.351ZM506.002 494.629L505.688 493.679L506.306 495.581L506.002 494.629ZM506.002 362.712L506.306 361.76L505.688 363.662L506.002 362.712ZM583.54 255.99L584.346 255.398L582.728 256.573L583.54 255.99ZM647.964 343.615L647.158 344.207L647.964 343.615ZM708.384 323.983L709.384 323.989L708.384 323.983ZM609.626 395.735L609.93 394.782L609.626 395.735ZM646.968 344.338L646.156 344.921L646.968 344.338ZM609.246 460.435L608.932 459.486L609.246 460.435ZM609.246 396.906L609.56 395.956L609.246 396.906ZM646.968 513.003L647.781 513.586L646.968 513.003ZM609.626 461.606L609.323 460.653L609.626 461.606ZM708.384 533.358L707.384 533.364L708.384 533.358ZM647.964 513.726L648.77 514.319L647.964 513.726ZM770.036 513.726L769.23 514.319L770.036 513.726ZM709.615 533.358L708.615 533.352L709.615 533.358ZM808.373 461.606L808.677 460.653L808.373 461.606ZM771.032 513.003L770.219 513.586L771.032 513.003ZM808.754 396.906L809.068 397.855L808.754 396.906ZM808.754 460.435L809.068 459.486L808.754 460.435ZM771.032 344.338L770.219 343.755L771.032 344.338ZM808.373 395.735L808.07 394.782L808.373 395.735ZM709.615 323.983L710.615 323.977L709.615 323.983ZM770.036 343.615L769.23 343.022L770.036 343.615ZM708 215.231L708.615 323.989L710.615 323.977L710 215.22L708 215.231ZM770.841 344.207L835.265 256.582L833.654 255.398L769.23 343.022L770.841 344.207ZM833.647 255.407L770.219 343.755L771.844 344.921L835.272 256.573L833.647 255.407ZM808.677 396.688L912.301 363.665L911.694 361.76L808.07 394.782L808.677 396.688ZM911.683 361.763L808.439 395.956L809.068 397.855L912.312 363.662L911.683 361.763ZM808.439 461.385L911.683 495.578L912.312 493.679L809.068 459.486L808.439 461.385ZM912.301 493.676L808.677 460.653L808.07 462.559L911.694 495.581L912.301 493.676ZM770.219 513.586L833.647 601.934L835.272 600.768L771.844 512.42L770.219 513.586ZM835.265 600.758L770.841 513.134L769.23 514.319L833.654 601.943L835.265 600.758ZM708.615 533.352L708 642.109L710 642.121L710.615 533.364L708.615 533.352ZM710 642.109L709.384 533.352L707.384 533.364L708 642.121L710 642.109ZM647.158 513.134L582.735 600.758L584.346 601.943L648.77 514.319L647.158 513.134ZM584.353 601.934L647.781 513.586L646.156 512.419L582.728 600.768L584.353 601.934ZM609.323 460.653L505.698 493.676L506.306 495.581L609.93 462.559L609.323 460.653ZM506.316 495.578L609.56 461.385L608.932 459.486L505.688 493.679L506.316 495.578ZM609.56 395.956L506.316 361.763L505.688 363.662L608.932 397.855L609.56 395.956ZM505.698 363.665L609.323 396.688L609.93 394.782L506.306 361.76L505.698 363.665ZM647.78 343.755L584.353 255.407L582.728 256.573L646.156 344.921L647.78 343.755ZM582.735 256.582L647.158 344.207L648.77 343.022L584.346 255.398L582.735 256.582ZM709.384 323.989L710 215.231L708 215.22L707.384 323.977L709.384 323.989ZM647.158 344.207C666.816 370.944 709.197 357.174 709.384 323.989L707.384 323.977C707.208 355.236 667.286 368.208 648.77 343.022L647.158 344.207ZM609.323 396.688C640.942 406.764 667.134 370.713 647.78 343.755L646.156 344.921C664.386 370.315 639.714 404.273 609.93 394.782L609.323 396.688ZM609.56 461.385C641.063 450.951 641.063 406.39 609.56 395.956L608.932 397.855C638.606 407.683 638.606 449.658 608.932 459.486L609.56 461.385ZM647.781 513.586C667.134 486.628 640.941 450.577 609.323 460.653L609.93 462.559C639.714 453.067 664.386 487.026 646.156 512.419L647.781 513.586ZM709.384 533.352C709.197 500.167 666.816 486.397 647.158 513.134L648.77 514.319C667.286 489.133 707.207 502.105 707.384 533.364L709.384 533.352ZM770.841 513.134C751.184 486.397 708.803 500.167 708.615 533.352L710.615 533.364C710.792 502.105 750.713 489.133 769.23 514.319L770.841 513.134ZM808.677 460.653C777.058 450.577 750.866 486.628 770.219 513.586L771.844 512.42C753.613 487.026 778.286 453.067 808.07 462.559L808.677 460.653ZM808.439 395.956C776.937 406.39 776.937 450.951 808.439 461.385L809.068 459.486C779.394 449.658 779.394 407.683 809.068 397.855L808.439 395.956ZM770.219 343.755C750.865 370.713 777.058 406.764 808.677 396.688L808.07 394.782C778.286 404.273 753.613 370.315 771.844 344.921L770.219 343.755ZM708.615 323.989C708.803 357.174 751.184 370.944 770.841 344.207L769.23 343.022C750.713 368.208 710.792 355.236 710.615 323.977L708.615 323.989Z" mask="url(#path-7-inside-4_33_1410)"/></clipPath><clipPath id="paint4_diamond_33_1410_clip_path"><path d="M709 304.82L710 304.814L708 304.814L709 304.82ZM781.797 328.473L782.61 329.056L780.992 327.881L781.797 328.473ZM826.789 390.399L827.103 391.348L826.485 389.446L826.789 390.399ZM826.789 466.942L826.485 467.895L827.103 465.993L826.789 466.942ZM781.797 528.868L780.992 529.46L782.61 528.285L781.797 528.868ZM709 552.521L708 552.527H710L709 552.521ZM636.202 528.868L635.39 528.285L637.008 529.46L636.202 528.868ZM591.211 466.942L590.897 465.993L591.515 467.895L591.211 466.942ZM591.211 390.399L591.515 389.446L590.897 391.348L591.211 390.399ZM636.202 328.473L637.008 327.881L635.39 329.056L636.202 328.473ZM673.584 379.317L674.39 378.725L673.584 379.317ZM708.643 367.926L709.643 367.931L708.643 367.926ZM651.339 409.56L651.642 408.607L651.339 409.56ZM673.006 379.737L672.194 380.32L673.006 379.737ZM651.118 447.102L651.432 448.051L651.118 447.102ZM651.118 410.239L651.432 409.29L651.118 410.239ZM673.006 477.604L673.818 478.187L673.006 477.604ZM651.339 447.781L651.035 446.828L651.339 447.781ZM708.643 489.415L707.643 489.421L708.643 489.415ZM673.584 478.024L674.39 478.616L673.584 478.024ZM744.416 478.024L743.61 478.616L744.416 478.024ZM709.357 489.415L708.357 489.409L709.357 489.415ZM766.661 447.781L766.965 446.828L766.661 447.781ZM744.994 477.604L744.181 478.187L744.994 477.604ZM766.882 410.239L767.196 411.188L766.882 410.239ZM766.882 447.102L767.196 446.153L766.882 447.102ZM744.994 379.737L744.181 379.154L744.994 379.737ZM766.661 409.56L766.357 408.607L766.661 409.56ZM709.357 367.926L710.357 367.92L709.357 367.926ZM744.416 379.317L743.61 378.725L744.416 379.317ZM708 304.826L708.357 367.932L710.357 367.92L710 304.814L708 304.826ZM745.221 379.909L782.603 329.066L780.992 327.881L743.61 378.725L745.221 379.909ZM780.985 327.89L744.181 379.154L745.806 380.32L782.61 329.056L780.985 327.89ZM766.965 410.512L827.092 391.351L826.485 389.446L766.357 408.607L766.965 410.512ZM826.474 389.449L766.567 409.29L767.196 411.188L827.103 391.348L826.474 389.449ZM766.567 448.051L826.474 467.892L827.103 465.993L767.196 446.153L766.567 448.051ZM827.092 465.99L766.965 446.828L766.357 448.734L826.485 467.895L827.092 465.99ZM744.181 478.187L780.985 529.451L782.61 528.285L745.806 477.021L744.181 478.187ZM782.603 528.275L745.221 477.431L743.61 478.616L780.992 529.46L782.603 528.275ZM708.357 489.409L708 552.515L710 552.527L710.357 489.421L708.357 489.409ZM710 552.515L709.643 489.409L707.643 489.421L708 552.527L710 552.515ZM672.778 477.431L635.397 528.275L637.008 529.46L674.39 478.616L672.778 477.431ZM637.015 529.451L673.818 478.187L672.194 477.021L635.39 528.285L637.015 529.451ZM651.035 446.828L590.907 465.99L591.515 467.895L651.642 448.734L651.035 446.828ZM591.525 467.892L651.432 448.051L650.804 446.153L590.897 465.993L591.525 467.892ZM651.432 409.29L591.525 389.449L590.897 391.348L650.804 411.188L651.432 409.29ZM590.907 391.351L651.035 410.512L651.642 408.607L591.515 389.446L590.907 391.351ZM673.818 379.154L637.015 327.89L635.39 329.056L672.194 380.32L673.818 379.154ZM635.397 329.066L672.778 379.91L674.39 378.725L637.008 327.881L635.397 329.066ZM709.643 367.931L710 304.826L708 304.814L707.643 367.92L709.643 367.931ZM672.778 379.91C684.424 395.749 709.531 387.591 709.643 367.931L707.643 367.92C707.542 385.654 684.895 393.013 674.39 378.725L672.778 379.91ZM651.035 410.512C669.767 416.482 685.284 395.124 673.818 379.154L672.194 380.32C682.536 394.726 668.539 413.992 651.642 408.607L651.035 410.512ZM651.432 448.051C670.095 441.87 670.095 415.471 651.432 409.29L650.804 411.188C667.638 416.764 667.638 440.577 650.804 446.153L651.432 448.051ZM673.818 478.187C685.284 462.217 669.767 440.859 651.035 446.828L651.642 448.734C668.539 443.349 682.536 462.615 672.194 477.021L673.818 478.187ZM709.643 489.409C709.531 469.75 684.424 461.592 672.778 477.431L674.39 478.616C684.895 464.328 707.542 471.687 707.643 489.421L709.643 489.409ZM745.221 477.431C733.576 461.592 708.468 469.75 708.357 489.409L710.357 489.421C710.457 471.687 733.105 464.328 743.61 478.616L745.221 477.431ZM766.965 446.828C748.233 440.859 732.716 462.217 744.181 478.187L745.806 477.021C735.463 462.615 749.461 443.349 766.357 448.734L766.965 446.828ZM766.567 409.29C747.904 415.471 747.904 441.87 766.567 448.051L767.196 446.153C750.361 440.577 750.361 416.764 767.196 411.188L766.567 409.29ZM744.181 379.154C732.716 395.124 748.233 416.482 766.965 410.512L766.357 408.607C749.461 413.992 735.463 394.726 745.806 380.32L744.181 379.154ZM708.357 367.932C708.468 387.591 733.576 395.749 745.221 379.909L743.61 378.725C733.105 393.013 710.457 385.654 710.357 367.92L708.357 367.932Z" mask="url(#path-9-inside-5_33_1410)"/></clipPath><linearGradient id="paint0_diamond_33_1410" x1="0" y1="0" x2="500" y2="500" gradientUnits="userSpaceOnUse">
<stop offset="0.338542" stop-color="#FFAE00"/>
<stop offset="0.802083"/>
<stop offset="1" stop-color="white"/>
</linearGradient>
<linearGradient id="paint1_diamond_33_1410" x1="0" y1="0" x2="500" y2="500" gradientUnits="userSpaceOnUse">
<stop offset="0.338542" stop-color="#FFAE00"/>
<stop offset="0.802083"/>
<stop offset="1" stop-color="white"/>
</linearGradient>
<linearGradient id="paint2_diamond_33_1410" x1="0" y1="0" x2="500" y2="500" gradientUnits="userSpaceOnUse">
<stop offset="0.338542" stop-color="#FFAE00"/>
<stop offset="0.802083"/>
<stop offset="1" stop-color="white"/>
</linearGradient>
<linearGradient id="paint3_diamond_33_1410" x1="0" y1="0" x2="500" y2="500" gradientUnits="userSpaceOnUse">
<stop offset="0.338542" stop-color="#FFAE00"/>
<stop offset="0.802083"/>
<stop offset="1" stop-color="white"/>
</linearGradient>
<linearGradient id="paint4_diamond_33_1410" x1="0" y1="0" x2="500" y2="500" gradientUnits="userSpaceOnUse">
<stop offset="0.338542" stop-color="#AAFF00"/>
<stop offset="0.802083"/>
<stop offset="1" stop-color="white"/>
</linearGradient>
</defs>
</svg>
