<svg width="87" height="86" viewBox="0 0 87 86" fill="none" xmlns="http://www.w3.org/2000/svg">
<g opacity="0.4">
<path d="M43.5 0L44.2356 19.8851C44.6857 32.0507 54.4291 41.8073 66.5723 42.252L87 43L66.5723 43.748C54.4291 44.1927 44.6857 53.9493 44.2356 66.1149L43.5 86L42.7644 66.1149C42.3143 53.9493 32.5709 44.1927 20.4277 43.748L0 43L20.4277 42.252C32.5709 41.8073 42.3143 32.0507 42.7644 19.8851L43.5 0Z" fill="#F5F5F5"/>
<path d="M64.96 5.76087L55.673 23.3504C49.9913 34.1115 53.5601 47.4418 63.8545 53.9098L81.1721 64.7905L63.1079 55.2054C52.3696 49.5076 39.0624 53.0762 32.6011 63.3866L22.04 80.2391L31.327 62.6496C37.0087 51.8884 33.4399 38.5581 23.1455 32.0901L5.8279 21.2094L23.8921 30.7945C34.6304 36.4923 47.9376 32.9237 54.3989 22.6134L64.96 5.76087Z" fill="#F5F5F5"/>
<path d="M80.6698 21.5L63.8487 32.0808C53.5575 38.5541 49.9955 51.8862 55.6827 62.6444L65.25 80.7423L54.3896 63.3925C47.9336 53.0788 34.6281 49.5034 23.887 55.1957L6.33019 64.5L23.1513 53.9192C33.4425 47.4459 37.0045 34.1138 31.3172 23.3556L21.75 5.25768L32.6104 22.6075C39.0664 32.9212 52.3719 36.4966 63.113 30.8043L80.6698 21.5Z" fill="#F5F5F5"/>
</g>
</svg>
